G04 EAGLE Gerber RS-274X export*
G75*
%MOMM*%
%FSLAX34Y34*%
%LPD*%
%INSoldermask Bottom*%
%IPPOS*%
%AMOC8*
5,1,8,0,0,1.08239X$1,22.5*%
G01*
%ADD10C,3.203200*%
%ADD11C,1.511200*%
%ADD12R,1.511200X1.511200*%
%ADD13C,1.411200*%
%ADD14R,1.411200X1.411200*%
%ADD15C,1.727200*%
%ADD16C,1.727200*%


D10*
X27000Y430000D03*
X363000Y430000D03*
X363000Y30000D03*
X27000Y30000D03*
D11*
X368500Y89000D03*
X368500Y109000D03*
X368500Y129000D03*
X368500Y149000D03*
X368500Y169000D03*
D12*
X368500Y189000D03*
D13*
X28000Y219000D03*
X28000Y199000D03*
X28000Y239000D03*
X28000Y179000D03*
X28000Y159000D03*
X28000Y139000D03*
X28000Y119000D03*
D14*
X28000Y99000D03*
D15*
X139200Y374600D03*
X139200Y400000D03*
X164600Y374600D03*
X164600Y400000D03*
X190000Y374600D03*
X190000Y400000D03*
X215400Y374600D03*
X215400Y400000D03*
X240800Y374600D03*
X240800Y400000D03*
D16*
X263500Y27620D02*
X263500Y12380D01*
X238100Y12380D02*
X238100Y27620D01*
X212700Y27620D02*
X212700Y12380D01*
X187300Y12380D02*
X187300Y27620D01*
X161900Y27620D02*
X161900Y12380D01*
X136500Y12380D02*
X136500Y27620D01*
X111100Y27620D02*
X111100Y12380D01*
X288900Y12380D02*
X288900Y27620D01*
M02*
