G04 EAGLE Gerber RS-274X export*
G75*
%MOMM*%
%FSLAX34Y34*%
%LPD*%
%INSilkscreen Top*%
%IPPOS*%
%AMOC8*
5,1,8,0,0,1.08239X$1,22.5*%
G01*
%ADD10C,0.200000*%
%ADD11C,0.127000*%
%ADD12C,0.300000*%
%ADD13C,0.101600*%
%ADD14C,0.152400*%
%ADD15R,0.508000X0.508000*%
%ADD16C,0.206000*%
%ADD17R,0.250000X0.250000*%


D10*
X169250Y70950D02*
X169252Y71013D01*
X169258Y71075D01*
X169268Y71137D01*
X169281Y71199D01*
X169299Y71259D01*
X169320Y71318D01*
X169345Y71376D01*
X169374Y71432D01*
X169406Y71486D01*
X169441Y71538D01*
X169479Y71587D01*
X169521Y71635D01*
X169565Y71679D01*
X169613Y71721D01*
X169662Y71759D01*
X169714Y71794D01*
X169768Y71826D01*
X169824Y71855D01*
X169882Y71880D01*
X169941Y71901D01*
X170001Y71919D01*
X170063Y71932D01*
X170125Y71942D01*
X170187Y71948D01*
X170250Y71950D01*
X170313Y71948D01*
X170375Y71942D01*
X170437Y71932D01*
X170499Y71919D01*
X170559Y71901D01*
X170618Y71880D01*
X170676Y71855D01*
X170732Y71826D01*
X170786Y71794D01*
X170838Y71759D01*
X170887Y71721D01*
X170935Y71679D01*
X170979Y71635D01*
X171021Y71587D01*
X171059Y71538D01*
X171094Y71486D01*
X171126Y71432D01*
X171155Y71376D01*
X171180Y71318D01*
X171201Y71259D01*
X171219Y71199D01*
X171232Y71137D01*
X171242Y71075D01*
X171248Y71013D01*
X171250Y70950D01*
X171248Y70887D01*
X171242Y70825D01*
X171232Y70763D01*
X171219Y70701D01*
X171201Y70641D01*
X171180Y70582D01*
X171155Y70524D01*
X171126Y70468D01*
X171094Y70414D01*
X171059Y70362D01*
X171021Y70313D01*
X170979Y70265D01*
X170935Y70221D01*
X170887Y70179D01*
X170838Y70141D01*
X170786Y70106D01*
X170732Y70074D01*
X170676Y70045D01*
X170618Y70020D01*
X170559Y69999D01*
X170499Y69981D01*
X170437Y69968D01*
X170375Y69958D01*
X170313Y69952D01*
X170250Y69950D01*
X170187Y69952D01*
X170125Y69958D01*
X170063Y69968D01*
X170001Y69981D01*
X169941Y69999D01*
X169882Y70020D01*
X169824Y70045D01*
X169768Y70074D01*
X169714Y70106D01*
X169662Y70141D01*
X169613Y70179D01*
X169565Y70221D01*
X169521Y70265D01*
X169479Y70313D01*
X169441Y70362D01*
X169406Y70414D01*
X169374Y70468D01*
X169345Y70524D01*
X169320Y70582D01*
X169299Y70641D01*
X169281Y70701D01*
X169268Y70763D01*
X169258Y70825D01*
X169252Y70887D01*
X169250Y70950D01*
D11*
X169050Y92900D02*
X169050Y131900D01*
X270350Y131900D02*
X270350Y92900D01*
D10*
X169190Y164492D02*
X169192Y164555D01*
X169198Y164617D01*
X169208Y164679D01*
X169221Y164741D01*
X169239Y164801D01*
X169260Y164860D01*
X169285Y164918D01*
X169314Y164974D01*
X169346Y165028D01*
X169381Y165080D01*
X169419Y165129D01*
X169461Y165177D01*
X169505Y165221D01*
X169553Y165263D01*
X169602Y165301D01*
X169654Y165336D01*
X169708Y165368D01*
X169764Y165397D01*
X169822Y165422D01*
X169881Y165443D01*
X169941Y165461D01*
X170003Y165474D01*
X170065Y165484D01*
X170127Y165490D01*
X170190Y165492D01*
X170253Y165490D01*
X170315Y165484D01*
X170377Y165474D01*
X170439Y165461D01*
X170499Y165443D01*
X170558Y165422D01*
X170616Y165397D01*
X170672Y165368D01*
X170726Y165336D01*
X170778Y165301D01*
X170827Y165263D01*
X170875Y165221D01*
X170919Y165177D01*
X170961Y165129D01*
X170999Y165080D01*
X171034Y165028D01*
X171066Y164974D01*
X171095Y164918D01*
X171120Y164860D01*
X171141Y164801D01*
X171159Y164741D01*
X171172Y164679D01*
X171182Y164617D01*
X171188Y164555D01*
X171190Y164492D01*
X171188Y164429D01*
X171182Y164367D01*
X171172Y164305D01*
X171159Y164243D01*
X171141Y164183D01*
X171120Y164124D01*
X171095Y164066D01*
X171066Y164010D01*
X171034Y163956D01*
X170999Y163904D01*
X170961Y163855D01*
X170919Y163807D01*
X170875Y163763D01*
X170827Y163721D01*
X170778Y163683D01*
X170726Y163648D01*
X170672Y163616D01*
X170616Y163587D01*
X170558Y163562D01*
X170499Y163541D01*
X170439Y163523D01*
X170377Y163510D01*
X170315Y163500D01*
X170253Y163494D01*
X170190Y163492D01*
X170127Y163494D01*
X170065Y163500D01*
X170003Y163510D01*
X169941Y163523D01*
X169881Y163541D01*
X169822Y163562D01*
X169764Y163587D01*
X169708Y163616D01*
X169654Y163648D01*
X169602Y163683D01*
X169553Y163721D01*
X169505Y163763D01*
X169461Y163807D01*
X169419Y163855D01*
X169381Y163904D01*
X169346Y163956D01*
X169314Y164010D01*
X169285Y164066D01*
X169260Y164124D01*
X169239Y164183D01*
X169221Y164243D01*
X169208Y164305D01*
X169198Y164367D01*
X169192Y164429D01*
X169190Y164492D01*
D11*
X168990Y186442D02*
X168990Y225442D01*
X270290Y225442D02*
X270290Y186442D01*
X340500Y208500D02*
X340500Y69500D01*
X385500Y69500D01*
X385500Y208500D02*
X340500Y208500D01*
X385500Y208500D02*
X385500Y69500D01*
D10*
X391500Y189000D02*
X391502Y189063D01*
X391508Y189125D01*
X391518Y189187D01*
X391531Y189249D01*
X391549Y189309D01*
X391570Y189368D01*
X391595Y189426D01*
X391624Y189482D01*
X391656Y189536D01*
X391691Y189588D01*
X391729Y189637D01*
X391771Y189685D01*
X391815Y189729D01*
X391863Y189771D01*
X391912Y189809D01*
X391964Y189844D01*
X392018Y189876D01*
X392074Y189905D01*
X392132Y189930D01*
X392191Y189951D01*
X392251Y189969D01*
X392313Y189982D01*
X392375Y189992D01*
X392437Y189998D01*
X392500Y190000D01*
X392563Y189998D01*
X392625Y189992D01*
X392687Y189982D01*
X392749Y189969D01*
X392809Y189951D01*
X392868Y189930D01*
X392926Y189905D01*
X392982Y189876D01*
X393036Y189844D01*
X393088Y189809D01*
X393137Y189771D01*
X393185Y189729D01*
X393229Y189685D01*
X393271Y189637D01*
X393309Y189588D01*
X393344Y189536D01*
X393376Y189482D01*
X393405Y189426D01*
X393430Y189368D01*
X393451Y189309D01*
X393469Y189249D01*
X393482Y189187D01*
X393492Y189125D01*
X393498Y189063D01*
X393500Y189000D01*
X393498Y188937D01*
X393492Y188875D01*
X393482Y188813D01*
X393469Y188751D01*
X393451Y188691D01*
X393430Y188632D01*
X393405Y188574D01*
X393376Y188518D01*
X393344Y188464D01*
X393309Y188412D01*
X393271Y188363D01*
X393229Y188315D01*
X393185Y188271D01*
X393137Y188229D01*
X393088Y188191D01*
X393036Y188156D01*
X392982Y188124D01*
X392926Y188095D01*
X392868Y188070D01*
X392809Y188049D01*
X392749Y188031D01*
X392687Y188018D01*
X392625Y188008D01*
X392563Y188002D01*
X392500Y188000D01*
X392437Y188002D01*
X392375Y188008D01*
X392313Y188018D01*
X392251Y188031D01*
X392191Y188049D01*
X392132Y188070D01*
X392074Y188095D01*
X392018Y188124D01*
X391964Y188156D01*
X391912Y188191D01*
X391863Y188229D01*
X391815Y188271D01*
X391771Y188315D01*
X391729Y188363D01*
X391691Y188412D01*
X391656Y188464D01*
X391624Y188518D01*
X391595Y188574D01*
X391570Y188632D01*
X391549Y188691D01*
X391531Y188751D01*
X391518Y188813D01*
X391508Y188875D01*
X391502Y188937D01*
X391500Y189000D01*
D11*
X56000Y268750D02*
X56000Y69250D01*
X56000Y268750D02*
X11000Y268750D01*
X11000Y69250D02*
X56000Y69250D01*
X11000Y69250D02*
X11000Y268750D01*
D12*
X2586Y98000D02*
X2588Y98075D01*
X2594Y98149D01*
X2604Y98223D01*
X2617Y98296D01*
X2635Y98369D01*
X2656Y98440D01*
X2681Y98511D01*
X2710Y98580D01*
X2743Y98647D01*
X2779Y98712D01*
X2818Y98776D01*
X2860Y98837D01*
X2906Y98896D01*
X2955Y98953D01*
X3007Y99006D01*
X3061Y99057D01*
X3118Y99106D01*
X3178Y99150D01*
X3240Y99192D01*
X3304Y99231D01*
X3370Y99266D01*
X3437Y99297D01*
X3507Y99325D01*
X3577Y99349D01*
X3649Y99370D01*
X3722Y99386D01*
X3795Y99399D01*
X3870Y99408D01*
X3944Y99413D01*
X4019Y99414D01*
X4093Y99411D01*
X4168Y99404D01*
X4241Y99393D01*
X4315Y99379D01*
X4387Y99360D01*
X4458Y99338D01*
X4528Y99312D01*
X4597Y99282D01*
X4663Y99249D01*
X4728Y99212D01*
X4791Y99172D01*
X4852Y99128D01*
X4910Y99082D01*
X4966Y99032D01*
X5019Y98980D01*
X5070Y98925D01*
X5117Y98867D01*
X5161Y98807D01*
X5202Y98744D01*
X5240Y98680D01*
X5274Y98614D01*
X5305Y98545D01*
X5332Y98476D01*
X5355Y98405D01*
X5374Y98333D01*
X5390Y98260D01*
X5402Y98186D01*
X5410Y98112D01*
X5414Y98037D01*
X5414Y97963D01*
X5410Y97888D01*
X5402Y97814D01*
X5390Y97740D01*
X5374Y97667D01*
X5355Y97595D01*
X5332Y97524D01*
X5305Y97455D01*
X5274Y97386D01*
X5240Y97320D01*
X5202Y97256D01*
X5161Y97193D01*
X5117Y97133D01*
X5070Y97075D01*
X5019Y97020D01*
X4966Y96968D01*
X4910Y96918D01*
X4852Y96872D01*
X4791Y96828D01*
X4728Y96788D01*
X4663Y96751D01*
X4597Y96718D01*
X4528Y96688D01*
X4458Y96662D01*
X4387Y96640D01*
X4315Y96621D01*
X4241Y96607D01*
X4168Y96596D01*
X4093Y96589D01*
X4019Y96586D01*
X3944Y96587D01*
X3870Y96592D01*
X3795Y96601D01*
X3722Y96614D01*
X3649Y96630D01*
X3577Y96651D01*
X3507Y96675D01*
X3437Y96703D01*
X3370Y96734D01*
X3304Y96769D01*
X3240Y96808D01*
X3178Y96850D01*
X3118Y96894D01*
X3061Y96943D01*
X3007Y96994D01*
X2955Y97047D01*
X2906Y97104D01*
X2860Y97163D01*
X2818Y97224D01*
X2779Y97288D01*
X2743Y97353D01*
X2710Y97420D01*
X2681Y97489D01*
X2656Y97560D01*
X2635Y97631D01*
X2617Y97704D01*
X2604Y97777D01*
X2594Y97851D01*
X2588Y97925D01*
X2586Y98000D01*
D11*
X83320Y440640D02*
X106180Y440640D01*
X106180Y436830D01*
X172220Y436830D01*
X172220Y440640D01*
X207780Y440640D01*
X207780Y436830D01*
X273820Y436830D01*
X273820Y440640D01*
X296680Y440640D01*
X296680Y337770D01*
X83320Y337770D01*
X83320Y440640D01*
D13*
X137788Y333365D02*
X134537Y330764D01*
X137788Y333365D02*
X137788Y321660D01*
X134537Y321660D02*
X141039Y321660D01*
X141051Y449998D02*
X141049Y450105D01*
X141043Y450212D01*
X141033Y450318D01*
X141020Y450424D01*
X141002Y450529D01*
X140981Y450634D01*
X140956Y450738D01*
X140927Y450841D01*
X140894Y450942D01*
X140858Y451043D01*
X140818Y451142D01*
X140774Y451240D01*
X140727Y451335D01*
X140677Y451430D01*
X140623Y451522D01*
X140565Y451612D01*
X140505Y451700D01*
X140441Y451786D01*
X140374Y451869D01*
X140304Y451950D01*
X140232Y452028D01*
X140156Y452104D01*
X140078Y452176D01*
X139997Y452246D01*
X139914Y452313D01*
X139828Y452377D01*
X139740Y452437D01*
X139650Y452495D01*
X139558Y452549D01*
X139463Y452599D01*
X139368Y452646D01*
X139270Y452690D01*
X139171Y452730D01*
X139070Y452766D01*
X138969Y452799D01*
X138866Y452828D01*
X138762Y452853D01*
X138657Y452874D01*
X138552Y452892D01*
X138446Y452905D01*
X138340Y452915D01*
X138233Y452921D01*
X138126Y452923D01*
X138005Y452921D01*
X137884Y452915D01*
X137763Y452905D01*
X137643Y452892D01*
X137523Y452874D01*
X137403Y452853D01*
X137285Y452828D01*
X137167Y452799D01*
X137051Y452766D01*
X136935Y452729D01*
X136821Y452689D01*
X136708Y452645D01*
X136596Y452598D01*
X136487Y452547D01*
X136378Y452492D01*
X136272Y452434D01*
X136168Y452372D01*
X136065Y452308D01*
X135965Y452239D01*
X135867Y452168D01*
X135771Y452094D01*
X135678Y452016D01*
X135587Y451936D01*
X135499Y451853D01*
X135414Y451767D01*
X135332Y451678D01*
X135252Y451586D01*
X135176Y451492D01*
X135102Y451396D01*
X135032Y451297D01*
X134965Y451197D01*
X134901Y451094D01*
X134840Y450989D01*
X134783Y450882D01*
X134729Y450773D01*
X134679Y450663D01*
X134633Y450551D01*
X134590Y450438D01*
X134551Y450323D01*
X140076Y447723D02*
X140155Y447800D01*
X140231Y447881D01*
X140304Y447964D01*
X140374Y448049D01*
X140441Y448137D01*
X140505Y448228D01*
X140566Y448320D01*
X140623Y448415D01*
X140677Y448511D01*
X140728Y448610D01*
X140775Y448710D01*
X140818Y448811D01*
X140858Y448914D01*
X140895Y449019D01*
X140927Y449125D01*
X140956Y449231D01*
X140981Y449339D01*
X141002Y449448D01*
X141020Y449557D01*
X141033Y449667D01*
X141043Y449777D01*
X141049Y449887D01*
X141051Y449998D01*
X140076Y447723D02*
X134551Y441222D01*
X141051Y441222D01*
D14*
X301600Y32700D02*
X301600Y7300D01*
X98400Y7300D01*
X98400Y32700D01*
X301600Y32700D01*
X301600Y7300D02*
X301600Y950D01*
X98400Y950D01*
X98400Y7300D01*
D15*
X212700Y20000D03*
X238100Y20000D03*
X263500Y20000D03*
X187300Y20000D03*
X161900Y20000D03*
X136500Y20000D03*
X111100Y20000D03*
X288900Y20000D03*
D13*
X93092Y143100D02*
X81592Y143100D01*
X81592Y162100D01*
X93092Y162100D01*
X93092Y143100D01*
D16*
X91092Y145100D03*
D11*
X283781Y268284D02*
X283781Y308284D01*
X312818Y308244D02*
X312818Y268244D01*
X288618Y268254D02*
X283781Y268284D01*
X288618Y268254D02*
X288618Y268198D01*
X308101Y268254D02*
X312818Y268244D01*
X308101Y268254D02*
X308101Y268258D01*
X308087Y308254D02*
X312818Y308244D01*
X308087Y308254D02*
X308087Y308272D01*
X288671Y308254D02*
X283781Y308284D01*
X288671Y308254D02*
X288671Y308230D01*
X293286Y288254D02*
X293288Y288397D01*
X293294Y288539D01*
X293304Y288681D01*
X293318Y288823D01*
X293336Y288964D01*
X293358Y289105D01*
X293384Y289245D01*
X293413Y289385D01*
X293447Y289523D01*
X293485Y289661D01*
X293526Y289797D01*
X293571Y289932D01*
X293620Y290066D01*
X293673Y290199D01*
X293729Y290330D01*
X293789Y290459D01*
X293853Y290587D01*
X293920Y290712D01*
X293991Y290836D01*
X294065Y290958D01*
X294142Y291077D01*
X294223Y291195D01*
X294307Y291310D01*
X294395Y291423D01*
X294485Y291533D01*
X294579Y291640D01*
X294675Y291745D01*
X294774Y291848D01*
X294877Y291947D01*
X294982Y292043D01*
X295089Y292137D01*
X295199Y292227D01*
X295312Y292315D01*
X295427Y292399D01*
X295545Y292480D01*
X295664Y292557D01*
X295786Y292631D01*
X295910Y292702D01*
X296035Y292769D01*
X296163Y292833D01*
X296292Y292893D01*
X296423Y292949D01*
X296556Y293002D01*
X296690Y293051D01*
X296825Y293096D01*
X296961Y293137D01*
X297099Y293175D01*
X297237Y293209D01*
X297377Y293238D01*
X297517Y293264D01*
X297658Y293286D01*
X297799Y293304D01*
X297941Y293318D01*
X298083Y293328D01*
X298225Y293334D01*
X298368Y293336D01*
X298511Y293334D01*
X298653Y293328D01*
X298795Y293318D01*
X298937Y293304D01*
X299078Y293286D01*
X299219Y293264D01*
X299359Y293238D01*
X299499Y293209D01*
X299637Y293175D01*
X299775Y293137D01*
X299911Y293096D01*
X300046Y293051D01*
X300180Y293002D01*
X300313Y292949D01*
X300444Y292893D01*
X300573Y292833D01*
X300701Y292769D01*
X300826Y292702D01*
X300950Y292631D01*
X301072Y292557D01*
X301191Y292480D01*
X301309Y292399D01*
X301424Y292315D01*
X301537Y292227D01*
X301647Y292137D01*
X301754Y292043D01*
X301859Y291947D01*
X301962Y291848D01*
X302061Y291745D01*
X302157Y291640D01*
X302251Y291533D01*
X302341Y291423D01*
X302429Y291310D01*
X302513Y291195D01*
X302594Y291077D01*
X302671Y290958D01*
X302745Y290836D01*
X302816Y290712D01*
X302883Y290587D01*
X302947Y290459D01*
X303007Y290330D01*
X303063Y290199D01*
X303116Y290066D01*
X303165Y289932D01*
X303210Y289797D01*
X303251Y289661D01*
X303289Y289523D01*
X303323Y289385D01*
X303352Y289245D01*
X303378Y289105D01*
X303400Y288964D01*
X303418Y288823D01*
X303432Y288681D01*
X303442Y288539D01*
X303448Y288397D01*
X303450Y288254D01*
X303448Y288111D01*
X303442Y287969D01*
X303432Y287827D01*
X303418Y287685D01*
X303400Y287544D01*
X303378Y287403D01*
X303352Y287263D01*
X303323Y287123D01*
X303289Y286985D01*
X303251Y286847D01*
X303210Y286711D01*
X303165Y286576D01*
X303116Y286442D01*
X303063Y286309D01*
X303007Y286178D01*
X302947Y286049D01*
X302883Y285921D01*
X302816Y285796D01*
X302745Y285672D01*
X302671Y285550D01*
X302594Y285431D01*
X302513Y285313D01*
X302429Y285198D01*
X302341Y285085D01*
X302251Y284975D01*
X302157Y284868D01*
X302061Y284763D01*
X301962Y284660D01*
X301859Y284561D01*
X301754Y284465D01*
X301647Y284371D01*
X301537Y284281D01*
X301424Y284193D01*
X301309Y284109D01*
X301191Y284028D01*
X301072Y283951D01*
X300950Y283877D01*
X300826Y283806D01*
X300701Y283739D01*
X300573Y283675D01*
X300444Y283615D01*
X300313Y283559D01*
X300180Y283506D01*
X300046Y283457D01*
X299911Y283412D01*
X299775Y283371D01*
X299637Y283333D01*
X299499Y283299D01*
X299359Y283270D01*
X299219Y283244D01*
X299078Y283222D01*
X298937Y283204D01*
X298795Y283190D01*
X298653Y283180D01*
X298511Y283174D01*
X298368Y283172D01*
X298225Y283174D01*
X298083Y283180D01*
X297941Y283190D01*
X297799Y283204D01*
X297658Y283222D01*
X297517Y283244D01*
X297377Y283270D01*
X297237Y283299D01*
X297099Y283333D01*
X296961Y283371D01*
X296825Y283412D01*
X296690Y283457D01*
X296556Y283506D01*
X296423Y283559D01*
X296292Y283615D01*
X296163Y283675D01*
X296035Y283739D01*
X295910Y283806D01*
X295786Y283877D01*
X295664Y283951D01*
X295545Y284028D01*
X295427Y284109D01*
X295312Y284193D01*
X295199Y284281D01*
X295089Y284371D01*
X294982Y284465D01*
X294877Y284561D01*
X294774Y284660D01*
X294675Y284763D01*
X294579Y284868D01*
X294485Y284975D01*
X294395Y285085D01*
X294307Y285198D01*
X294223Y285313D01*
X294142Y285431D01*
X294065Y285550D01*
X293991Y285672D01*
X293920Y285796D01*
X293853Y285921D01*
X293789Y286049D01*
X293729Y286178D01*
X293673Y286309D01*
X293620Y286442D01*
X293571Y286576D01*
X293526Y286711D01*
X293485Y286847D01*
X293447Y286985D01*
X293413Y287123D01*
X293384Y287263D01*
X293358Y287403D01*
X293336Y287544D01*
X293318Y287685D01*
X293304Y287827D01*
X293294Y287969D01*
X293288Y288111D01*
X293286Y288254D01*
D17*
X101600Y191750D03*
X88900Y191750D03*
X76200Y191750D03*
D14*
X336384Y190381D02*
X336384Y147201D01*
X316064Y190381D02*
X316066Y190481D01*
X316072Y190580D01*
X316082Y190680D01*
X316095Y190778D01*
X316113Y190877D01*
X316134Y190974D01*
X316159Y191070D01*
X316188Y191166D01*
X316221Y191260D01*
X316257Y191353D01*
X316297Y191444D01*
X316341Y191534D01*
X316388Y191622D01*
X316438Y191708D01*
X316492Y191792D01*
X316549Y191874D01*
X316609Y191953D01*
X316673Y192031D01*
X316739Y192105D01*
X316808Y192177D01*
X316880Y192246D01*
X316954Y192312D01*
X317032Y192376D01*
X317111Y192436D01*
X317193Y192493D01*
X317277Y192547D01*
X317363Y192597D01*
X317451Y192644D01*
X317541Y192688D01*
X317632Y192728D01*
X317725Y192764D01*
X317819Y192797D01*
X317915Y192826D01*
X318011Y192851D01*
X318108Y192872D01*
X318207Y192890D01*
X318305Y192903D01*
X318405Y192913D01*
X318504Y192919D01*
X318604Y192921D01*
X316064Y147201D02*
X316066Y147101D01*
X316072Y147002D01*
X316082Y146902D01*
X316095Y146804D01*
X316113Y146705D01*
X316134Y146608D01*
X316159Y146512D01*
X316188Y146416D01*
X316221Y146322D01*
X316257Y146229D01*
X316297Y146138D01*
X316341Y146048D01*
X316388Y145960D01*
X316438Y145874D01*
X316492Y145790D01*
X316549Y145708D01*
X316609Y145629D01*
X316673Y145551D01*
X316739Y145477D01*
X316808Y145405D01*
X316880Y145336D01*
X316954Y145270D01*
X317032Y145206D01*
X317111Y145146D01*
X317193Y145089D01*
X317277Y145035D01*
X317363Y144985D01*
X317451Y144938D01*
X317541Y144894D01*
X317632Y144854D01*
X317725Y144818D01*
X317819Y144785D01*
X317915Y144756D01*
X318011Y144731D01*
X318108Y144710D01*
X318207Y144692D01*
X318305Y144679D01*
X318405Y144669D01*
X318504Y144663D01*
X318604Y144661D01*
X333844Y144661D02*
X333944Y144663D01*
X334043Y144669D01*
X334143Y144679D01*
X334241Y144692D01*
X334340Y144710D01*
X334437Y144731D01*
X334533Y144756D01*
X334629Y144785D01*
X334723Y144818D01*
X334816Y144854D01*
X334907Y144894D01*
X334997Y144938D01*
X335085Y144985D01*
X335171Y145035D01*
X335255Y145089D01*
X335337Y145146D01*
X335416Y145206D01*
X335494Y145270D01*
X335568Y145336D01*
X335640Y145405D01*
X335709Y145477D01*
X335775Y145551D01*
X335839Y145629D01*
X335899Y145708D01*
X335956Y145790D01*
X336010Y145874D01*
X336060Y145960D01*
X336107Y146048D01*
X336151Y146138D01*
X336191Y146229D01*
X336227Y146322D01*
X336260Y146416D01*
X336289Y146512D01*
X336314Y146608D01*
X336335Y146705D01*
X336353Y146804D01*
X336366Y146902D01*
X336376Y147002D01*
X336382Y147101D01*
X336384Y147201D01*
X336384Y190381D02*
X336382Y190481D01*
X336376Y190580D01*
X336366Y190680D01*
X336353Y190778D01*
X336335Y190877D01*
X336314Y190974D01*
X336289Y191070D01*
X336260Y191166D01*
X336227Y191260D01*
X336191Y191353D01*
X336151Y191444D01*
X336107Y191534D01*
X336060Y191622D01*
X336010Y191708D01*
X335956Y191792D01*
X335899Y191874D01*
X335839Y191953D01*
X335775Y192031D01*
X335709Y192105D01*
X335640Y192177D01*
X335568Y192246D01*
X335494Y192312D01*
X335416Y192376D01*
X335337Y192436D01*
X335255Y192493D01*
X335171Y192547D01*
X335085Y192597D01*
X334997Y192644D01*
X334907Y192688D01*
X334816Y192728D01*
X334723Y192764D01*
X334629Y192797D01*
X334533Y192826D01*
X334437Y192851D01*
X334340Y192872D01*
X334241Y192890D01*
X334143Y192903D01*
X334043Y192913D01*
X333944Y192919D01*
X333844Y192921D01*
X318604Y192921D01*
X318604Y144661D02*
X333844Y144661D01*
X316064Y147201D02*
X316064Y190381D01*
M02*
