G04 EAGLE Gerber RS-274X export*
G75*
%MOMM*%
%FSLAX34Y34*%
%LPD*%
%INTop Copper*%
%IPPOS*%
%AMOC8*
5,1,8,0,0,1.08239X$1,22.5*%
G01*
%ADD10C,0.150000*%
%ADD11C,1.308000*%
%ADD12R,1.308000X1.308000*%
%ADD13C,1.208000*%
%ADD14R,1.208000X1.208000*%
%ADD15C,1.524000*%
%ADD16C,1.524000*%
%ADD17R,0.500000X0.300000*%
%ADD18R,0.600000X0.700000*%
%ADD19R,0.900000X0.700000*%
%ADD20R,1.800000X1.350000*%
%ADD21R,0.800000X0.800000*%
%ADD22R,0.700000X0.600000*%
%ADD23R,0.700000X0.900000*%
%ADD24R,1.600200X1.168400*%
%ADD25R,1.000000X1.400000*%
%ADD26C,0.508000*%
%ADD27C,0.609600*%
%ADD28C,0.406400*%
%ADD29C,0.606400*%
%ADD30C,1.016000*%
%ADD31C,0.756400*%

G36*
X132415Y63462D02*
X132415Y63462D01*
X132579Y63469D01*
X132639Y63482D01*
X132700Y63487D01*
X132858Y63531D01*
X133019Y63566D01*
X133075Y63590D01*
X133134Y63606D01*
X133282Y63676D01*
X133434Y63740D01*
X133486Y63773D01*
X133541Y63799D01*
X133674Y63895D01*
X133812Y63984D01*
X133870Y64035D01*
X133907Y64061D01*
X133949Y64105D01*
X134047Y64191D01*
X137257Y67401D01*
X137362Y67528D01*
X137474Y67649D01*
X137507Y67700D01*
X137546Y67747D01*
X137627Y67890D01*
X137716Y68028D01*
X137739Y68085D01*
X137769Y68138D01*
X137824Y68293D01*
X137887Y68445D01*
X137899Y68505D01*
X137920Y68562D01*
X137947Y68724D01*
X137981Y68885D01*
X137986Y68962D01*
X137993Y69006D01*
X137993Y69067D01*
X138001Y69197D01*
X138001Y224572D01*
X139006Y227000D01*
X148376Y236370D01*
X150810Y237378D01*
X150817Y237379D01*
X150852Y237377D01*
X151041Y237399D01*
X151231Y237415D01*
X151264Y237425D01*
X151299Y237429D01*
X151482Y237484D01*
X151665Y237534D01*
X151697Y237549D01*
X151730Y237559D01*
X151900Y237646D01*
X152072Y237727D01*
X152100Y237748D01*
X152131Y237763D01*
X152283Y237878D01*
X152438Y237990D01*
X152462Y238014D01*
X152490Y238035D01*
X152619Y238175D01*
X152752Y238312D01*
X152772Y238341D01*
X152795Y238366D01*
X152898Y238527D01*
X153004Y238685D01*
X153018Y238717D01*
X153037Y238746D01*
X153109Y238923D01*
X153187Y239097D01*
X153195Y239131D01*
X153208Y239163D01*
X153248Y239349D01*
X153293Y239534D01*
X153295Y239569D01*
X153303Y239603D01*
X153322Y239915D01*
X153322Y241231D01*
X160362Y241231D01*
X160363Y241231D01*
X169051Y241231D01*
X169125Y241199D01*
X169251Y241168D01*
X169375Y241128D01*
X169470Y241115D01*
X169562Y241092D01*
X169692Y241084D01*
X169821Y241067D01*
X169916Y241070D01*
X170012Y241065D01*
X170141Y241080D01*
X170271Y241085D01*
X170364Y241106D01*
X170459Y241117D01*
X170583Y241154D01*
X170710Y241182D01*
X170798Y241219D01*
X170890Y241247D01*
X171006Y241306D01*
X171126Y241356D01*
X171206Y241408D01*
X171291Y241451D01*
X171395Y241530D01*
X171504Y241600D01*
X171601Y241687D01*
X171650Y241723D01*
X171680Y241756D01*
X171738Y241807D01*
X171998Y242067D01*
X178382Y242067D01*
X179744Y240705D01*
X179771Y240682D01*
X179794Y240656D01*
X179943Y240538D01*
X180090Y240416D01*
X180120Y240398D01*
X180147Y240377D01*
X180315Y240287D01*
X180481Y240192D01*
X180513Y240181D01*
X180544Y240164D01*
X180725Y240106D01*
X180905Y240042D01*
X180939Y240036D01*
X180972Y240025D01*
X181160Y239999D01*
X181349Y239968D01*
X181384Y239968D01*
X181418Y239964D01*
X181608Y239972D01*
X181799Y239974D01*
X181833Y239981D01*
X181868Y239982D01*
X182054Y240023D01*
X182241Y240060D01*
X182274Y240072D01*
X182307Y240080D01*
X182483Y240153D01*
X182661Y240222D01*
X182691Y240240D01*
X182723Y240253D01*
X182883Y240357D01*
X183046Y240456D01*
X183072Y240479D01*
X183101Y240498D01*
X183335Y240705D01*
X184698Y242067D01*
X191082Y242067D01*
X192190Y240959D01*
X192290Y240875D01*
X192383Y240784D01*
X192462Y240731D01*
X192536Y240670D01*
X192648Y240605D01*
X192756Y240532D01*
X192844Y240494D01*
X192927Y240446D01*
X193049Y240403D01*
X193168Y240350D01*
X193261Y240328D01*
X193351Y240295D01*
X193479Y240274D01*
X193605Y240243D01*
X193701Y240238D01*
X193795Y240222D01*
X193925Y240224D01*
X194055Y240216D01*
X194150Y240227D01*
X194245Y240228D01*
X194373Y240253D01*
X194502Y240268D01*
X194594Y240296D01*
X194687Y240314D01*
X194808Y240360D01*
X194933Y240398D01*
X195018Y240442D01*
X195107Y240476D01*
X195218Y240543D01*
X195334Y240603D01*
X195410Y240660D01*
X195492Y240710D01*
X195590Y240796D01*
X195693Y240875D01*
X195758Y240945D01*
X195829Y241008D01*
X195910Y241110D01*
X195998Y241206D01*
X196050Y241286D01*
X196109Y241361D01*
X196170Y241476D01*
X196240Y241585D01*
X196276Y241674D01*
X196322Y241758D01*
X196362Y241882D01*
X196411Y242002D01*
X196431Y242095D01*
X196461Y242186D01*
X196478Y242315D01*
X196506Y242442D01*
X196514Y242572D01*
X196522Y242632D01*
X196520Y242677D01*
X196525Y242754D01*
X196525Y314632D01*
X196510Y314796D01*
X196504Y314960D01*
X196491Y315020D01*
X196485Y315081D01*
X196442Y315239D01*
X196406Y315400D01*
X196383Y315456D01*
X196367Y315515D01*
X196296Y315663D01*
X196233Y315815D01*
X196199Y315867D01*
X196173Y315922D01*
X196078Y316055D01*
X195988Y316193D01*
X195937Y316251D01*
X195911Y316288D01*
X195867Y316330D01*
X195781Y316428D01*
X173843Y338366D01*
X173224Y339860D01*
X173224Y359973D01*
X173208Y360150D01*
X173199Y360328D01*
X173189Y360374D01*
X173184Y360422D01*
X173137Y360593D01*
X173097Y360766D01*
X173078Y360810D01*
X173066Y360856D01*
X172990Y361016D01*
X172919Y361180D01*
X172893Y361220D01*
X172872Y361263D01*
X172769Y361407D01*
X172671Y361555D01*
X172638Y361590D01*
X172610Y361629D01*
X172483Y361753D01*
X172360Y361881D01*
X172322Y361910D01*
X172288Y361943D01*
X172141Y362042D01*
X171997Y362147D01*
X171954Y362168D01*
X171914Y362195D01*
X171752Y362267D01*
X171592Y362345D01*
X171547Y362358D01*
X171503Y362377D01*
X171330Y362419D01*
X171159Y362468D01*
X171112Y362473D01*
X171065Y362484D01*
X170888Y362495D01*
X170711Y362512D01*
X170664Y362509D01*
X170616Y362512D01*
X170439Y362491D01*
X170262Y362477D01*
X170216Y362465D01*
X170169Y362459D01*
X169998Y362408D01*
X169827Y362363D01*
X169784Y362343D01*
X169738Y362329D01*
X169579Y362248D01*
X169418Y362174D01*
X169379Y362146D01*
X169336Y362125D01*
X169195Y362018D01*
X169049Y361916D01*
X169016Y361882D01*
X168978Y361853D01*
X168857Y361722D01*
X168732Y361596D01*
X168705Y361557D01*
X168672Y361522D01*
X168577Y361372D01*
X168476Y361226D01*
X168450Y361172D01*
X168431Y361142D01*
X168407Y361084D01*
X168339Y360945D01*
X168046Y360237D01*
X161732Y353924D01*
X160238Y353305D01*
X135793Y353305D01*
X135630Y353290D01*
X135465Y353283D01*
X135406Y353270D01*
X135345Y353265D01*
X135186Y353221D01*
X135025Y353186D01*
X134969Y353162D01*
X134910Y353146D01*
X134762Y353076D01*
X134610Y353012D01*
X134559Y352979D01*
X134504Y352953D01*
X134370Y352857D01*
X134232Y352768D01*
X134174Y352717D01*
X134138Y352691D01*
X134095Y352647D01*
X133998Y352561D01*
X129437Y348000D01*
X129331Y347874D01*
X129220Y347753D01*
X129187Y347702D01*
X129148Y347655D01*
X129066Y347512D01*
X128978Y347373D01*
X128955Y347317D01*
X128925Y347264D01*
X128870Y347109D01*
X128807Y346957D01*
X128794Y346897D01*
X128774Y346840D01*
X128747Y346677D01*
X128712Y346517D01*
X128708Y346440D01*
X128700Y346395D01*
X128701Y346334D01*
X128693Y346205D01*
X128693Y154538D01*
X128074Y153044D01*
X117684Y142654D01*
X116190Y142035D01*
X96059Y142035D01*
X96025Y142032D01*
X95990Y142034D01*
X95801Y142012D01*
X95611Y141995D01*
X95577Y141986D01*
X95543Y141982D01*
X95360Y141926D01*
X95176Y141876D01*
X95145Y141862D01*
X95112Y141851D01*
X94941Y141765D01*
X94770Y141683D01*
X94742Y141663D01*
X94711Y141647D01*
X94559Y141532D01*
X94404Y141421D01*
X94379Y141396D01*
X94352Y141375D01*
X94223Y141235D01*
X94090Y141098D01*
X94070Y141069D01*
X94047Y141044D01*
X93944Y140883D01*
X93837Y140725D01*
X93823Y140693D01*
X93805Y140664D01*
X93732Y140488D01*
X93655Y140313D01*
X93647Y140280D01*
X93634Y140248D01*
X93594Y140061D01*
X93549Y139876D01*
X93546Y139841D01*
X93539Y139807D01*
X93520Y139496D01*
X93520Y127621D01*
X93523Y127586D01*
X93521Y127552D01*
X93543Y127362D01*
X93560Y127172D01*
X93569Y127139D01*
X93573Y127105D01*
X93628Y126922D01*
X93678Y126738D01*
X93693Y126707D01*
X93703Y126674D01*
X93790Y126503D01*
X93872Y126331D01*
X93892Y126303D01*
X93908Y126272D01*
X93966Y126195D01*
X93966Y119041D01*
X93966Y113000D01*
X93171Y113000D01*
X92525Y113173D01*
X91907Y113530D01*
X91886Y113540D01*
X91867Y113553D01*
X91682Y113635D01*
X91499Y113720D01*
X91476Y113726D01*
X91455Y113735D01*
X91258Y113783D01*
X91063Y113834D01*
X91040Y113836D01*
X91018Y113842D01*
X90816Y113854D01*
X90614Y113870D01*
X90591Y113868D01*
X90568Y113869D01*
X90367Y113846D01*
X90166Y113826D01*
X90144Y113820D01*
X90121Y113817D01*
X89927Y113759D01*
X89733Y113704D01*
X89712Y113694D01*
X89690Y113687D01*
X89510Y113595D01*
X89328Y113507D01*
X89309Y113493D01*
X89289Y113483D01*
X89128Y113361D01*
X88964Y113241D01*
X88948Y113225D01*
X88930Y113211D01*
X88793Y113062D01*
X88653Y112916D01*
X88641Y112897D01*
X88625Y112880D01*
X88516Y112709D01*
X88405Y112540D01*
X88395Y112519D01*
X88383Y112500D01*
X88306Y112313D01*
X88226Y112127D01*
X88221Y112105D01*
X88212Y112083D01*
X88169Y111884D01*
X88123Y111689D01*
X88122Y111666D01*
X88117Y111643D01*
X88098Y111331D01*
X88098Y110735D01*
X82058Y110735D01*
X82023Y110732D01*
X81989Y110734D01*
X81799Y110712D01*
X81609Y110695D01*
X81576Y110686D01*
X81541Y110682D01*
X81358Y110626D01*
X81175Y110576D01*
X81144Y110562D01*
X81110Y110552D01*
X80940Y110465D01*
X80768Y110383D01*
X80740Y110363D01*
X80709Y110347D01*
X80557Y110232D01*
X80402Y110121D01*
X80402Y110120D01*
X80378Y110096D01*
X80350Y110075D01*
X80220Y109934D01*
X80088Y109798D01*
X80068Y109769D01*
X80045Y109744D01*
X79942Y109583D01*
X79835Y109425D01*
X79821Y109393D01*
X79803Y109364D01*
X79730Y109187D01*
X79653Y109013D01*
X79645Y108979D01*
X79632Y108947D01*
X79592Y108761D01*
X79547Y108575D01*
X79544Y108541D01*
X79537Y108507D01*
X79518Y108195D01*
X79518Y101155D01*
X78223Y101155D01*
X77577Y101328D01*
X76997Y101662D01*
X76634Y102025D01*
X76608Y102047D01*
X76585Y102073D01*
X76436Y102192D01*
X76289Y102314D01*
X76259Y102331D01*
X76232Y102353D01*
X76064Y102443D01*
X75898Y102537D01*
X75866Y102549D01*
X75835Y102565D01*
X75653Y102624D01*
X75474Y102688D01*
X75440Y102694D01*
X75407Y102705D01*
X75218Y102731D01*
X75030Y102762D01*
X74995Y102761D01*
X74961Y102766D01*
X74771Y102758D01*
X74579Y102756D01*
X74545Y102749D01*
X74511Y102748D01*
X74325Y102706D01*
X74137Y102670D01*
X74105Y102658D01*
X74071Y102650D01*
X73895Y102576D01*
X73717Y102508D01*
X73688Y102490D01*
X73656Y102476D01*
X73495Y102373D01*
X73333Y102274D01*
X73307Y102251D01*
X73277Y102232D01*
X73208Y102171D01*
X64926Y102171D01*
X64033Y103064D01*
X64033Y106420D01*
X64018Y106584D01*
X64011Y106748D01*
X63998Y106808D01*
X63993Y106868D01*
X63949Y107027D01*
X63914Y107188D01*
X63890Y107244D01*
X63874Y107303D01*
X63804Y107451D01*
X63740Y107603D01*
X63707Y107655D01*
X63681Y107709D01*
X63585Y107843D01*
X63496Y107981D01*
X63445Y108039D01*
X63419Y108076D01*
X63375Y108118D01*
X63289Y108216D01*
X62446Y109058D01*
X61827Y110552D01*
X61827Y112396D01*
X61824Y112431D01*
X61826Y112465D01*
X61804Y112654D01*
X61787Y112845D01*
X61778Y112878D01*
X61774Y112912D01*
X61719Y113095D01*
X61669Y113279D01*
X61654Y113310D01*
X61644Y113343D01*
X61557Y113513D01*
X61476Y113686D01*
X61455Y113714D01*
X61440Y113745D01*
X61324Y113897D01*
X61213Y114052D01*
X61189Y114076D01*
X61168Y114103D01*
X61028Y114232D01*
X60891Y114366D01*
X60862Y114385D01*
X60837Y114409D01*
X60676Y114511D01*
X60518Y114618D01*
X60486Y114632D01*
X60457Y114650D01*
X60280Y114723D01*
X60106Y114800D01*
X60072Y114808D01*
X60040Y114821D01*
X59854Y114861D01*
X59668Y114907D01*
X59634Y114909D01*
X59600Y114916D01*
X59288Y114935D01*
X35685Y114935D01*
X35521Y114921D01*
X35357Y114914D01*
X35297Y114901D01*
X35237Y114895D01*
X35078Y114852D01*
X34917Y114816D01*
X34861Y114793D01*
X34802Y114777D01*
X34654Y114706D01*
X34502Y114643D01*
X34451Y114610D01*
X34396Y114583D01*
X34262Y114488D01*
X34124Y114398D01*
X34066Y114347D01*
X34030Y114321D01*
X33987Y114278D01*
X33890Y114192D01*
X32285Y112587D01*
X29540Y111450D01*
X29382Y111367D01*
X29222Y111291D01*
X29184Y111264D01*
X29141Y111241D01*
X29001Y111133D01*
X28856Y111029D01*
X28823Y110995D01*
X28785Y110966D01*
X28666Y110834D01*
X28542Y110707D01*
X28515Y110667D01*
X28483Y110631D01*
X28390Y110481D01*
X28290Y110334D01*
X28271Y110290D01*
X28245Y110249D01*
X28180Y110084D01*
X28108Y109922D01*
X28097Y109875D01*
X28079Y109831D01*
X28043Y109657D01*
X28001Y109484D01*
X27998Y109437D01*
X27989Y109390D01*
X27984Y109212D01*
X27974Y109035D01*
X27979Y108987D01*
X27978Y108940D01*
X28005Y108764D01*
X28026Y108588D01*
X28039Y108542D01*
X28047Y108495D01*
X28104Y108327D01*
X28156Y108157D01*
X28178Y108114D01*
X28193Y108069D01*
X28280Y107914D01*
X28360Y107755D01*
X28389Y107717D01*
X28412Y107676D01*
X28525Y107538D01*
X28632Y107397D01*
X28667Y107364D01*
X28698Y107327D01*
X28833Y107212D01*
X28963Y107091D01*
X29004Y107066D01*
X29040Y107035D01*
X29193Y106945D01*
X29343Y106850D01*
X29387Y106831D01*
X29429Y106807D01*
X29595Y106746D01*
X29760Y106679D01*
X29807Y106669D01*
X29851Y106652D01*
X30026Y106621D01*
X30200Y106584D01*
X30259Y106580D01*
X30295Y106574D01*
X30358Y106574D01*
X30512Y106565D01*
X34672Y106565D01*
X35565Y105672D01*
X35565Y92328D01*
X35348Y92112D01*
X35243Y91986D01*
X35131Y91865D01*
X35099Y91814D01*
X35060Y91767D01*
X34978Y91624D01*
X34890Y91485D01*
X34866Y91429D01*
X34836Y91376D01*
X34781Y91221D01*
X34719Y91069D01*
X34706Y91009D01*
X34685Y90952D01*
X34659Y90790D01*
X34624Y90629D01*
X34619Y90551D01*
X34612Y90507D01*
X34613Y90447D01*
X34605Y90317D01*
X34605Y85041D01*
X34619Y84878D01*
X34626Y84713D01*
X34639Y84654D01*
X34645Y84593D01*
X34688Y84434D01*
X34724Y84274D01*
X34747Y84217D01*
X34763Y84158D01*
X34834Y84010D01*
X34897Y83858D01*
X34930Y83807D01*
X34957Y83752D01*
X35052Y83618D01*
X35142Y83480D01*
X35193Y83422D01*
X35219Y83386D01*
X35262Y83343D01*
X35348Y83246D01*
X54403Y64191D01*
X54529Y64086D01*
X54650Y63974D01*
X54701Y63942D01*
X54748Y63902D01*
X54891Y63821D01*
X55030Y63732D01*
X55086Y63709D01*
X55139Y63679D01*
X55294Y63624D01*
X55446Y63561D01*
X55506Y63549D01*
X55564Y63528D01*
X55726Y63501D01*
X55887Y63467D01*
X55963Y63462D01*
X56008Y63455D01*
X56069Y63456D01*
X56198Y63448D01*
X132251Y63448D01*
X132415Y63462D01*
G37*
G36*
X340586Y10925D02*
X340586Y10925D01*
X340609Y10923D01*
X340810Y10945D01*
X341012Y10963D01*
X341034Y10969D01*
X341057Y10971D01*
X341250Y11028D01*
X341446Y11081D01*
X341467Y11091D01*
X341489Y11098D01*
X341671Y11188D01*
X341853Y11275D01*
X341871Y11288D01*
X341892Y11298D01*
X342055Y11419D01*
X342219Y11537D01*
X342235Y11553D01*
X342253Y11567D01*
X342392Y11715D01*
X342533Y11859D01*
X342546Y11879D01*
X342561Y11895D01*
X342672Y12065D01*
X342785Y12232D01*
X342794Y12254D01*
X342807Y12273D01*
X342885Y12459D01*
X342967Y12644D01*
X342972Y12667D01*
X342981Y12688D01*
X343026Y12886D01*
X343074Y13082D01*
X343075Y13105D01*
X343080Y13127D01*
X343089Y13329D01*
X343101Y13531D01*
X343099Y13554D01*
X343100Y13577D01*
X343073Y13777D01*
X343049Y13978D01*
X343043Y14000D01*
X343039Y14023D01*
X342978Y14215D01*
X342919Y14409D01*
X342908Y14430D01*
X342901Y14452D01*
X342762Y14732D01*
X339554Y20288D01*
X337839Y26687D01*
X337839Y33313D01*
X339554Y39712D01*
X342866Y45449D01*
X347551Y50134D01*
X353288Y53446D01*
X359687Y55161D01*
X366313Y55161D01*
X372712Y53446D01*
X375268Y51970D01*
X375289Y51960D01*
X375308Y51947D01*
X375493Y51865D01*
X375677Y51780D01*
X375699Y51774D01*
X375720Y51765D01*
X375917Y51717D01*
X376112Y51666D01*
X376135Y51664D01*
X376158Y51658D01*
X376359Y51646D01*
X376561Y51630D01*
X376584Y51632D01*
X376607Y51631D01*
X376808Y51654D01*
X377009Y51674D01*
X377031Y51680D01*
X377054Y51683D01*
X377249Y51741D01*
X377442Y51796D01*
X377463Y51806D01*
X377485Y51813D01*
X377665Y51905D01*
X377847Y51993D01*
X377866Y52007D01*
X377887Y52017D01*
X378047Y52139D01*
X378211Y52259D01*
X378227Y52275D01*
X378245Y52289D01*
X378383Y52438D01*
X378522Y52584D01*
X378535Y52603D01*
X378551Y52621D01*
X378659Y52791D01*
X378771Y52960D01*
X378780Y52981D01*
X378792Y53000D01*
X378869Y53187D01*
X378949Y53373D01*
X378955Y53396D01*
X378963Y53417D01*
X379006Y53615D01*
X379052Y53811D01*
X379053Y53834D01*
X379058Y53857D01*
X379077Y54169D01*
X379077Y82042D01*
X379075Y82068D01*
X379076Y82091D01*
X379066Y82183D01*
X379064Y82301D01*
X379046Y82395D01*
X379037Y82490D01*
X379003Y82616D01*
X378978Y82743D01*
X378944Y82833D01*
X378919Y82925D01*
X378863Y83042D01*
X378816Y83163D01*
X378766Y83245D01*
X378725Y83331D01*
X378650Y83437D01*
X378582Y83548D01*
X378519Y83620D01*
X378463Y83697D01*
X378370Y83788D01*
X378284Y83885D01*
X378209Y83945D01*
X378141Y84011D01*
X378033Y84084D01*
X377931Y84165D01*
X377847Y84210D01*
X377768Y84263D01*
X377649Y84316D01*
X377534Y84377D01*
X377443Y84407D01*
X377356Y84446D01*
X377229Y84477D01*
X377106Y84517D01*
X377011Y84530D01*
X376918Y84552D01*
X376789Y84560D01*
X376660Y84578D01*
X376564Y84574D01*
X376469Y84580D01*
X376340Y84565D01*
X376210Y84560D01*
X376117Y84539D01*
X376022Y84528D01*
X375897Y84490D01*
X375770Y84462D01*
X375682Y84425D01*
X375591Y84398D01*
X375475Y84339D01*
X375355Y84288D01*
X375275Y84237D01*
X375189Y84193D01*
X375086Y84115D01*
X374977Y84044D01*
X374885Y83963D01*
X374862Y83947D01*
X374856Y83941D01*
X374831Y83921D01*
X374800Y83888D01*
X374742Y83837D01*
X373068Y82163D01*
X370104Y80935D01*
X366896Y80935D01*
X363932Y82163D01*
X361663Y84432D01*
X360435Y87396D01*
X360435Y90604D01*
X361663Y93568D01*
X363932Y95837D01*
X365904Y96654D01*
X366019Y96714D01*
X366139Y96766D01*
X366219Y96818D01*
X366303Y96863D01*
X366406Y96942D01*
X366515Y97014D01*
X366584Y97080D01*
X366659Y97138D01*
X366746Y97235D01*
X366841Y97324D01*
X366897Y97402D01*
X366961Y97472D01*
X367030Y97583D01*
X367107Y97688D01*
X367148Y97774D01*
X367199Y97855D01*
X367247Y97976D01*
X367304Y98092D01*
X367330Y98184D01*
X367366Y98273D01*
X367392Y98400D01*
X367427Y98526D01*
X367437Y98621D01*
X367456Y98714D01*
X367459Y98844D01*
X367472Y98974D01*
X367464Y99069D01*
X367467Y99164D01*
X367447Y99293D01*
X367436Y99423D01*
X367412Y99515D01*
X367398Y99609D01*
X367355Y99733D01*
X367322Y99858D01*
X367282Y99945D01*
X367251Y100035D01*
X367188Y100149D01*
X367133Y100267D01*
X367078Y100345D01*
X367032Y100428D01*
X366950Y100529D01*
X366875Y100636D01*
X366807Y100703D01*
X366747Y100777D01*
X366648Y100861D01*
X366556Y100953D01*
X366477Y101007D01*
X366404Y101069D01*
X366292Y101135D01*
X366185Y101209D01*
X366068Y101266D01*
X366016Y101297D01*
X365974Y101312D01*
X365904Y101346D01*
X363932Y102163D01*
X361663Y104432D01*
X360435Y107396D01*
X360435Y110604D01*
X361663Y113568D01*
X363932Y115837D01*
X365904Y116654D01*
X366019Y116714D01*
X366139Y116766D01*
X366219Y116818D01*
X366303Y116863D01*
X366406Y116942D01*
X366515Y117014D01*
X366584Y117080D01*
X366659Y117138D01*
X366746Y117235D01*
X366841Y117324D01*
X366897Y117402D01*
X366961Y117472D01*
X367030Y117583D01*
X367107Y117688D01*
X367148Y117774D01*
X367199Y117855D01*
X367247Y117976D01*
X367304Y118092D01*
X367330Y118184D01*
X367366Y118273D01*
X367392Y118400D01*
X367427Y118526D01*
X367437Y118621D01*
X367456Y118714D01*
X367459Y118844D01*
X367472Y118974D01*
X367464Y119069D01*
X367467Y119164D01*
X367447Y119293D01*
X367436Y119423D01*
X367412Y119515D01*
X367398Y119609D01*
X367355Y119733D01*
X367322Y119858D01*
X367282Y119945D01*
X367251Y120035D01*
X367188Y120149D01*
X367133Y120267D01*
X367078Y120345D01*
X367032Y120428D01*
X366950Y120529D01*
X366875Y120636D01*
X366807Y120703D01*
X366747Y120777D01*
X366648Y120861D01*
X366556Y120953D01*
X366477Y121007D01*
X366404Y121069D01*
X366292Y121135D01*
X366185Y121209D01*
X366068Y121266D01*
X366016Y121297D01*
X365974Y121312D01*
X365904Y121346D01*
X363932Y122163D01*
X361903Y124192D01*
X361777Y124297D01*
X361656Y124409D01*
X361605Y124441D01*
X361558Y124480D01*
X361415Y124562D01*
X361276Y124650D01*
X361220Y124674D01*
X361167Y124704D01*
X361012Y124759D01*
X360860Y124821D01*
X360800Y124834D01*
X360743Y124855D01*
X360580Y124881D01*
X360420Y124916D01*
X360343Y124921D01*
X360298Y124928D01*
X360237Y124927D01*
X360108Y124935D01*
X315983Y124935D01*
X315819Y124921D01*
X315655Y124914D01*
X315595Y124901D01*
X315534Y124895D01*
X315375Y124852D01*
X315215Y124816D01*
X315159Y124793D01*
X315100Y124777D01*
X314952Y124706D01*
X314800Y124643D01*
X314748Y124610D01*
X314693Y124583D01*
X314560Y124488D01*
X314421Y124398D01*
X314364Y124347D01*
X314327Y124321D01*
X314285Y124278D01*
X314187Y124192D01*
X294976Y104981D01*
X294871Y104854D01*
X294759Y104734D01*
X294727Y104682D01*
X294688Y104635D01*
X294606Y104493D01*
X294518Y104354D01*
X294494Y104297D01*
X294464Y104244D01*
X294409Y104089D01*
X294347Y103937D01*
X294334Y103878D01*
X294313Y103820D01*
X294313Y103816D01*
X293425Y101673D01*
X291932Y100180D01*
X289982Y99372D01*
X287704Y99372D01*
X287670Y99369D01*
X287635Y99371D01*
X287446Y99349D01*
X287256Y99332D01*
X287222Y99323D01*
X287188Y99319D01*
X287005Y99264D01*
X286821Y99213D01*
X286790Y99199D01*
X286757Y99189D01*
X286586Y99102D01*
X286415Y99020D01*
X286387Y99000D01*
X286356Y98984D01*
X286204Y98869D01*
X286049Y98758D01*
X286024Y98733D01*
X285997Y98712D01*
X285868Y98572D01*
X285734Y98435D01*
X285715Y98407D01*
X285692Y98381D01*
X285589Y98220D01*
X285482Y98062D01*
X285468Y98031D01*
X285450Y98001D01*
X285377Y97825D01*
X285300Y97650D01*
X285292Y97617D01*
X285279Y97585D01*
X285239Y97398D01*
X285194Y97213D01*
X285191Y97178D01*
X285184Y97145D01*
X285165Y96833D01*
X285165Y67809D01*
X285179Y67645D01*
X285186Y67480D01*
X285199Y67421D01*
X285205Y67360D01*
X285248Y67201D01*
X285284Y67041D01*
X285307Y66985D01*
X285323Y66926D01*
X285394Y66778D01*
X285457Y66625D01*
X285491Y66574D01*
X285517Y66519D01*
X285612Y66386D01*
X285702Y66247D01*
X285753Y66189D01*
X285779Y66153D01*
X285822Y66110D01*
X285909Y66013D01*
X286271Y65650D01*
X286283Y65606D01*
X286298Y65575D01*
X286308Y65542D01*
X286395Y65371D01*
X286477Y65199D01*
X286497Y65171D01*
X286513Y65140D01*
X286628Y64988D01*
X286739Y64833D01*
X286764Y64809D01*
X286785Y64782D01*
X286925Y64652D01*
X287061Y64519D01*
X287090Y64500D01*
X287116Y64476D01*
X287277Y64374D01*
X287435Y64267D01*
X287466Y64253D01*
X287495Y64235D01*
X287672Y64162D01*
X287846Y64085D01*
X287880Y64077D01*
X287912Y64064D01*
X288099Y64023D01*
X288284Y63978D01*
X288318Y63976D01*
X288352Y63969D01*
X288664Y63950D01*
X297729Y63950D01*
X298622Y63056D01*
X298622Y54766D01*
X298602Y54740D01*
X298479Y54594D01*
X298462Y54563D01*
X298440Y54536D01*
X298350Y54368D01*
X298256Y54203D01*
X298244Y54170D01*
X298228Y54139D01*
X298169Y53958D01*
X298105Y53778D01*
X298099Y53744D01*
X298088Y53711D01*
X298062Y53522D01*
X298031Y53334D01*
X298032Y53300D01*
X298027Y53265D01*
X298035Y53074D01*
X298037Y52884D01*
X298044Y52850D01*
X298045Y52815D01*
X298087Y52629D01*
X298123Y52442D01*
X298135Y52409D01*
X298143Y52376D01*
X298216Y52200D01*
X298285Y52022D01*
X298303Y51992D01*
X298317Y51960D01*
X298420Y51800D01*
X298519Y51637D01*
X298542Y51611D01*
X298561Y51582D01*
X298768Y51348D01*
X299131Y50985D01*
X299465Y50406D01*
X299638Y49759D01*
X299638Y48464D01*
X292598Y48464D01*
X292563Y48461D01*
X292529Y48463D01*
X292339Y48441D01*
X292149Y48424D01*
X292116Y48415D01*
X292082Y48411D01*
X291899Y48356D01*
X291715Y48306D01*
X291684Y48291D01*
X291651Y48281D01*
X291480Y48194D01*
X291308Y48112D01*
X291280Y48092D01*
X291249Y48077D01*
X291097Y47961D01*
X290942Y47850D01*
X290918Y47825D01*
X290891Y47805D01*
X290761Y47665D01*
X290628Y47528D01*
X290609Y47499D01*
X290585Y47473D01*
X290483Y47312D01*
X290376Y47155D01*
X290362Y47123D01*
X290344Y47094D01*
X290271Y46917D01*
X290194Y46743D01*
X290186Y46709D01*
X290173Y46677D01*
X290132Y46491D01*
X290087Y46305D01*
X290085Y46271D01*
X290078Y46237D01*
X290059Y45925D01*
X290062Y45890D01*
X290060Y45856D01*
X290082Y45666D01*
X290099Y45476D01*
X290108Y45443D01*
X290112Y45408D01*
X290167Y45225D01*
X290217Y45042D01*
X290232Y45011D01*
X290242Y44977D01*
X290329Y44807D01*
X290410Y44635D01*
X290431Y44607D01*
X290446Y44576D01*
X290562Y44424D01*
X290673Y44269D01*
X290697Y44245D01*
X290718Y44217D01*
X290858Y44088D01*
X290995Y43955D01*
X291024Y43936D01*
X291049Y43912D01*
X291210Y43810D01*
X291368Y43703D01*
X291400Y43689D01*
X291429Y43670D01*
X291606Y43598D01*
X291780Y43521D01*
X291814Y43513D01*
X291846Y43499D01*
X292032Y43459D01*
X292218Y43414D01*
X292252Y43412D01*
X292286Y43405D01*
X292598Y43385D01*
X299638Y43385D01*
X299638Y42090D01*
X299465Y41444D01*
X299131Y40865D01*
X298658Y40392D01*
X298078Y40057D01*
X297432Y39884D01*
X295699Y39884D01*
X295569Y39873D01*
X295439Y39871D01*
X295346Y39853D01*
X295250Y39844D01*
X295125Y39810D01*
X294997Y39785D01*
X294908Y39751D01*
X294816Y39726D01*
X294699Y39670D01*
X294577Y39623D01*
X294495Y39573D01*
X294409Y39532D01*
X294304Y39457D01*
X294192Y39389D01*
X294121Y39326D01*
X294043Y39270D01*
X293952Y39177D01*
X293855Y39091D01*
X293796Y39016D01*
X293729Y38948D01*
X293656Y38840D01*
X293576Y38738D01*
X293531Y38654D01*
X293477Y38574D01*
X293424Y38456D01*
X293363Y38341D01*
X293333Y38250D01*
X293295Y38163D01*
X293264Y38036D01*
X293224Y37913D01*
X293211Y37818D01*
X293188Y37725D01*
X293180Y37596D01*
X293162Y37467D01*
X293166Y37371D01*
X293160Y37276D01*
X293175Y37147D01*
X293181Y37017D01*
X293201Y36924D01*
X293212Y36829D01*
X293250Y36704D01*
X293278Y36577D01*
X293315Y36489D01*
X293343Y36398D01*
X293402Y36282D01*
X293452Y36162D01*
X293504Y36082D01*
X293547Y35996D01*
X293626Y35893D01*
X293696Y35784D01*
X293782Y35686D01*
X293819Y35638D01*
X293852Y35607D01*
X293903Y35549D01*
X296653Y32800D01*
X298045Y29439D01*
X298045Y13462D01*
X298048Y13427D01*
X298046Y13393D01*
X298068Y13204D01*
X298085Y13013D01*
X298094Y12980D01*
X298098Y12946D01*
X298153Y12763D01*
X298203Y12579D01*
X298218Y12548D01*
X298228Y12515D01*
X298315Y12344D01*
X298397Y12172D01*
X298417Y12144D01*
X298432Y12113D01*
X298548Y11961D01*
X298659Y11806D01*
X298684Y11782D01*
X298704Y11755D01*
X298844Y11626D01*
X298981Y11492D01*
X299010Y11473D01*
X299036Y11449D01*
X299197Y11347D01*
X299354Y11240D01*
X299386Y11226D01*
X299415Y11208D01*
X299592Y11135D01*
X299766Y11058D01*
X299800Y11050D01*
X299832Y11037D01*
X300019Y10997D01*
X300204Y10951D01*
X300238Y10949D01*
X300272Y10942D01*
X300584Y10923D01*
X340563Y10923D01*
X340586Y10925D01*
G37*
G36*
X314194Y157804D02*
X314194Y157804D01*
X314228Y157802D01*
X314418Y157824D01*
X314608Y157841D01*
X314641Y157850D01*
X314676Y157854D01*
X314859Y157910D01*
X315042Y157960D01*
X315073Y157975D01*
X315107Y157985D01*
X315277Y158071D01*
X315449Y158153D01*
X315477Y158173D01*
X315508Y158189D01*
X315660Y158304D01*
X315815Y158415D01*
X315839Y158440D01*
X315867Y158461D01*
X315996Y158601D01*
X316129Y158738D01*
X316148Y158767D01*
X316172Y158792D01*
X316274Y158953D01*
X316381Y159111D01*
X316395Y159143D01*
X316414Y159172D01*
X316486Y159348D01*
X316563Y159523D01*
X316572Y159556D01*
X316585Y159588D01*
X316625Y159775D01*
X316670Y159960D01*
X316672Y159995D01*
X316679Y160029D01*
X316699Y160341D01*
X316699Y160497D01*
X316713Y160536D01*
X316718Y160570D01*
X316729Y160603D01*
X316755Y160792D01*
X316786Y160980D01*
X316786Y161014D01*
X316790Y161049D01*
X316783Y161240D01*
X316780Y161430D01*
X316773Y161464D01*
X316772Y161499D01*
X316731Y161685D01*
X316699Y161851D01*
X316699Y175737D01*
X316713Y175776D01*
X316718Y175810D01*
X316729Y175843D01*
X316755Y176032D01*
X316786Y176220D01*
X316786Y176254D01*
X316790Y176289D01*
X316783Y176480D01*
X316780Y176670D01*
X316773Y176704D01*
X316772Y176739D01*
X316731Y176925D01*
X316699Y177091D01*
X316699Y178317D01*
X316684Y178480D01*
X316677Y178645D01*
X316664Y178704D01*
X316659Y178765D01*
X316615Y178924D01*
X316580Y179084D01*
X316556Y179141D01*
X316540Y179199D01*
X316470Y179347D01*
X316406Y179500D01*
X316373Y179551D01*
X316347Y179606D01*
X316251Y179739D01*
X316162Y179878D01*
X316111Y179936D01*
X316085Y179972D01*
X316041Y180015D01*
X315955Y180112D01*
X302461Y193606D01*
X302335Y193711D01*
X302214Y193823D01*
X302163Y193855D01*
X302116Y193895D01*
X301973Y193976D01*
X301834Y194064D01*
X301778Y194088D01*
X301725Y194118D01*
X301570Y194173D01*
X301418Y194235D01*
X301358Y194248D01*
X301301Y194269D01*
X301138Y194296D01*
X300978Y194330D01*
X300901Y194335D01*
X300857Y194342D01*
X300795Y194341D01*
X300666Y194349D01*
X296902Y194349D01*
X296009Y195243D01*
X296009Y200862D01*
X295998Y200979D01*
X295998Y201095D01*
X295978Y201202D01*
X295969Y201311D01*
X295938Y201424D01*
X295929Y201474D01*
X295929Y204276D01*
X295950Y204344D01*
X295965Y204460D01*
X295989Y204574D01*
X295999Y204728D01*
X296007Y204791D01*
X296005Y204827D01*
X296009Y204886D01*
X296009Y210506D01*
X296502Y210999D01*
X296585Y211098D01*
X296676Y211191D01*
X296729Y211271D01*
X296790Y211344D01*
X296855Y211457D01*
X296928Y211565D01*
X296966Y211652D01*
X297014Y211735D01*
X297057Y211857D01*
X297110Y211976D01*
X297133Y212069D01*
X297165Y212159D01*
X297186Y212288D01*
X297217Y212414D01*
X297223Y212509D01*
X297238Y212603D01*
X297236Y212733D01*
X297244Y212863D01*
X297233Y212958D01*
X297232Y213054D01*
X297207Y213181D01*
X297192Y213310D01*
X297165Y213402D01*
X297146Y213496D01*
X297100Y213617D01*
X297062Y213741D01*
X297019Y213827D01*
X296984Y213916D01*
X296917Y214027D01*
X296858Y214143D01*
X296800Y214219D01*
X296750Y214300D01*
X296664Y214398D01*
X296586Y214501D01*
X296515Y214566D01*
X296452Y214638D01*
X296350Y214718D01*
X296255Y214807D01*
X296174Y214858D01*
X296099Y214917D01*
X295985Y214979D01*
X295875Y215048D01*
X295786Y215085D01*
X295702Y215130D01*
X295579Y215170D01*
X295573Y215172D01*
X295573Y224874D01*
X295570Y224908D01*
X295572Y224943D01*
X295550Y225132D01*
X295533Y225322D01*
X295524Y225356D01*
X295520Y225390D01*
X295464Y225573D01*
X295414Y225757D01*
X295400Y225788D01*
X295389Y225821D01*
X295303Y225992D01*
X295221Y226163D01*
X295201Y226191D01*
X295185Y226222D01*
X295070Y226374D01*
X294959Y226529D01*
X294958Y226530D01*
X294934Y226554D01*
X294913Y226581D01*
X294913Y226582D01*
X294773Y226711D01*
X294636Y226844D01*
X294607Y226863D01*
X294581Y226887D01*
X294420Y226989D01*
X294263Y227096D01*
X294231Y227110D01*
X294202Y227129D01*
X294025Y227201D01*
X293851Y227278D01*
X293817Y227286D01*
X293785Y227300D01*
X293599Y227340D01*
X293413Y227385D01*
X293379Y227387D01*
X293345Y227394D01*
X293033Y227413D01*
X285493Y227413D01*
X285493Y232209D01*
X285666Y232855D01*
X286000Y233434D01*
X286473Y233907D01*
X287053Y234242D01*
X287699Y234415D01*
X289591Y234415D01*
X289626Y234418D01*
X289660Y234416D01*
X289850Y234438D01*
X290040Y234455D01*
X290073Y234464D01*
X290107Y234468D01*
X290290Y234523D01*
X290474Y234573D01*
X290505Y234588D01*
X290538Y234598D01*
X290709Y234685D01*
X290881Y234767D01*
X290909Y234787D01*
X290940Y234803D01*
X291092Y234918D01*
X291247Y235029D01*
X291271Y235054D01*
X291298Y235075D01*
X291428Y235215D01*
X291561Y235351D01*
X291580Y235380D01*
X291604Y235406D01*
X291706Y235567D01*
X291813Y235725D01*
X291827Y235756D01*
X291845Y235785D01*
X291918Y235962D01*
X291995Y236136D01*
X292003Y236170D01*
X292016Y236202D01*
X292057Y236389D01*
X292102Y236574D01*
X292104Y236608D01*
X292111Y236642D01*
X292130Y236954D01*
X292130Y238533D01*
X297671Y238533D01*
X297705Y238537D01*
X297740Y238534D01*
X297929Y238556D01*
X298119Y238573D01*
X298153Y238583D01*
X298187Y238587D01*
X298370Y238642D01*
X298554Y238692D01*
X298585Y238707D01*
X298618Y238717D01*
X298789Y238804D01*
X298960Y238885D01*
X298988Y238905D01*
X299019Y238921D01*
X299171Y239036D01*
X299326Y239147D01*
X299351Y239172D01*
X299378Y239193D01*
X299507Y239333D01*
X299640Y239470D01*
X299660Y239499D01*
X299683Y239524D01*
X299786Y239685D01*
X299892Y239843D01*
X299906Y239875D01*
X299925Y239904D01*
X299998Y240081D01*
X300075Y240255D01*
X300083Y240289D01*
X300096Y240321D01*
X300136Y240507D01*
X300181Y240692D01*
X300183Y240727D01*
X300191Y240761D01*
X300210Y241073D01*
X300207Y241107D01*
X300209Y241142D01*
X300187Y241331D01*
X300170Y241522D01*
X300161Y241555D01*
X300157Y241589D01*
X300102Y241772D01*
X300052Y241956D01*
X300037Y241987D01*
X300027Y242020D01*
X299940Y242191D01*
X299858Y242363D01*
X299838Y242391D01*
X299822Y242422D01*
X299707Y242574D01*
X299596Y242729D01*
X299571Y242753D01*
X299550Y242780D01*
X299410Y242909D01*
X299273Y243043D01*
X299245Y243062D01*
X299219Y243086D01*
X299058Y243188D01*
X298900Y243295D01*
X298869Y243309D01*
X298839Y243327D01*
X298663Y243400D01*
X298489Y243477D01*
X298455Y243485D01*
X298423Y243498D01*
X298236Y243539D01*
X298051Y243584D01*
X298017Y243586D01*
X297983Y243593D01*
X297671Y243612D01*
X292130Y243612D01*
X292130Y244907D01*
X292303Y245554D01*
X292638Y246133D01*
X293111Y246606D01*
X293690Y246941D01*
X294337Y247114D01*
X295215Y247114D01*
X295345Y247125D01*
X295475Y247127D01*
X295568Y247145D01*
X295664Y247154D01*
X295789Y247188D01*
X295917Y247213D01*
X296006Y247247D01*
X296098Y247272D01*
X296215Y247328D01*
X296337Y247375D01*
X296419Y247425D01*
X296505Y247465D01*
X296610Y247541D01*
X296721Y247609D01*
X296793Y247672D01*
X296871Y247728D01*
X296961Y247821D01*
X297059Y247907D01*
X297118Y247982D01*
X297185Y248050D01*
X297258Y248158D01*
X297338Y248260D01*
X297383Y248344D01*
X297437Y248423D01*
X297489Y248542D01*
X297551Y248657D01*
X297580Y248748D01*
X297619Y248835D01*
X297650Y248961D01*
X297690Y249085D01*
X297703Y249180D01*
X297726Y249273D01*
X297734Y249402D01*
X297751Y249531D01*
X297748Y249627D01*
X297753Y249722D01*
X297738Y249851D01*
X297733Y249981D01*
X297712Y250074D01*
X297701Y250169D01*
X297664Y250294D01*
X297635Y250421D01*
X297599Y250509D01*
X297571Y250600D01*
X297512Y250716D01*
X297462Y250836D01*
X297410Y250916D01*
X297367Y251001D01*
X297288Y251105D01*
X297218Y251214D01*
X297131Y251312D01*
X297095Y251360D01*
X297062Y251391D01*
X297011Y251448D01*
X296423Y252036D01*
X294922Y253537D01*
X294303Y255031D01*
X294303Y256690D01*
X294300Y256724D01*
X294302Y256759D01*
X294280Y256948D01*
X294264Y257138D01*
X294254Y257172D01*
X294250Y257206D01*
X294195Y257389D01*
X294145Y257573D01*
X294130Y257604D01*
X294120Y257637D01*
X294033Y257808D01*
X293952Y257979D01*
X293931Y258008D01*
X293916Y258038D01*
X293801Y258190D01*
X293689Y258346D01*
X293665Y258370D01*
X293644Y258397D01*
X293504Y258526D01*
X293367Y258660D01*
X293338Y258679D01*
X293313Y258702D01*
X293152Y258805D01*
X292994Y258912D01*
X292962Y258926D01*
X292933Y258944D01*
X292756Y259017D01*
X292582Y259094D01*
X292548Y259102D01*
X292516Y259115D01*
X292330Y259155D01*
X292145Y259201D01*
X292110Y259203D01*
X292076Y259210D01*
X291764Y259229D01*
X288737Y259229D01*
X287843Y260122D01*
X287843Y260658D01*
X287840Y260692D01*
X287842Y260727D01*
X287820Y260916D01*
X287804Y261106D01*
X287794Y261140D01*
X287790Y261174D01*
X287735Y261357D01*
X287685Y261541D01*
X287670Y261572D01*
X287660Y261605D01*
X287573Y261776D01*
X287492Y261947D01*
X287471Y261976D01*
X287456Y262007D01*
X287341Y262159D01*
X287229Y262314D01*
X287205Y262338D01*
X287184Y262365D01*
X287044Y262494D01*
X286907Y262628D01*
X286878Y262647D01*
X286853Y262670D01*
X286692Y262773D01*
X286534Y262880D01*
X286502Y262894D01*
X286473Y262912D01*
X286296Y262985D01*
X286122Y263062D01*
X286088Y263070D01*
X286056Y263083D01*
X285870Y263123D01*
X285685Y263169D01*
X285650Y263171D01*
X285616Y263178D01*
X285304Y263197D01*
X267656Y263197D01*
X266162Y263816D01*
X264661Y265317D01*
X259789Y270189D01*
X259690Y270272D01*
X259596Y270363D01*
X259517Y270416D01*
X259444Y270478D01*
X259331Y270542D01*
X259223Y270615D01*
X259136Y270654D01*
X259053Y270701D01*
X258930Y270745D01*
X258812Y270797D01*
X258719Y270820D01*
X258629Y270852D01*
X258500Y270873D01*
X258374Y270904D01*
X258279Y270910D01*
X258184Y270925D01*
X258055Y270924D01*
X257925Y270932D01*
X257830Y270920D01*
X257734Y270919D01*
X257607Y270894D01*
X257477Y270879D01*
X257386Y270852D01*
X257292Y270834D01*
X257171Y270787D01*
X257046Y270749D01*
X256961Y270706D01*
X256872Y270671D01*
X256761Y270604D01*
X256645Y270545D01*
X256569Y270487D01*
X256487Y270437D01*
X256390Y270351D01*
X256286Y270273D01*
X256222Y270203D01*
X256150Y270139D01*
X256069Y270037D01*
X255981Y269942D01*
X255930Y269861D01*
X255871Y269786D01*
X255809Y269672D01*
X255739Y269562D01*
X255703Y269473D01*
X255658Y269389D01*
X255618Y269266D01*
X255568Y269145D01*
X255548Y269052D01*
X255519Y268961D01*
X255501Y268832D01*
X255474Y268705D01*
X255466Y268575D01*
X255457Y268515D01*
X255459Y268470D01*
X255454Y268393D01*
X255454Y242754D01*
X255466Y242624D01*
X255468Y242495D01*
X255486Y242401D01*
X255494Y242306D01*
X255529Y242180D01*
X255553Y242052D01*
X255588Y241963D01*
X255613Y241871D01*
X255669Y241754D01*
X255716Y241632D01*
X255765Y241551D01*
X255806Y241465D01*
X255882Y241359D01*
X255950Y241248D01*
X256013Y241176D01*
X256068Y241098D01*
X256162Y241008D01*
X256248Y240910D01*
X256323Y240851D01*
X256391Y240784D01*
X256499Y240712D01*
X256601Y240631D01*
X256685Y240586D01*
X256764Y240532D01*
X256883Y240480D01*
X256998Y240418D01*
X257088Y240389D01*
X257176Y240350D01*
X257302Y240319D01*
X257426Y240279D01*
X257521Y240266D01*
X257613Y240243D01*
X257743Y240235D01*
X257872Y240218D01*
X257968Y240222D01*
X258063Y240216D01*
X258192Y240231D01*
X258322Y240236D01*
X258415Y240257D01*
X258510Y240268D01*
X258635Y240306D01*
X258761Y240334D01*
X258849Y240370D01*
X258941Y240398D01*
X259057Y240457D01*
X259177Y240507D01*
X259257Y240559D01*
X259342Y240603D01*
X259446Y240681D01*
X259555Y240752D01*
X259653Y240838D01*
X259701Y240875D01*
X259731Y240907D01*
X259789Y240959D01*
X260898Y242067D01*
X267282Y242067D01*
X268614Y240734D01*
X268614Y220594D01*
X268609Y220588D01*
X268539Y220466D01*
X268475Y220371D01*
X268464Y220345D01*
X268439Y220307D01*
X268416Y220250D01*
X268386Y220197D01*
X268335Y220055D01*
X268293Y219959D01*
X268287Y219936D01*
X268268Y219890D01*
X268256Y219831D01*
X268235Y219773D01*
X268209Y219615D01*
X268186Y219522D01*
X268185Y219503D01*
X268174Y219450D01*
X268169Y219373D01*
X268162Y219329D01*
X268162Y219268D01*
X268154Y219138D01*
X268154Y213251D01*
X267536Y211757D01*
X252680Y196902D01*
X252597Y196802D01*
X252506Y196709D01*
X252452Y196630D01*
X252391Y196556D01*
X252327Y196443D01*
X252254Y196336D01*
X252215Y196248D01*
X252168Y196165D01*
X252124Y196043D01*
X252072Y195924D01*
X252049Y195831D01*
X252017Y195741D01*
X251996Y195613D01*
X251965Y195486D01*
X251959Y195391D01*
X251943Y195297D01*
X251945Y195167D01*
X251937Y195037D01*
X251948Y194942D01*
X251950Y194847D01*
X251974Y194719D01*
X251989Y194590D01*
X252017Y194498D01*
X252035Y194405D01*
X252082Y194283D01*
X252120Y194159D01*
X252163Y194074D01*
X252197Y193985D01*
X252265Y193873D01*
X252324Y193758D01*
X252382Y193682D01*
X252431Y193600D01*
X252517Y193502D01*
X252596Y193399D01*
X252666Y193334D01*
X252730Y193262D01*
X252831Y193182D01*
X252927Y193094D01*
X253008Y193042D01*
X253083Y192983D01*
X253197Y192922D01*
X253307Y192852D01*
X253395Y192815D01*
X253480Y192770D01*
X253603Y192730D01*
X253723Y192681D01*
X253817Y192661D01*
X253908Y192631D01*
X254036Y192613D01*
X254164Y192586D01*
X254293Y192578D01*
X254354Y192570D01*
X254399Y192572D01*
X254476Y192567D01*
X254582Y192567D01*
X255283Y191865D01*
X255328Y191828D01*
X255368Y191785D01*
X255501Y191683D01*
X255629Y191576D01*
X255680Y191547D01*
X255726Y191512D01*
X255875Y191436D01*
X256020Y191353D01*
X256075Y191333D01*
X256127Y191307D01*
X256287Y191258D01*
X256444Y191202D01*
X256502Y191193D01*
X256558Y191176D01*
X256724Y191156D01*
X256888Y191129D01*
X256947Y191130D01*
X257005Y191123D01*
X257172Y191133D01*
X257339Y191135D01*
X257396Y191146D01*
X257455Y191150D01*
X257617Y191189D01*
X257781Y191220D01*
X257835Y191242D01*
X257892Y191255D01*
X258045Y191323D01*
X258201Y191383D01*
X258251Y191413D01*
X258304Y191437D01*
X258443Y191530D01*
X258585Y191617D01*
X258629Y191655D01*
X258678Y191688D01*
X258798Y191804D01*
X258923Y191915D01*
X258959Y191961D01*
X259001Y192002D01*
X259190Y192250D01*
X259284Y192390D01*
X259742Y192848D01*
X260281Y193208D01*
X260880Y193456D01*
X261516Y193583D01*
X261550Y193583D01*
X261550Y181192D01*
X261550Y168801D01*
X261516Y168801D01*
X260880Y168928D01*
X260281Y169176D01*
X259742Y169536D01*
X259284Y169994D01*
X259190Y170134D01*
X259154Y170180D01*
X259123Y170230D01*
X259013Y170355D01*
X258908Y170485D01*
X258864Y170523D01*
X258825Y170567D01*
X258694Y170671D01*
X258568Y170780D01*
X258518Y170810D01*
X258472Y170847D01*
X258325Y170925D01*
X258182Y171011D01*
X258127Y171032D01*
X258075Y171059D01*
X257916Y171111D01*
X257760Y171170D01*
X257703Y171180D01*
X257647Y171198D01*
X257481Y171221D01*
X257317Y171251D01*
X257259Y171252D01*
X257201Y171260D01*
X257034Y171253D01*
X256867Y171254D01*
X256809Y171244D01*
X256751Y171241D01*
X256588Y171205D01*
X256424Y171177D01*
X256368Y171157D01*
X256311Y171144D01*
X256158Y171080D01*
X256001Y171022D01*
X255950Y170993D01*
X255896Y170970D01*
X255756Y170880D01*
X255612Y170796D01*
X255567Y170758D01*
X255518Y170726D01*
X255283Y170519D01*
X254582Y169817D01*
X251701Y169817D01*
X251666Y169814D01*
X251632Y169816D01*
X251442Y169794D01*
X251252Y169777D01*
X251219Y169768D01*
X251184Y169764D01*
X251001Y169709D01*
X250818Y169659D01*
X250787Y169644D01*
X250753Y169634D01*
X250583Y169547D01*
X250411Y169466D01*
X250383Y169445D01*
X250352Y169430D01*
X250200Y169314D01*
X250045Y169203D01*
X250021Y169179D01*
X249993Y169158D01*
X249864Y169018D01*
X249731Y168881D01*
X249712Y168852D01*
X249688Y168827D01*
X249586Y168666D01*
X249479Y168508D01*
X249465Y168476D01*
X249446Y168447D01*
X249374Y168270D01*
X249297Y168096D01*
X249289Y168062D01*
X249275Y168030D01*
X249235Y167844D01*
X249190Y167658D01*
X249188Y167624D01*
X249181Y167590D01*
X249161Y167278D01*
X249161Y165279D01*
X248543Y163785D01*
X247042Y162284D01*
X246894Y162136D01*
X246811Y162036D01*
X246720Y161943D01*
X246666Y161864D01*
X246605Y161791D01*
X246541Y161678D01*
X246468Y161570D01*
X246429Y161483D01*
X246382Y161400D01*
X246338Y161277D01*
X246286Y161158D01*
X246263Y161066D01*
X246231Y160976D01*
X246210Y160847D01*
X246179Y160721D01*
X246173Y160626D01*
X246157Y160531D01*
X246159Y160401D01*
X246151Y160271D01*
X246162Y160177D01*
X246164Y160081D01*
X246188Y159954D01*
X246203Y159824D01*
X246231Y159733D01*
X246249Y159639D01*
X246296Y159518D01*
X246334Y159393D01*
X246377Y159308D01*
X246411Y159219D01*
X246479Y159108D01*
X246538Y158992D01*
X246596Y158916D01*
X246645Y158834D01*
X246731Y158737D01*
X246810Y158633D01*
X246880Y158569D01*
X246943Y158497D01*
X247045Y158416D01*
X247141Y158328D01*
X247221Y158277D01*
X247296Y158218D01*
X247411Y158156D01*
X247521Y158086D01*
X247609Y158050D01*
X247693Y158005D01*
X247817Y157965D01*
X247937Y157915D01*
X248031Y157895D01*
X248121Y157866D01*
X248250Y157848D01*
X248378Y157820D01*
X248507Y157812D01*
X248567Y157804D01*
X248612Y157806D01*
X248690Y157801D01*
X314159Y157801D01*
X314194Y157804D01*
G37*
G36*
X232250Y240227D02*
X232250Y240227D01*
X232345Y240228D01*
X232473Y240253D01*
X232602Y240268D01*
X232694Y240296D01*
X232787Y240314D01*
X232908Y240360D01*
X233033Y240398D01*
X233118Y240442D01*
X233207Y240476D01*
X233318Y240543D01*
X233434Y240603D01*
X233510Y240660D01*
X233592Y240710D01*
X233690Y240796D01*
X233793Y240875D01*
X233858Y240945D01*
X233929Y241008D01*
X234010Y241110D01*
X234098Y241206D01*
X234150Y241286D01*
X234209Y241361D01*
X234270Y241476D01*
X234340Y241585D01*
X234376Y241674D01*
X234422Y241758D01*
X234462Y241882D01*
X234511Y242002D01*
X234531Y242095D01*
X234561Y242186D01*
X234578Y242315D01*
X234606Y242442D01*
X234614Y242572D01*
X234622Y242632D01*
X234620Y242677D01*
X234625Y242754D01*
X234625Y331493D01*
X234610Y331656D01*
X234604Y331821D01*
X234591Y331880D01*
X234585Y331941D01*
X234542Y332100D01*
X234506Y332260D01*
X234483Y332317D01*
X234467Y332375D01*
X234396Y332523D01*
X234333Y332676D01*
X234299Y332727D01*
X234273Y332782D01*
X234178Y332915D01*
X234088Y333054D01*
X234037Y333112D01*
X234011Y333148D01*
X233967Y333191D01*
X233881Y333288D01*
X211954Y355215D01*
X211335Y356709D01*
X211335Y364689D01*
X211316Y364902D01*
X211299Y365115D01*
X211296Y365126D01*
X211295Y365137D01*
X211239Y365343D01*
X211185Y365550D01*
X211180Y365561D01*
X211177Y365572D01*
X211086Y365762D01*
X210995Y365959D01*
X210988Y365968D01*
X210983Y365978D01*
X210860Y366151D01*
X210736Y366327D01*
X210728Y366335D01*
X210721Y366344D01*
X210612Y366451D01*
X210577Y366490D01*
X207647Y369420D01*
X206255Y372781D01*
X206255Y376419D01*
X207647Y379780D01*
X210220Y382353D01*
X213581Y383745D01*
X217219Y383745D01*
X220256Y382487D01*
X220426Y382433D01*
X220593Y382374D01*
X220640Y382366D01*
X220686Y382352D01*
X220862Y382330D01*
X221037Y382301D01*
X221085Y382301D01*
X221133Y382295D01*
X221310Y382304D01*
X221488Y382307D01*
X221535Y382316D01*
X221582Y382318D01*
X221755Y382358D01*
X221930Y382392D01*
X221974Y382409D01*
X222021Y382420D01*
X222184Y382490D01*
X222350Y382554D01*
X222391Y382579D01*
X222434Y382598D01*
X222582Y382696D01*
X222734Y382788D01*
X222770Y382820D01*
X222810Y382846D01*
X222939Y382969D01*
X223072Y383087D01*
X223101Y383124D01*
X223136Y383157D01*
X223241Y383301D01*
X223351Y383440D01*
X223374Y383482D01*
X223402Y383520D01*
X223480Y383680D01*
X223564Y383837D01*
X223579Y383882D01*
X223600Y383925D01*
X223648Y384096D01*
X223703Y384265D01*
X223709Y384312D01*
X223723Y384358D01*
X223740Y384535D01*
X223764Y384711D01*
X223762Y384759D01*
X223767Y384806D01*
X223753Y384983D01*
X223746Y385161D01*
X223736Y385208D01*
X223732Y385255D01*
X223687Y385427D01*
X223648Y385600D01*
X223630Y385644D01*
X223618Y385691D01*
X223543Y385852D01*
X223475Y386016D01*
X223449Y386056D01*
X223429Y386099D01*
X223327Y386245D01*
X223230Y386394D01*
X223191Y386438D01*
X223170Y386468D01*
X223126Y386513D01*
X223024Y386628D01*
X219534Y390118D01*
X219370Y390255D01*
X219209Y390392D01*
X219199Y390398D01*
X219189Y390406D01*
X219004Y390512D01*
X218821Y390619D01*
X218809Y390624D01*
X218798Y390630D01*
X218597Y390701D01*
X218398Y390774D01*
X218386Y390776D01*
X218374Y390781D01*
X218163Y390815D01*
X217955Y390852D01*
X217942Y390852D01*
X217929Y390854D01*
X217777Y390852D01*
X217724Y390855D01*
X213581Y390855D01*
X210220Y392247D01*
X207647Y394820D01*
X206255Y398181D01*
X206255Y401819D01*
X207647Y405180D01*
X210220Y407753D01*
X213581Y409145D01*
X217219Y409145D01*
X220580Y407753D01*
X223153Y405180D01*
X224545Y401819D01*
X224545Y397806D01*
X224542Y397783D01*
X224542Y397770D01*
X224541Y397758D01*
X224551Y397547D01*
X224560Y397333D01*
X224563Y397321D01*
X224563Y397308D01*
X224611Y397101D01*
X224658Y396894D01*
X224662Y396882D01*
X224665Y396870D01*
X224749Y396676D01*
X224831Y396478D01*
X224838Y396467D01*
X224843Y396456D01*
X224959Y396280D01*
X225076Y396100D01*
X225086Y396089D01*
X225091Y396080D01*
X225118Y396052D01*
X225282Y395866D01*
X226954Y394195D01*
X227014Y394144D01*
X227067Y394088D01*
X227186Y394000D01*
X227299Y393906D01*
X227367Y393867D01*
X227430Y393821D01*
X227562Y393755D01*
X227690Y393682D01*
X227764Y393656D01*
X227834Y393622D01*
X227976Y393581D01*
X228114Y393531D01*
X228191Y393519D01*
X228267Y393497D01*
X228413Y393482D01*
X228559Y393458D01*
X228637Y393459D01*
X228714Y393451D01*
X228861Y393462D01*
X229009Y393464D01*
X229086Y393479D01*
X229163Y393485D01*
X229306Y393522D01*
X229451Y393550D01*
X229524Y393578D01*
X229599Y393597D01*
X229733Y393659D01*
X229871Y393712D01*
X229938Y393753D01*
X230009Y393785D01*
X230129Y393869D01*
X230256Y393946D01*
X230314Y393998D01*
X230378Y394042D01*
X230483Y394146D01*
X230593Y394244D01*
X230641Y394305D01*
X230697Y394361D01*
X230781Y394482D01*
X230872Y394597D01*
X230909Y394666D01*
X230954Y394730D01*
X231015Y394864D01*
X231085Y394994D01*
X231109Y395068D01*
X231142Y395139D01*
X231179Y395282D01*
X231224Y395422D01*
X231235Y395500D01*
X231254Y395575D01*
X231266Y395722D01*
X231286Y395868D01*
X231283Y395946D01*
X231288Y396024D01*
X231273Y396171D01*
X231267Y396318D01*
X231250Y396394D01*
X231242Y396472D01*
X231176Y396728D01*
X231170Y396758D01*
X231167Y396764D01*
X231164Y396775D01*
X230941Y397461D01*
X238261Y397461D01*
X238261Y390141D01*
X236900Y390584D01*
X235803Y391143D01*
X235799Y391144D01*
X235795Y391147D01*
X235590Y391228D01*
X235385Y391311D01*
X235381Y391312D01*
X235377Y391313D01*
X235161Y391357D01*
X234944Y391402D01*
X234940Y391402D01*
X234935Y391403D01*
X234716Y391408D01*
X234494Y391415D01*
X234490Y391414D01*
X234485Y391414D01*
X234273Y391381D01*
X234049Y391347D01*
X234045Y391346D01*
X234040Y391345D01*
X233834Y391274D01*
X233623Y391202D01*
X233619Y391200D01*
X233615Y391199D01*
X233418Y391089D01*
X233229Y390984D01*
X233225Y390982D01*
X233221Y390979D01*
X233051Y390839D01*
X232879Y390700D01*
X232876Y390697D01*
X232873Y390694D01*
X232732Y390528D01*
X232586Y390359D01*
X232583Y390355D01*
X232581Y390352D01*
X232469Y390160D01*
X232357Y389971D01*
X232355Y389967D01*
X232353Y389963D01*
X232275Y389751D01*
X232200Y389549D01*
X232200Y389545D01*
X232198Y389540D01*
X232159Y389321D01*
X232121Y389106D01*
X232121Y389101D01*
X232120Y389097D01*
X232121Y388872D01*
X232121Y388655D01*
X232121Y388651D01*
X232121Y388647D01*
X232161Y388430D01*
X232200Y388212D01*
X232202Y388208D01*
X232202Y388204D01*
X232261Y388034D01*
X232261Y384761D01*
X232268Y384679D01*
X232266Y384597D01*
X232288Y384456D01*
X232301Y384313D01*
X232323Y384233D01*
X232335Y384152D01*
X232382Y384017D01*
X232419Y383879D01*
X232455Y383804D01*
X232481Y383726D01*
X232551Y383601D01*
X232613Y383472D01*
X232661Y383405D01*
X232701Y383333D01*
X232792Y383222D01*
X232875Y383106D01*
X232934Y383048D01*
X232986Y382985D01*
X233095Y382892D01*
X233198Y382792D01*
X233266Y382746D01*
X233328Y382692D01*
X233452Y382620D01*
X233571Y382540D01*
X233646Y382506D01*
X233717Y382465D01*
X233852Y382415D01*
X233982Y382357D01*
X234062Y382338D01*
X234140Y382310D01*
X234281Y382285D01*
X234420Y382251D01*
X234502Y382246D01*
X234583Y382231D01*
X234726Y382232D01*
X234869Y382223D01*
X234951Y382233D01*
X235033Y382233D01*
X235174Y382259D01*
X235316Y382275D01*
X235395Y382299D01*
X235476Y382314D01*
X235710Y382394D01*
X235747Y382405D01*
X235757Y382410D01*
X235772Y382415D01*
X238981Y383745D01*
X242619Y383745D01*
X245980Y382353D01*
X246096Y382237D01*
X246196Y382153D01*
X246289Y382063D01*
X246368Y382009D01*
X246441Y381948D01*
X246554Y381883D01*
X246662Y381811D01*
X246749Y381772D01*
X246832Y381725D01*
X246955Y381681D01*
X247074Y381628D01*
X247166Y381606D01*
X247256Y381574D01*
X247385Y381553D01*
X247511Y381522D01*
X247606Y381516D01*
X247701Y381500D01*
X247831Y381502D01*
X247960Y381494D01*
X248055Y381505D01*
X248151Y381506D01*
X248278Y381531D01*
X248408Y381546D01*
X248499Y381574D01*
X248593Y381592D01*
X248714Y381639D01*
X248839Y381676D01*
X248924Y381720D01*
X249013Y381754D01*
X249124Y381822D01*
X249240Y381881D01*
X249316Y381938D01*
X249398Y381988D01*
X249495Y382074D01*
X249599Y382153D01*
X249663Y382223D01*
X249735Y382286D01*
X249816Y382388D01*
X249904Y382484D01*
X249955Y382564D01*
X250014Y382639D01*
X250076Y382754D01*
X250146Y382864D01*
X250182Y382952D01*
X250227Y383036D01*
X250267Y383160D01*
X250317Y383280D01*
X250337Y383374D01*
X250366Y383464D01*
X250384Y383593D01*
X250411Y383720D01*
X250419Y383850D01*
X250428Y383910D01*
X250426Y383955D01*
X250431Y384032D01*
X250431Y389454D01*
X250417Y389610D01*
X250411Y389765D01*
X250397Y389833D01*
X250391Y389903D01*
X250350Y390053D01*
X250317Y390206D01*
X250290Y390270D01*
X250272Y390337D01*
X250205Y390478D01*
X250146Y390622D01*
X250109Y390681D01*
X250079Y390744D01*
X249988Y390870D01*
X249904Y391002D01*
X249857Y391053D01*
X249817Y391110D01*
X249705Y391219D01*
X249599Y391333D01*
X249544Y391375D01*
X249494Y391424D01*
X249365Y391511D01*
X249240Y391605D01*
X249178Y391637D01*
X249121Y391676D01*
X248978Y391739D01*
X248839Y391810D01*
X248773Y391830D01*
X248709Y391858D01*
X248558Y391895D01*
X248408Y391940D01*
X248339Y391948D01*
X248272Y391965D01*
X248116Y391974D01*
X247961Y391992D01*
X247892Y391988D01*
X247822Y391992D01*
X247667Y391974D01*
X247512Y391965D01*
X247444Y391948D01*
X247375Y391940D01*
X247225Y391895D01*
X247074Y391858D01*
X247011Y391830D01*
X246944Y391810D01*
X246805Y391739D01*
X246662Y391676D01*
X246587Y391628D01*
X246543Y391606D01*
X246496Y391571D01*
X246399Y391508D01*
X246125Y391310D01*
X244700Y390584D01*
X243339Y390141D01*
X243339Y400000D01*
X243339Y409859D01*
X244700Y409416D01*
X246125Y408690D01*
X246399Y408492D01*
X246532Y408412D01*
X246662Y408324D01*
X246725Y408296D01*
X246785Y408260D01*
X246931Y408205D01*
X247074Y408142D01*
X247141Y408125D01*
X247206Y408101D01*
X247359Y408072D01*
X247511Y408035D01*
X247580Y408031D01*
X247649Y408018D01*
X247805Y408017D01*
X247960Y408008D01*
X248029Y408016D01*
X248099Y408015D01*
X248252Y408042D01*
X248408Y408060D01*
X248474Y408080D01*
X248543Y408092D01*
X248689Y408145D01*
X248839Y408190D01*
X248901Y408222D01*
X248966Y408245D01*
X249101Y408324D01*
X249240Y408394D01*
X249295Y408436D01*
X249355Y408471D01*
X249474Y408572D01*
X249599Y408666D01*
X249646Y408717D01*
X249699Y408762D01*
X249798Y408883D01*
X249904Y408997D01*
X249941Y409056D01*
X249985Y409110D01*
X250062Y409246D01*
X250146Y409377D01*
X250172Y409442D01*
X250206Y409502D01*
X250257Y409649D01*
X250317Y409794D01*
X250331Y409862D01*
X250354Y409927D01*
X250378Y410081D01*
X250411Y410234D01*
X250417Y410323D01*
X250425Y410372D01*
X250423Y410430D01*
X250431Y410546D01*
X250431Y412896D01*
X250416Y413059D01*
X250409Y413224D01*
X250396Y413283D01*
X250391Y413344D01*
X250347Y413503D01*
X250312Y413663D01*
X250288Y413720D01*
X250272Y413778D01*
X250202Y413927D01*
X250138Y414079D01*
X250105Y414130D01*
X250079Y414185D01*
X249983Y414319D01*
X249894Y414457D01*
X249843Y414515D01*
X249817Y414551D01*
X249773Y414594D01*
X249687Y414691D01*
X247911Y416467D01*
X247784Y416573D01*
X247664Y416684D01*
X247612Y416717D01*
X247565Y416756D01*
X247423Y416838D01*
X247284Y416926D01*
X247227Y416949D01*
X247174Y416980D01*
X247020Y417035D01*
X246867Y417097D01*
X246808Y417110D01*
X246750Y417130D01*
X246588Y417157D01*
X246427Y417192D01*
X246350Y417197D01*
X246306Y417204D01*
X246245Y417203D01*
X246115Y417211D01*
X164760Y417211D01*
X164631Y417199D01*
X164501Y417198D01*
X164407Y417180D01*
X164312Y417171D01*
X164186Y417137D01*
X164058Y417112D01*
X163969Y417078D01*
X163877Y417053D01*
X163760Y416997D01*
X163638Y416950D01*
X163557Y416900D01*
X163471Y416859D01*
X163365Y416784D01*
X163254Y416716D01*
X163182Y416653D01*
X163104Y416597D01*
X163014Y416504D01*
X162916Y416418D01*
X162857Y416343D01*
X162790Y416274D01*
X162718Y416166D01*
X162637Y416065D01*
X162592Y415981D01*
X162538Y415901D01*
X162486Y415782D01*
X162424Y415668D01*
X162395Y415577D01*
X162356Y415490D01*
X162325Y415363D01*
X162285Y415240D01*
X162272Y415145D01*
X162249Y415052D01*
X162241Y414922D01*
X162224Y414793D01*
X162228Y414698D01*
X162222Y414603D01*
X162237Y414474D01*
X162242Y414344D01*
X162263Y414250D01*
X162274Y414155D01*
X162312Y414031D01*
X162340Y413904D01*
X162376Y413816D01*
X162404Y413724D01*
X162463Y413609D01*
X162513Y413489D01*
X162565Y413408D01*
X162609Y413323D01*
X162687Y413220D01*
X162758Y413110D01*
X162844Y413013D01*
X162881Y412964D01*
X162887Y412958D01*
X162889Y412956D01*
X162916Y412931D01*
X162965Y412876D01*
X166535Y409306D01*
X166624Y409231D01*
X166707Y409149D01*
X166797Y409087D01*
X166880Y409017D01*
X166982Y408959D01*
X167078Y408893D01*
X167217Y408825D01*
X167271Y408794D01*
X167305Y408782D01*
X167359Y408756D01*
X169780Y407753D01*
X172353Y405180D01*
X173745Y401819D01*
X173745Y398181D01*
X172487Y395144D01*
X172434Y394974D01*
X172374Y394807D01*
X172366Y394760D01*
X172352Y394714D01*
X172330Y394538D01*
X172301Y394363D01*
X172301Y394315D01*
X172295Y394267D01*
X172304Y394090D01*
X172307Y393913D01*
X172316Y393865D01*
X172318Y393818D01*
X172358Y393645D01*
X172392Y393470D01*
X172409Y393426D01*
X172420Y393379D01*
X172490Y393216D01*
X172554Y393050D01*
X172579Y393010D01*
X172598Y392966D01*
X172696Y392818D01*
X172788Y392666D01*
X172820Y392630D01*
X172846Y392590D01*
X172969Y392461D01*
X173087Y392328D01*
X173124Y392299D01*
X173157Y392264D01*
X173301Y392159D01*
X173440Y392049D01*
X173482Y392026D01*
X173520Y391998D01*
X173680Y391920D01*
X173837Y391836D01*
X173882Y391822D01*
X173925Y391801D01*
X174096Y391752D01*
X174265Y391697D01*
X174312Y391691D01*
X174358Y391678D01*
X174535Y391660D01*
X174711Y391636D01*
X174759Y391638D01*
X174806Y391633D01*
X174983Y391647D01*
X175161Y391654D01*
X175208Y391664D01*
X175255Y391668D01*
X175427Y391713D01*
X175600Y391752D01*
X175644Y391770D01*
X175691Y391782D01*
X175852Y391857D01*
X176016Y391925D01*
X176056Y391951D01*
X176099Y391971D01*
X176245Y392073D01*
X176394Y392170D01*
X176438Y392209D01*
X176468Y392230D01*
X176513Y392274D01*
X176628Y392377D01*
X180118Y395866D01*
X180255Y396030D01*
X180393Y396192D01*
X180399Y396202D01*
X180406Y396211D01*
X180512Y396397D01*
X180620Y396581D01*
X180624Y396592D01*
X180630Y396602D01*
X180701Y396803D01*
X180775Y397004D01*
X180777Y397015D01*
X180781Y397027D01*
X180816Y397238D01*
X180852Y397447D01*
X180852Y397459D01*
X180854Y397471D01*
X180852Y397623D01*
X180855Y397676D01*
X180855Y401819D01*
X182247Y405180D01*
X184820Y407753D01*
X188181Y409145D01*
X191819Y409145D01*
X195180Y407753D01*
X197753Y405180D01*
X199145Y401819D01*
X199145Y398181D01*
X197753Y394820D01*
X195180Y392247D01*
X191819Y390855D01*
X187806Y390855D01*
X187783Y390858D01*
X187771Y390858D01*
X187760Y390859D01*
X187678Y390855D01*
X187676Y390855D01*
X187673Y390855D01*
X187547Y390849D01*
X187333Y390840D01*
X187322Y390837D01*
X187310Y390837D01*
X187101Y390788D01*
X186894Y390742D01*
X186883Y390738D01*
X186871Y390735D01*
X186675Y390651D01*
X186478Y390569D01*
X186468Y390562D01*
X186458Y390558D01*
X186280Y390441D01*
X186100Y390324D01*
X186090Y390315D01*
X186082Y390310D01*
X186055Y390285D01*
X185866Y390118D01*
X182377Y386628D01*
X182262Y386492D01*
X182144Y386360D01*
X182118Y386320D01*
X182088Y386283D01*
X182000Y386129D01*
X181906Y385978D01*
X181888Y385933D01*
X181864Y385892D01*
X181805Y385725D01*
X181739Y385559D01*
X181729Y385513D01*
X181713Y385468D01*
X181684Y385292D01*
X181649Y385118D01*
X181648Y385071D01*
X181640Y385023D01*
X181642Y384845D01*
X181638Y384668D01*
X181645Y384621D01*
X181646Y384573D01*
X181680Y384398D01*
X181707Y384223D01*
X181723Y384178D01*
X181732Y384131D01*
X181796Y383965D01*
X181853Y383797D01*
X181877Y383756D01*
X181894Y383711D01*
X181986Y383559D01*
X182073Y383404D01*
X182103Y383367D01*
X182128Y383326D01*
X182245Y383194D01*
X182358Y383056D01*
X182395Y383025D01*
X182426Y382989D01*
X182565Y382879D01*
X182700Y382763D01*
X182742Y382739D01*
X182779Y382710D01*
X182935Y382626D01*
X183089Y382536D01*
X183134Y382519D01*
X183176Y382497D01*
X183345Y382442D01*
X183512Y382381D01*
X183559Y382372D01*
X183604Y382358D01*
X183780Y382333D01*
X183955Y382303D01*
X184003Y382303D01*
X184050Y382296D01*
X184228Y382304D01*
X184405Y382304D01*
X184452Y382313D01*
X184500Y382315D01*
X184674Y382353D01*
X184848Y382385D01*
X184904Y382404D01*
X184940Y382412D01*
X184998Y382437D01*
X185144Y382487D01*
X188181Y383745D01*
X191819Y383745D01*
X195180Y382353D01*
X197753Y379780D01*
X199145Y376419D01*
X199145Y372781D01*
X197753Y369420D01*
X194915Y366582D01*
X194897Y366568D01*
X194889Y366560D01*
X194880Y366553D01*
X194825Y366492D01*
X194823Y366490D01*
X194820Y366487D01*
X194737Y366395D01*
X194591Y366237D01*
X194585Y366228D01*
X194578Y366219D01*
X194465Y366039D01*
X194350Y365857D01*
X194345Y365847D01*
X194339Y365837D01*
X194260Y365640D01*
X194179Y365441D01*
X194176Y365430D01*
X194172Y365419D01*
X194129Y365210D01*
X194084Y365001D01*
X194083Y364987D01*
X194081Y364978D01*
X194080Y364942D01*
X194065Y364689D01*
X194065Y350701D01*
X194079Y350538D01*
X194086Y350373D01*
X194099Y350314D01*
X194105Y350253D01*
X194148Y350094D01*
X194184Y349934D01*
X194207Y349877D01*
X194223Y349819D01*
X194294Y349671D01*
X194357Y349518D01*
X194390Y349467D01*
X194417Y349412D01*
X194512Y349279D01*
X194602Y349140D01*
X194653Y349082D01*
X194679Y349046D01*
X194722Y349003D01*
X194808Y348906D01*
X216736Y326979D01*
X217354Y325485D01*
X217354Y242754D01*
X217366Y242624D01*
X217368Y242495D01*
X217386Y242401D01*
X217394Y242306D01*
X217429Y242180D01*
X217453Y242052D01*
X217488Y241963D01*
X217513Y241871D01*
X217569Y241754D01*
X217616Y241632D01*
X217665Y241551D01*
X217706Y241465D01*
X217782Y241359D01*
X217850Y241248D01*
X217913Y241176D01*
X217968Y241098D01*
X218062Y241008D01*
X218148Y240910D01*
X218223Y240851D01*
X218291Y240784D01*
X218399Y240712D01*
X218501Y240631D01*
X218585Y240586D01*
X218664Y240532D01*
X218783Y240480D01*
X218898Y240418D01*
X218988Y240389D01*
X219076Y240350D01*
X219202Y240319D01*
X219326Y240279D01*
X219421Y240266D01*
X219513Y240243D01*
X219643Y240235D01*
X219772Y240218D01*
X219868Y240222D01*
X219963Y240216D01*
X220092Y240231D01*
X220222Y240236D01*
X220315Y240257D01*
X220410Y240268D01*
X220535Y240306D01*
X220661Y240334D01*
X220749Y240370D01*
X220841Y240398D01*
X220957Y240457D01*
X221077Y240507D01*
X221157Y240559D01*
X221242Y240603D01*
X221346Y240681D01*
X221455Y240752D01*
X221553Y240838D01*
X221601Y240875D01*
X221631Y240907D01*
X221689Y240959D01*
X222798Y242067D01*
X229182Y242067D01*
X230290Y240959D01*
X230390Y240875D01*
X230483Y240784D01*
X230562Y240731D01*
X230636Y240670D01*
X230748Y240605D01*
X230856Y240532D01*
X230944Y240494D01*
X231027Y240446D01*
X231149Y240403D01*
X231268Y240350D01*
X231361Y240328D01*
X231451Y240295D01*
X231579Y240274D01*
X231705Y240243D01*
X231801Y240238D01*
X231895Y240222D01*
X232025Y240224D01*
X232155Y240216D01*
X232250Y240227D01*
G37*
G36*
X68530Y172574D02*
X68530Y172574D01*
X68694Y172581D01*
X68753Y172594D01*
X68814Y172600D01*
X68973Y172643D01*
X69133Y172679D01*
X69190Y172702D01*
X69249Y172718D01*
X69397Y172789D01*
X69549Y172852D01*
X69600Y172885D01*
X69655Y172912D01*
X69789Y173007D01*
X69927Y173097D01*
X69985Y173148D01*
X70021Y173174D01*
X70064Y173217D01*
X70161Y173304D01*
X71155Y174297D01*
X71177Y174324D01*
X71203Y174347D01*
X71322Y174497D01*
X71444Y174643D01*
X71461Y174673D01*
X71483Y174700D01*
X71573Y174868D01*
X71667Y175034D01*
X71679Y175067D01*
X71695Y175097D01*
X71754Y175278D01*
X71818Y175458D01*
X71824Y175492D01*
X71835Y175525D01*
X71861Y175715D01*
X71892Y175902D01*
X71891Y175937D01*
X71896Y175971D01*
X71888Y176162D01*
X71886Y176353D01*
X71879Y176387D01*
X71878Y176421D01*
X71836Y176608D01*
X71800Y176795D01*
X71788Y176827D01*
X71780Y176861D01*
X71706Y177037D01*
X71638Y177215D01*
X71620Y177244D01*
X71606Y177276D01*
X71503Y177436D01*
X71404Y177599D01*
X71381Y177625D01*
X71362Y177654D01*
X71155Y177889D01*
X70675Y178368D01*
X70675Y187632D01*
X71748Y188704D01*
X71770Y188731D01*
X71796Y188754D01*
X71915Y188903D01*
X72037Y189050D01*
X72054Y189080D01*
X72076Y189107D01*
X72166Y189275D01*
X72260Y189441D01*
X72272Y189473D01*
X72288Y189504D01*
X72347Y189685D01*
X72411Y189865D01*
X72417Y189899D01*
X72428Y189932D01*
X72454Y190121D01*
X72485Y190309D01*
X72484Y190344D01*
X72489Y190378D01*
X72481Y190569D01*
X72479Y190760D01*
X72472Y190794D01*
X72471Y190828D01*
X72429Y191014D01*
X72393Y191202D01*
X72381Y191234D01*
X72373Y191268D01*
X72300Y191443D01*
X72231Y191622D01*
X72213Y191651D01*
X72199Y191683D01*
X72096Y191843D01*
X71997Y192006D01*
X71974Y192032D01*
X71955Y192061D01*
X71748Y192296D01*
X70675Y193368D01*
X70675Y202632D01*
X71448Y203404D01*
X71470Y203431D01*
X71496Y203454D01*
X71614Y203603D01*
X71737Y203750D01*
X71754Y203780D01*
X71776Y203807D01*
X71866Y203975D01*
X71960Y204141D01*
X71972Y204173D01*
X71988Y204204D01*
X72047Y204385D01*
X72111Y204565D01*
X72117Y204599D01*
X72128Y204632D01*
X72154Y204821D01*
X72185Y205009D01*
X72184Y205044D01*
X72189Y205078D01*
X72181Y205269D01*
X72179Y205460D01*
X72172Y205494D01*
X72171Y205528D01*
X72129Y205714D01*
X72093Y205902D01*
X72081Y205934D01*
X72073Y205968D01*
X72000Y206144D01*
X71931Y206322D01*
X71913Y206351D01*
X71899Y206383D01*
X71796Y206543D01*
X71697Y206706D01*
X71674Y206732D01*
X71655Y206761D01*
X71448Y206996D01*
X71175Y207268D01*
X71175Y214780D01*
X71169Y214845D01*
X71172Y214896D01*
X71159Y214991D01*
X71154Y215108D01*
X71141Y215167D01*
X71135Y215228D01*
X71118Y215290D01*
X71111Y215342D01*
X71081Y215436D01*
X71056Y215547D01*
X71033Y215604D01*
X71017Y215663D01*
X70990Y215719D01*
X70973Y215771D01*
X70910Y215898D01*
X70883Y215963D01*
X70860Y215998D01*
X70834Y216050D01*
X70825Y216066D01*
X70823Y216069D01*
X70822Y216071D01*
X70332Y216919D01*
X70159Y217565D01*
X70159Y218361D01*
X76200Y218361D01*
X88900Y218361D01*
X101600Y218361D01*
X101634Y218364D01*
X101669Y218362D01*
X101858Y218384D01*
X102048Y218400D01*
X102082Y218410D01*
X102116Y218414D01*
X102299Y218469D01*
X102483Y218519D01*
X102514Y218534D01*
X102547Y218544D01*
X102718Y218631D01*
X102889Y218712D01*
X102917Y218733D01*
X102948Y218748D01*
X103100Y218863D01*
X103255Y218975D01*
X103279Y218999D01*
X103307Y219020D01*
X103436Y219160D01*
X103569Y219297D01*
X103589Y219326D01*
X103612Y219351D01*
X103715Y219512D01*
X103821Y219670D01*
X103835Y219702D01*
X103854Y219731D01*
X103926Y219908D01*
X104004Y220082D01*
X104012Y220116D01*
X104025Y220148D01*
X104065Y220334D01*
X104110Y220519D01*
X104112Y220554D01*
X104120Y220588D01*
X104139Y220900D01*
X104136Y220935D01*
X104138Y220969D01*
X104116Y221159D01*
X104099Y221349D01*
X104090Y221382D01*
X104086Y221416D01*
X104031Y221599D01*
X103980Y221783D01*
X103966Y221814D01*
X103956Y221847D01*
X103869Y222018D01*
X103787Y222190D01*
X103767Y222218D01*
X103751Y222249D01*
X103636Y222401D01*
X103525Y222556D01*
X103500Y222580D01*
X103479Y222607D01*
X103339Y222737D01*
X103202Y222870D01*
X103174Y222889D01*
X103148Y222913D01*
X102987Y223015D01*
X102829Y223122D01*
X102798Y223136D01*
X102768Y223154D01*
X102592Y223227D01*
X102417Y223304D01*
X102384Y223312D01*
X102352Y223325D01*
X102165Y223366D01*
X101980Y223411D01*
X101946Y223413D01*
X101912Y223420D01*
X101600Y223439D01*
X88900Y223439D01*
X76200Y223439D01*
X70159Y223439D01*
X70159Y224234D01*
X70173Y224287D01*
X70175Y224298D01*
X70179Y224309D01*
X70214Y224521D01*
X70251Y224730D01*
X70251Y224742D01*
X70253Y224753D01*
X70250Y224968D01*
X70249Y225181D01*
X70247Y225192D01*
X70247Y225204D01*
X70206Y225413D01*
X70167Y225623D01*
X70163Y225634D01*
X70161Y225646D01*
X70084Y225845D01*
X70009Y226045D01*
X70003Y226055D01*
X69999Y226066D01*
X69888Y226249D01*
X69778Y226432D01*
X69771Y226441D01*
X69765Y226450D01*
X69624Y226610D01*
X69483Y226772D01*
X69474Y226779D01*
X69467Y226788D01*
X69301Y226919D01*
X69133Y227054D01*
X69122Y227060D01*
X69113Y227067D01*
X68926Y227167D01*
X68738Y227271D01*
X68727Y227274D01*
X68717Y227280D01*
X68514Y227346D01*
X68311Y227414D01*
X68299Y227415D01*
X68288Y227419D01*
X68077Y227448D01*
X67865Y227479D01*
X67854Y227479D01*
X67842Y227480D01*
X67628Y227472D01*
X67415Y227465D01*
X67404Y227463D01*
X67392Y227462D01*
X67184Y227416D01*
X66975Y227371D01*
X66964Y227367D01*
X66953Y227364D01*
X66756Y227282D01*
X66558Y227202D01*
X66548Y227195D01*
X66537Y227191D01*
X66357Y227075D01*
X66177Y226961D01*
X66169Y226953D01*
X66159Y226947D01*
X65925Y226740D01*
X44747Y205562D01*
X43253Y204943D01*
X37527Y204943D01*
X37444Y204936D01*
X37362Y204938D01*
X37221Y204916D01*
X37078Y204903D01*
X36998Y204881D01*
X36917Y204869D01*
X36782Y204822D01*
X36644Y204784D01*
X36570Y204749D01*
X36491Y204722D01*
X36366Y204652D01*
X36237Y204591D01*
X36170Y204543D01*
X36098Y204503D01*
X35987Y204412D01*
X35871Y204329D01*
X35814Y204270D01*
X35750Y204218D01*
X35657Y204109D01*
X35557Y204006D01*
X35511Y203938D01*
X35457Y203875D01*
X35385Y203752D01*
X35305Y203633D01*
X35272Y203558D01*
X35230Y203487D01*
X35181Y203352D01*
X35123Y203221D01*
X35103Y203141D01*
X35075Y203064D01*
X35050Y202923D01*
X35016Y202784D01*
X35011Y202702D01*
X34997Y202621D01*
X34997Y202477D01*
X34988Y202335D01*
X34998Y202253D01*
X34998Y202170D01*
X35024Y202030D01*
X35040Y201887D01*
X35064Y201808D01*
X35079Y201727D01*
X35159Y201495D01*
X35171Y201456D01*
X35176Y201447D01*
X35181Y201432D01*
X35565Y200505D01*
X35565Y197495D01*
X34413Y194715D01*
X32285Y192587D01*
X29289Y191346D01*
X29174Y191286D01*
X29054Y191234D01*
X28975Y191182D01*
X28890Y191137D01*
X28787Y191058D01*
X28679Y190986D01*
X28609Y190920D01*
X28534Y190862D01*
X28447Y190765D01*
X28353Y190675D01*
X28296Y190598D01*
X28232Y190527D01*
X28164Y190417D01*
X28087Y190312D01*
X28045Y190226D01*
X27994Y190145D01*
X27946Y190024D01*
X27889Y189908D01*
X27863Y189816D01*
X27828Y189727D01*
X27802Y189599D01*
X27766Y189474D01*
X27757Y189379D01*
X27738Y189286D01*
X27735Y189156D01*
X27722Y189026D01*
X27729Y188931D01*
X27727Y188836D01*
X27747Y188707D01*
X27757Y188577D01*
X27781Y188485D01*
X27796Y188391D01*
X27838Y188268D01*
X27871Y188142D01*
X27911Y188055D01*
X27942Y187965D01*
X28005Y187851D01*
X28060Y187733D01*
X28115Y187655D01*
X28161Y187572D01*
X28244Y187471D01*
X28318Y187364D01*
X28386Y187297D01*
X28447Y187223D01*
X28546Y187139D01*
X28638Y187047D01*
X28716Y186993D01*
X28789Y186931D01*
X28901Y186865D01*
X29008Y186791D01*
X29125Y186734D01*
X29178Y186703D01*
X29220Y186688D01*
X29289Y186654D01*
X32285Y185413D01*
X34413Y183285D01*
X35565Y180505D01*
X35565Y177495D01*
X34975Y176071D01*
X34950Y175992D01*
X34917Y175917D01*
X34883Y175778D01*
X34840Y175641D01*
X34830Y175560D01*
X34810Y175479D01*
X34801Y175337D01*
X34783Y175195D01*
X34787Y175112D01*
X34782Y175030D01*
X34799Y174888D01*
X34806Y174745D01*
X34825Y174665D01*
X34834Y174583D01*
X34876Y174446D01*
X34908Y174306D01*
X34941Y174231D01*
X34965Y174152D01*
X35030Y174024D01*
X35086Y173893D01*
X35132Y173824D01*
X35169Y173751D01*
X35256Y173637D01*
X35334Y173517D01*
X35391Y173457D01*
X35441Y173392D01*
X35546Y173295D01*
X35645Y173191D01*
X35712Y173143D01*
X35772Y173087D01*
X35893Y173010D01*
X36008Y172925D01*
X36082Y172889D01*
X36152Y172845D01*
X36285Y172790D01*
X36413Y172728D01*
X36492Y172705D01*
X36569Y172674D01*
X36709Y172644D01*
X36846Y172605D01*
X36928Y172596D01*
X37009Y172579D01*
X37255Y172564D01*
X37294Y172560D01*
X37305Y172561D01*
X37321Y172560D01*
X68366Y172560D01*
X68530Y172574D01*
G37*
G36*
X194369Y146429D02*
X194369Y146429D01*
X194560Y146432D01*
X194594Y146439D01*
X194628Y146440D01*
X194814Y146481D01*
X195002Y146518D01*
X195034Y146530D01*
X195068Y146538D01*
X195243Y146611D01*
X195422Y146680D01*
X195451Y146698D01*
X195483Y146711D01*
X195643Y146814D01*
X195806Y146914D01*
X195832Y146937D01*
X195861Y146956D01*
X196096Y147162D01*
X197458Y148525D01*
X200369Y148525D01*
X200403Y148528D01*
X200438Y148526D01*
X200627Y148548D01*
X200817Y148565D01*
X200851Y148574D01*
X200885Y148578D01*
X201068Y148633D01*
X201252Y148683D01*
X201283Y148698D01*
X201316Y148708D01*
X201487Y148795D01*
X201658Y148877D01*
X201686Y148897D01*
X201717Y148912D01*
X201869Y149028D01*
X202024Y149139D01*
X202048Y149164D01*
X202076Y149184D01*
X202205Y149324D01*
X202338Y149461D01*
X202358Y149490D01*
X202381Y149516D01*
X202484Y149677D01*
X202590Y149834D01*
X202604Y149866D01*
X202623Y149895D01*
X202695Y150072D01*
X202773Y150246D01*
X202781Y150280D01*
X202794Y150312D01*
X202834Y150499D01*
X202879Y150684D01*
X202881Y150718D01*
X202889Y150752D01*
X202908Y151064D01*
X202908Y157605D01*
X202905Y157640D01*
X202907Y157674D01*
X202885Y157864D01*
X202868Y158054D01*
X202859Y158087D01*
X202855Y158122D01*
X202800Y158305D01*
X202749Y158488D01*
X202735Y158519D01*
X202725Y158553D01*
X202638Y158723D01*
X202556Y158895D01*
X202536Y158923D01*
X202520Y158954D01*
X202405Y159106D01*
X202294Y159261D01*
X202269Y159285D01*
X202248Y159313D01*
X202108Y159442D01*
X201971Y159575D01*
X201943Y159594D01*
X201917Y159618D01*
X201756Y159720D01*
X201598Y159827D01*
X201567Y159841D01*
X201537Y159860D01*
X201361Y159932D01*
X201186Y160009D01*
X201153Y160017D01*
X201121Y160031D01*
X200934Y160071D01*
X200749Y160116D01*
X200715Y160118D01*
X200681Y160125D01*
X200369Y160145D01*
X197954Y160145D01*
X195913Y160990D01*
X195892Y161008D01*
X195790Y161066D01*
X195694Y161132D01*
X195555Y161200D01*
X195501Y161231D01*
X195467Y161243D01*
X195413Y161269D01*
X193636Y162005D01*
X190747Y164895D01*
X190128Y166389D01*
X190128Y167278D01*
X190125Y167313D01*
X190127Y167347D01*
X190105Y167537D01*
X190088Y167727D01*
X190079Y167760D01*
X190075Y167794D01*
X190020Y167977D01*
X189970Y168161D01*
X189955Y168192D01*
X189945Y168225D01*
X189858Y168396D01*
X189776Y168568D01*
X189756Y168596D01*
X189740Y168627D01*
X189625Y168779D01*
X189514Y168934D01*
X189489Y168958D01*
X189468Y168985D01*
X189328Y169115D01*
X189191Y169248D01*
X189163Y169267D01*
X189137Y169291D01*
X188976Y169393D01*
X188818Y169500D01*
X188787Y169514D01*
X188757Y169532D01*
X188581Y169605D01*
X188406Y169682D01*
X188373Y169690D01*
X188341Y169703D01*
X188154Y169744D01*
X187969Y169789D01*
X187935Y169791D01*
X187901Y169798D01*
X187589Y169817D01*
X184698Y169817D01*
X183335Y171180D01*
X183309Y171202D01*
X183286Y171228D01*
X183136Y171346D01*
X182990Y171469D01*
X182960Y171486D01*
X182933Y171507D01*
X182764Y171597D01*
X182599Y171692D01*
X182566Y171704D01*
X182536Y171720D01*
X182355Y171779D01*
X182175Y171843D01*
X182140Y171848D01*
X182108Y171859D01*
X181919Y171885D01*
X181730Y171916D01*
X181696Y171916D01*
X181661Y171920D01*
X181471Y171913D01*
X181280Y171910D01*
X181246Y171904D01*
X181212Y171902D01*
X181026Y171861D01*
X180838Y171825D01*
X180806Y171812D01*
X180772Y171805D01*
X180597Y171731D01*
X180418Y171662D01*
X180388Y171644D01*
X180357Y171631D01*
X180197Y171528D01*
X180033Y171428D01*
X180007Y171405D01*
X179978Y171387D01*
X179744Y171180D01*
X178382Y169817D01*
X171998Y169817D01*
X170665Y171150D01*
X170665Y191632D01*
X170662Y191666D01*
X170664Y191701D01*
X170642Y191890D01*
X170625Y192080D01*
X170616Y192114D01*
X170612Y192148D01*
X170557Y192331D01*
X170507Y192515D01*
X170492Y192546D01*
X170482Y192579D01*
X170395Y192750D01*
X170313Y192921D01*
X170293Y192949D01*
X170277Y192980D01*
X170162Y193132D01*
X170051Y193287D01*
X170026Y193312D01*
X170005Y193339D01*
X169865Y193468D01*
X169728Y193601D01*
X169700Y193621D01*
X169674Y193644D01*
X169513Y193747D01*
X169355Y193854D01*
X169324Y193868D01*
X169294Y193886D01*
X169118Y193959D01*
X168944Y194036D01*
X168910Y194044D01*
X168878Y194057D01*
X168691Y194097D01*
X168506Y194142D01*
X168472Y194145D01*
X168438Y194152D01*
X168126Y194171D01*
X165966Y194171D01*
X165802Y194157D01*
X165638Y194150D01*
X165578Y194137D01*
X165517Y194131D01*
X165358Y194088D01*
X165198Y194052D01*
X165142Y194029D01*
X165083Y194013D01*
X164934Y193942D01*
X164783Y193879D01*
X164731Y193845D01*
X164676Y193819D01*
X164543Y193724D01*
X164523Y193711D01*
X156191Y193711D01*
X155545Y194357D01*
X155445Y194441D01*
X155352Y194531D01*
X155273Y194585D01*
X155199Y194646D01*
X155087Y194711D01*
X154979Y194783D01*
X154891Y194822D01*
X154808Y194870D01*
X154686Y194913D01*
X154567Y194966D01*
X154474Y194988D01*
X154384Y195020D01*
X154256Y195042D01*
X154130Y195072D01*
X154034Y195078D01*
X153940Y195094D01*
X153810Y195092D01*
X153680Y195100D01*
X153585Y195089D01*
X153490Y195088D01*
X153362Y195063D01*
X153233Y195048D01*
X153141Y195020D01*
X153048Y195002D01*
X152927Y194955D01*
X152802Y194918D01*
X152717Y194874D01*
X152628Y194840D01*
X152517Y194772D01*
X152401Y194713D01*
X152325Y194656D01*
X152243Y194606D01*
X152145Y194520D01*
X152042Y194441D01*
X151977Y194371D01*
X151906Y194308D01*
X151825Y194206D01*
X151737Y194110D01*
X151685Y194030D01*
X151626Y193955D01*
X151565Y193840D01*
X151495Y193730D01*
X151459Y193642D01*
X151413Y193558D01*
X151373Y193434D01*
X151324Y193314D01*
X151304Y193220D01*
X151274Y193130D01*
X151257Y193001D01*
X151229Y192874D01*
X151221Y192744D01*
X151213Y192684D01*
X151215Y192639D01*
X151210Y192562D01*
X151210Y158400D01*
X151212Y158376D01*
X151210Y158353D01*
X151232Y158153D01*
X151250Y157951D01*
X151256Y157928D01*
X151259Y157905D01*
X151315Y157711D01*
X151368Y157517D01*
X151378Y157496D01*
X151385Y157473D01*
X151475Y157292D01*
X151562Y157110D01*
X151575Y157091D01*
X151586Y157070D01*
X151707Y156908D01*
X151824Y156744D01*
X151841Y156728D01*
X151855Y156709D01*
X152002Y156571D01*
X152147Y156430D01*
X152166Y156417D01*
X152183Y156401D01*
X152353Y156291D01*
X152520Y156178D01*
X152541Y156168D01*
X152561Y156156D01*
X152747Y156077D01*
X152931Y155996D01*
X152954Y155990D01*
X152976Y155981D01*
X153173Y155937D01*
X153369Y155889D01*
X153392Y155888D01*
X153415Y155882D01*
X153617Y155874D01*
X153818Y155861D01*
X153841Y155864D01*
X153865Y155863D01*
X154065Y155890D01*
X154266Y155913D01*
X154288Y155920D01*
X154311Y155923D01*
X154502Y155985D01*
X154697Y156044D01*
X154718Y156054D01*
X154740Y156061D01*
X154792Y156088D01*
X155496Y156276D01*
X157791Y156276D01*
X157791Y150236D01*
X157794Y150201D01*
X157792Y150167D01*
X157814Y149977D01*
X157831Y149787D01*
X157840Y149754D01*
X157844Y149720D01*
X157900Y149537D01*
X157950Y149353D01*
X157965Y149322D01*
X157975Y149289D01*
X158062Y149118D01*
X158143Y148946D01*
X158163Y148918D01*
X158179Y148887D01*
X158294Y148735D01*
X158405Y148580D01*
X158408Y148578D01*
X158430Y148556D01*
X158451Y148528D01*
X158452Y148528D01*
X158592Y148399D01*
X158728Y148266D01*
X158757Y148246D01*
X158783Y148223D01*
X158944Y148120D01*
X159102Y148014D01*
X159133Y148000D01*
X159162Y147981D01*
X159339Y147909D01*
X159513Y147831D01*
X159547Y147823D01*
X159579Y147810D01*
X159766Y147770D01*
X159951Y147725D01*
X159985Y147723D01*
X160019Y147715D01*
X160331Y147696D01*
X168796Y147696D01*
X168800Y147694D01*
X168915Y147633D01*
X169005Y147603D01*
X169093Y147565D01*
X169219Y147534D01*
X169343Y147494D01*
X169438Y147481D01*
X169530Y147458D01*
X169660Y147450D01*
X169789Y147432D01*
X169885Y147436D01*
X169980Y147430D01*
X170109Y147445D01*
X170239Y147451D01*
X170332Y147471D01*
X170427Y147482D01*
X170552Y147520D01*
X170678Y147548D01*
X170767Y147585D01*
X170858Y147613D01*
X170974Y147672D01*
X171094Y147722D01*
X171174Y147774D01*
X171259Y147817D01*
X171363Y147896D01*
X171472Y147966D01*
X171569Y148052D01*
X171618Y148089D01*
X171648Y148122D01*
X171706Y148173D01*
X172058Y148525D01*
X178442Y148525D01*
X179804Y147162D01*
X179831Y147140D01*
X179854Y147114D01*
X180003Y146996D01*
X180150Y146874D01*
X180180Y146856D01*
X180207Y146835D01*
X180375Y146745D01*
X180541Y146650D01*
X180573Y146639D01*
X180604Y146622D01*
X180785Y146563D01*
X180965Y146499D01*
X180999Y146494D01*
X181032Y146483D01*
X181221Y146457D01*
X181409Y146426D01*
X181444Y146426D01*
X181478Y146422D01*
X181669Y146429D01*
X181860Y146432D01*
X181894Y146439D01*
X181928Y146440D01*
X182114Y146481D01*
X182302Y146518D01*
X182334Y146530D01*
X182368Y146538D01*
X182543Y146611D01*
X182722Y146680D01*
X182751Y146698D01*
X182783Y146711D01*
X182943Y146814D01*
X183106Y146914D01*
X183132Y146937D01*
X183161Y146956D01*
X183396Y147162D01*
X184758Y148525D01*
X191142Y148525D01*
X192504Y147162D01*
X192531Y147140D01*
X192554Y147114D01*
X192703Y146996D01*
X192850Y146874D01*
X192880Y146856D01*
X192907Y146835D01*
X193075Y146745D01*
X193241Y146650D01*
X193273Y146639D01*
X193304Y146622D01*
X193485Y146563D01*
X193665Y146499D01*
X193699Y146494D01*
X193732Y146483D01*
X193921Y146457D01*
X194109Y146426D01*
X194144Y146426D01*
X194178Y146422D01*
X194369Y146429D01*
G37*
G36*
X124827Y355756D02*
X124827Y355756D01*
X124957Y355762D01*
X125050Y355782D01*
X125145Y355793D01*
X125269Y355831D01*
X125396Y355859D01*
X125484Y355896D01*
X125576Y355924D01*
X125692Y355983D01*
X125812Y356033D01*
X125892Y356085D01*
X125977Y356128D01*
X126081Y356207D01*
X126190Y356277D01*
X126287Y356363D01*
X126336Y356400D01*
X126366Y356433D01*
X126424Y356484D01*
X129254Y359315D01*
X129255Y359315D01*
X130755Y360815D01*
X132257Y361438D01*
X132323Y361443D01*
X132427Y361443D01*
X132547Y361463D01*
X132668Y361474D01*
X132769Y361502D01*
X132871Y361519D01*
X132985Y361561D01*
X133103Y361593D01*
X133196Y361637D01*
X133294Y361673D01*
X133400Y361734D01*
X133509Y361786D01*
X133594Y361847D01*
X133684Y361899D01*
X133777Y361977D01*
X133875Y362048D01*
X133948Y362123D01*
X134027Y362190D01*
X134105Y362284D01*
X134189Y362371D01*
X134248Y362457D01*
X134314Y362537D01*
X134373Y362643D01*
X134441Y362744D01*
X134484Y362839D01*
X134535Y362930D01*
X134574Y363045D01*
X134624Y363156D01*
X134648Y363257D01*
X134683Y363355D01*
X134702Y363475D01*
X134730Y363593D01*
X134737Y363697D01*
X134753Y363800D01*
X134751Y363921D01*
X134758Y364043D01*
X134746Y364146D01*
X134744Y364250D01*
X134720Y364369D01*
X134706Y364490D01*
X134676Y364589D01*
X134655Y364691D01*
X134611Y364804D01*
X134576Y364921D01*
X134528Y365014D01*
X134490Y365110D01*
X134426Y365214D01*
X134371Y365322D01*
X134308Y365405D01*
X134254Y365494D01*
X134173Y365584D01*
X134099Y365681D01*
X134023Y365751D01*
X133953Y365829D01*
X133813Y365944D01*
X133768Y365986D01*
X133745Y366001D01*
X133712Y366028D01*
X132581Y366850D01*
X131450Y367981D01*
X130510Y369275D01*
X129784Y370700D01*
X129341Y372061D01*
X139200Y372061D01*
X149059Y372061D01*
X148616Y370700D01*
X147890Y369275D01*
X146950Y367981D01*
X145819Y366850D01*
X144688Y366028D01*
X144609Y365959D01*
X144525Y365899D01*
X144440Y365812D01*
X144348Y365732D01*
X144283Y365651D01*
X144211Y365576D01*
X144143Y365475D01*
X144067Y365381D01*
X144017Y365289D01*
X143959Y365203D01*
X143909Y365092D01*
X143851Y364985D01*
X143819Y364887D01*
X143776Y364791D01*
X143748Y364673D01*
X143709Y364558D01*
X143694Y364455D01*
X143670Y364354D01*
X143662Y364232D01*
X143645Y364112D01*
X143648Y364008D01*
X143642Y363904D01*
X143656Y363784D01*
X143660Y363662D01*
X143682Y363561D01*
X143694Y363457D01*
X143729Y363341D01*
X143755Y363222D01*
X143794Y363126D01*
X143824Y363026D01*
X143880Y362918D01*
X143926Y362805D01*
X143982Y362718D01*
X144029Y362625D01*
X144102Y362528D01*
X144167Y362426D01*
X144238Y362349D01*
X144301Y362266D01*
X144390Y362184D01*
X144472Y362094D01*
X144555Y362032D01*
X144632Y361961D01*
X144734Y361896D01*
X144831Y361822D01*
X144924Y361775D01*
X145012Y361719D01*
X145124Y361673D01*
X145232Y361618D01*
X145332Y361588D01*
X145428Y361548D01*
X145547Y361523D01*
X145663Y361487D01*
X145767Y361475D01*
X145868Y361453D01*
X146050Y361442D01*
X146110Y361435D01*
X146138Y361437D01*
X146180Y361434D01*
X156694Y361434D01*
X156858Y361449D01*
X157022Y361455D01*
X157082Y361469D01*
X157143Y361474D01*
X157301Y361517D01*
X157462Y361553D01*
X157518Y361577D01*
X157577Y361593D01*
X157725Y361663D01*
X157877Y361727D01*
X157929Y361760D01*
X157984Y361786D01*
X158117Y361882D01*
X158255Y361971D01*
X158313Y362022D01*
X158350Y362048D01*
X158392Y362092D01*
X158490Y362178D01*
X159494Y363182D01*
X159516Y363209D01*
X159542Y363232D01*
X159660Y363381D01*
X159783Y363528D01*
X159800Y363558D01*
X159822Y363585D01*
X159911Y363753D01*
X160006Y363919D01*
X160018Y363951D01*
X160034Y363982D01*
X160093Y364163D01*
X160157Y364343D01*
X160163Y364377D01*
X160173Y364410D01*
X160200Y364599D01*
X160231Y364787D01*
X160230Y364822D01*
X160235Y364856D01*
X160227Y365047D01*
X160224Y365237D01*
X160218Y365271D01*
X160216Y365306D01*
X160175Y365492D01*
X160139Y365679D01*
X160126Y365712D01*
X160119Y365746D01*
X160045Y365922D01*
X159977Y366099D01*
X159959Y366129D01*
X159945Y366161D01*
X159842Y366321D01*
X159743Y366484D01*
X159720Y366510D01*
X159701Y366539D01*
X159494Y366773D01*
X156847Y369420D01*
X155455Y372781D01*
X155455Y376419D01*
X156847Y379780D01*
X159420Y382353D01*
X162781Y383745D01*
X166419Y383745D01*
X169713Y382380D01*
X169792Y382356D01*
X169867Y382322D01*
X170006Y382288D01*
X170143Y382245D01*
X170225Y382235D01*
X170305Y382216D01*
X170447Y382207D01*
X170589Y382189D01*
X170672Y382193D01*
X170754Y382188D01*
X170896Y382204D01*
X171039Y382212D01*
X171119Y382230D01*
X171201Y382240D01*
X171339Y382281D01*
X171478Y382314D01*
X171553Y382346D01*
X171632Y382370D01*
X171760Y382435D01*
X171891Y382492D01*
X171960Y382537D01*
X172033Y382575D01*
X172148Y382661D01*
X172267Y382740D01*
X172327Y382797D01*
X172392Y382847D01*
X172489Y382952D01*
X172593Y383051D01*
X172642Y383117D01*
X172697Y383178D01*
X172774Y383299D01*
X172859Y383414D01*
X172895Y383488D01*
X172939Y383558D01*
X172994Y383690D01*
X173056Y383819D01*
X173079Y383898D01*
X173110Y383974D01*
X173140Y384114D01*
X173179Y384252D01*
X173188Y384334D01*
X173205Y384414D01*
X173220Y384660D01*
X173224Y384700D01*
X173223Y384710D01*
X173224Y384726D01*
X173224Y388097D01*
X173709Y389268D01*
X173762Y389437D01*
X173822Y389605D01*
X173829Y389652D01*
X173844Y389697D01*
X173866Y389874D01*
X173895Y390049D01*
X173894Y390096D01*
X173900Y390144D01*
X173891Y390321D01*
X173889Y390499D01*
X173880Y390546D01*
X173877Y390593D01*
X173837Y390766D01*
X173803Y390941D01*
X173786Y390986D01*
X173775Y391032D01*
X173705Y391195D01*
X173641Y391361D01*
X173616Y391402D01*
X173597Y391446D01*
X173499Y391594D01*
X173407Y391746D01*
X173375Y391781D01*
X173349Y391821D01*
X173226Y391950D01*
X173109Y392083D01*
X173071Y392113D01*
X173038Y392147D01*
X172895Y392252D01*
X172756Y392363D01*
X172714Y392385D01*
X172675Y392413D01*
X172515Y392491D01*
X172359Y392575D01*
X172313Y392590D01*
X172270Y392611D01*
X172099Y392659D01*
X171930Y392714D01*
X171883Y392721D01*
X171837Y392734D01*
X171660Y392751D01*
X171484Y392776D01*
X171437Y392774D01*
X171389Y392778D01*
X171212Y392764D01*
X171034Y392757D01*
X170988Y392747D01*
X170940Y392743D01*
X170769Y392698D01*
X170595Y392660D01*
X170551Y392641D01*
X170505Y392629D01*
X170343Y392554D01*
X170180Y392486D01*
X170139Y392460D01*
X170096Y392440D01*
X169951Y392338D01*
X169865Y392282D01*
X166419Y390855D01*
X162781Y390855D01*
X159420Y392247D01*
X156847Y394820D01*
X155455Y398181D01*
X155455Y401819D01*
X156877Y405251D01*
X156940Y405454D01*
X157006Y405654D01*
X157007Y405667D01*
X157011Y405680D01*
X157038Y405891D01*
X157067Y406101D01*
X157067Y406114D01*
X157068Y406127D01*
X157057Y406338D01*
X157049Y406550D01*
X157046Y406563D01*
X157045Y406577D01*
X156998Y406781D01*
X156951Y406990D01*
X156946Y407002D01*
X156943Y407015D01*
X156859Y407209D01*
X156777Y407405D01*
X156770Y407417D01*
X156765Y407429D01*
X156648Y407605D01*
X156533Y407784D01*
X156523Y407795D01*
X156517Y407804D01*
X156490Y407833D01*
X156326Y408018D01*
X154541Y409803D01*
X154415Y409909D01*
X154294Y410020D01*
X154242Y410053D01*
X154196Y410092D01*
X154053Y410173D01*
X153914Y410262D01*
X153858Y410285D01*
X153805Y410315D01*
X153650Y410370D01*
X153498Y410433D01*
X153438Y410446D01*
X153380Y410466D01*
X153218Y410493D01*
X153057Y410528D01*
X152980Y410532D01*
X152936Y410540D01*
X152875Y410539D01*
X152745Y410547D01*
X147716Y410547D01*
X147586Y410535D01*
X147457Y410533D01*
X147363Y410515D01*
X147268Y410507D01*
X147142Y410473D01*
X147015Y410448D01*
X146925Y410413D01*
X146833Y410388D01*
X146716Y410332D01*
X146595Y410286D01*
X146513Y410236D01*
X146427Y410195D01*
X146321Y410119D01*
X146210Y410052D01*
X146138Y409988D01*
X146061Y409933D01*
X145970Y409840D01*
X145872Y409753D01*
X145813Y409679D01*
X145747Y409610D01*
X145674Y409502D01*
X145593Y409400D01*
X145548Y409316D01*
X145494Y409237D01*
X145442Y409118D01*
X145380Y409003D01*
X145351Y408913D01*
X145312Y408825D01*
X145281Y408699D01*
X145241Y408575D01*
X145228Y408480D01*
X145206Y408388D01*
X145198Y408258D01*
X145180Y408129D01*
X145184Y408034D01*
X145178Y407938D01*
X145193Y407809D01*
X145198Y407679D01*
X145219Y407586D01*
X145230Y407491D01*
X145268Y407367D01*
X145296Y407240D01*
X145333Y407152D01*
X145360Y407060D01*
X145419Y406944D01*
X145469Y406824D01*
X145521Y406744D01*
X145565Y406659D01*
X145643Y406555D01*
X145714Y406446D01*
X145800Y406349D01*
X145837Y406300D01*
X145870Y406270D01*
X145921Y406212D01*
X146953Y405180D01*
X148345Y401819D01*
X148345Y398181D01*
X146953Y394820D01*
X144380Y392247D01*
X141019Y390855D01*
X137381Y390855D01*
X134020Y392247D01*
X131396Y394871D01*
X131352Y394958D01*
X131344Y394969D01*
X131338Y394980D01*
X131207Y395149D01*
X131080Y395317D01*
X131070Y395326D01*
X131062Y395336D01*
X130904Y395479D01*
X130749Y395622D01*
X130738Y395629D01*
X130728Y395638D01*
X130548Y395750D01*
X130369Y395864D01*
X130357Y395869D01*
X130346Y395876D01*
X130149Y395954D01*
X129952Y396035D01*
X129940Y396038D01*
X129927Y396043D01*
X129721Y396085D01*
X129512Y396130D01*
X129496Y396131D01*
X129486Y396133D01*
X129447Y396134D01*
X129200Y396149D01*
X128428Y396149D01*
X128264Y396134D01*
X128100Y396128D01*
X128040Y396114D01*
X127979Y396109D01*
X127821Y396066D01*
X127660Y396030D01*
X127604Y396006D01*
X127545Y395990D01*
X127397Y395920D01*
X127245Y395856D01*
X127193Y395823D01*
X127138Y395797D01*
X127005Y395701D01*
X126867Y395612D01*
X126809Y395561D01*
X126772Y395535D01*
X126730Y395491D01*
X126632Y395405D01*
X122833Y391606D01*
X122727Y391479D01*
X122616Y391358D01*
X122583Y391307D01*
X122544Y391260D01*
X122462Y391118D01*
X122374Y390979D01*
X122351Y390922D01*
X122321Y390869D01*
X122266Y390714D01*
X122203Y390562D01*
X122190Y390503D01*
X122170Y390445D01*
X122143Y390283D01*
X122108Y390122D01*
X122104Y390045D01*
X122096Y390001D01*
X122097Y389940D01*
X122089Y389810D01*
X122089Y358280D01*
X122101Y358150D01*
X122102Y358020D01*
X122121Y357926D01*
X122129Y357831D01*
X122163Y357705D01*
X122188Y357578D01*
X122222Y357489D01*
X122248Y357397D01*
X122303Y357279D01*
X122350Y357158D01*
X122400Y357076D01*
X122441Y356990D01*
X122517Y356884D01*
X122584Y356773D01*
X122647Y356702D01*
X122703Y356624D01*
X122796Y356533D01*
X122882Y356436D01*
X122957Y356377D01*
X123026Y356310D01*
X123133Y356237D01*
X123236Y356156D01*
X123320Y356111D01*
X123399Y356058D01*
X123518Y356005D01*
X123632Y355944D01*
X123723Y355914D01*
X123811Y355876D01*
X123937Y355845D01*
X124061Y355805D01*
X124155Y355792D01*
X124248Y355769D01*
X124378Y355761D01*
X124507Y355743D01*
X124602Y355747D01*
X124697Y355741D01*
X124827Y355756D01*
G37*
G36*
X60347Y123079D02*
X60347Y123079D01*
X60512Y123086D01*
X60571Y123099D01*
X60632Y123105D01*
X60790Y123148D01*
X60951Y123184D01*
X61007Y123207D01*
X61066Y123223D01*
X61214Y123294D01*
X61367Y123357D01*
X61418Y123390D01*
X61473Y123417D01*
X61606Y123512D01*
X61745Y123602D01*
X61802Y123653D01*
X61839Y123679D01*
X61881Y123722D01*
X61979Y123809D01*
X62217Y124047D01*
X62308Y124156D01*
X62406Y124258D01*
X62452Y124328D01*
X62506Y124392D01*
X62576Y124515D01*
X62655Y124633D01*
X62688Y124710D01*
X62730Y124783D01*
X62777Y124917D01*
X62833Y125047D01*
X62852Y125129D01*
X62880Y125208D01*
X62903Y125347D01*
X62936Y125485D01*
X62940Y125569D01*
X62954Y125652D01*
X62952Y125794D01*
X62959Y125935D01*
X62949Y126018D01*
X62948Y126102D01*
X62921Y126241D01*
X62903Y126381D01*
X62878Y126462D01*
X62862Y126544D01*
X62811Y126676D01*
X62769Y126811D01*
X62730Y126886D01*
X62700Y126964D01*
X62626Y127085D01*
X62561Y127211D01*
X62509Y127277D01*
X62466Y127349D01*
X62372Y127455D01*
X62286Y127567D01*
X62223Y127623D01*
X62168Y127686D01*
X62057Y127774D01*
X61952Y127869D01*
X61859Y127930D01*
X61814Y127966D01*
X61769Y127990D01*
X61691Y128042D01*
X61410Y128204D01*
X60937Y128677D01*
X60602Y129256D01*
X60429Y129903D01*
X60429Y131198D01*
X67470Y131198D01*
X74511Y131198D01*
X74511Y129903D01*
X74338Y129256D01*
X74003Y128677D01*
X73751Y128425D01*
X73668Y128325D01*
X73577Y128232D01*
X73523Y128153D01*
X73462Y128080D01*
X73398Y127967D01*
X73325Y127859D01*
X73286Y127772D01*
X73239Y127689D01*
X73195Y127566D01*
X73143Y127447D01*
X73120Y127354D01*
X73088Y127265D01*
X73067Y127136D01*
X73036Y127010D01*
X73030Y126915D01*
X73015Y126820D01*
X73016Y126690D01*
X73008Y126560D01*
X73019Y126466D01*
X73021Y126370D01*
X73045Y126242D01*
X73060Y126113D01*
X73088Y126022D01*
X73106Y125928D01*
X73153Y125807D01*
X73191Y125682D01*
X73234Y125597D01*
X73268Y125508D01*
X73336Y125397D01*
X73395Y125281D01*
X73453Y125205D01*
X73502Y125123D01*
X73588Y125026D01*
X73667Y124922D01*
X73737Y124857D01*
X73801Y124786D01*
X73903Y124705D01*
X73998Y124617D01*
X74079Y124566D01*
X74154Y124506D01*
X74268Y124445D01*
X74378Y124375D01*
X74466Y124339D01*
X74550Y124294D01*
X74674Y124254D01*
X74794Y124204D01*
X74888Y124184D01*
X74979Y124155D01*
X75107Y124137D01*
X75235Y124109D01*
X75365Y124101D01*
X75425Y124093D01*
X75469Y124095D01*
X75547Y124090D01*
X79541Y124090D01*
X79615Y124032D01*
X79761Y123909D01*
X79791Y123892D01*
X79818Y123871D01*
X79987Y123780D01*
X80152Y123686D01*
X80184Y123674D01*
X80215Y123658D01*
X80397Y123599D01*
X80576Y123535D01*
X80610Y123530D01*
X80643Y123519D01*
X80833Y123493D01*
X81020Y123462D01*
X81055Y123462D01*
X81089Y123457D01*
X81280Y123465D01*
X81471Y123468D01*
X81505Y123474D01*
X81539Y123476D01*
X81725Y123517D01*
X81913Y123553D01*
X81945Y123566D01*
X81979Y123573D01*
X82155Y123647D01*
X82333Y123716D01*
X82362Y123734D01*
X82394Y123747D01*
X82554Y123850D01*
X82717Y123950D01*
X82743Y123972D01*
X82773Y123991D01*
X82857Y124066D01*
X83867Y124066D01*
X83902Y124069D01*
X83936Y124067D01*
X84126Y124089D01*
X84316Y124106D01*
X84349Y124115D01*
X84384Y124119D01*
X84567Y124174D01*
X84750Y124224D01*
X84781Y124239D01*
X84815Y124249D01*
X84985Y124336D01*
X85157Y124417D01*
X85185Y124438D01*
X85216Y124453D01*
X85368Y124569D01*
X85523Y124680D01*
X85547Y124704D01*
X85575Y124725D01*
X85704Y124865D01*
X85837Y125002D01*
X85856Y125031D01*
X85880Y125056D01*
X85982Y125217D01*
X86089Y125375D01*
X86103Y125407D01*
X86122Y125436D01*
X86194Y125613D01*
X86271Y125787D01*
X86279Y125821D01*
X86293Y125853D01*
X86333Y126039D01*
X86378Y126225D01*
X86380Y126259D01*
X86387Y126293D01*
X86406Y126605D01*
X86406Y140181D01*
X86399Y140263D01*
X86401Y140345D01*
X86379Y140487D01*
X86367Y140629D01*
X86345Y140709D01*
X86332Y140790D01*
X86286Y140925D01*
X86248Y141064D01*
X86213Y141138D01*
X86186Y141216D01*
X86116Y141341D01*
X86055Y141470D01*
X86007Y141537D01*
X85967Y141609D01*
X85876Y141720D01*
X85793Y141836D01*
X85733Y141894D01*
X85681Y141958D01*
X85573Y142051D01*
X85470Y142151D01*
X85402Y142197D01*
X85339Y142250D01*
X85215Y142322D01*
X85097Y142403D01*
X85021Y142436D01*
X84950Y142478D01*
X84816Y142527D01*
X84685Y142585D01*
X84605Y142604D01*
X84528Y142633D01*
X84387Y142658D01*
X84248Y142691D01*
X84165Y142697D01*
X84084Y142711D01*
X83941Y142710D01*
X83798Y142719D01*
X83716Y142710D01*
X83634Y142709D01*
X83493Y142684D01*
X83351Y142667D01*
X83272Y142643D01*
X83191Y142628D01*
X82958Y142548D01*
X82940Y142543D01*
X77384Y142543D01*
X77009Y142698D01*
X76942Y142719D01*
X76877Y142749D01*
X76727Y142787D01*
X76580Y142833D01*
X76509Y142842D01*
X76440Y142859D01*
X76286Y142870D01*
X76133Y142890D01*
X76062Y142886D01*
X75991Y142891D01*
X75838Y142875D01*
X75683Y142867D01*
X75614Y142851D01*
X75544Y142843D01*
X75396Y142800D01*
X75245Y142765D01*
X75179Y142736D01*
X75111Y142717D01*
X74973Y142648D01*
X74831Y142587D01*
X74772Y142547D01*
X74708Y142516D01*
X74584Y142424D01*
X74455Y142338D01*
X74404Y142289D01*
X74347Y142247D01*
X74241Y142134D01*
X74129Y142028D01*
X74088Y141971D01*
X74039Y141919D01*
X73955Y141789D01*
X73863Y141664D01*
X73832Y141601D01*
X73794Y141541D01*
X73734Y141399D01*
X73666Y141260D01*
X73646Y141192D01*
X73619Y141126D01*
X73585Y140975D01*
X73543Y140827D01*
X73536Y140756D01*
X73520Y140687D01*
X73514Y140532D01*
X73498Y140379D01*
X73504Y140308D01*
X73501Y140237D01*
X73521Y140084D01*
X73534Y139930D01*
X73551Y139861D01*
X73561Y139791D01*
X73608Y139644D01*
X73647Y139494D01*
X73677Y139430D01*
X73699Y139362D01*
X73833Y139092D01*
X73837Y139085D01*
X73837Y139084D01*
X73838Y139083D01*
X74338Y138218D01*
X74511Y137572D01*
X74511Y136276D01*
X67470Y136276D01*
X60429Y136276D01*
X60429Y137572D01*
X60602Y138218D01*
X60937Y138797D01*
X61300Y139160D01*
X61322Y139187D01*
X61348Y139210D01*
X61466Y139359D01*
X61589Y139505D01*
X61606Y139536D01*
X61627Y139563D01*
X61717Y139731D01*
X61812Y139896D01*
X61824Y139929D01*
X61840Y139960D01*
X61899Y140141D01*
X61963Y140321D01*
X61968Y140355D01*
X61979Y140388D01*
X62005Y140576D01*
X62036Y140765D01*
X62036Y140800D01*
X62041Y140834D01*
X62033Y141023D01*
X62030Y141215D01*
X62024Y141249D01*
X62022Y141284D01*
X61981Y141469D01*
X61945Y141657D01*
X61932Y141689D01*
X61925Y141723D01*
X61851Y141899D01*
X61782Y142077D01*
X61764Y142107D01*
X61751Y142139D01*
X61647Y142299D01*
X61548Y142462D01*
X61525Y142488D01*
X61507Y142517D01*
X61445Y142586D01*
X61445Y142598D01*
X61442Y142632D01*
X61444Y142667D01*
X61422Y142856D01*
X61405Y143046D01*
X61396Y143080D01*
X61392Y143114D01*
X61337Y143297D01*
X61287Y143481D01*
X61272Y143512D01*
X61262Y143545D01*
X61175Y143716D01*
X61093Y143887D01*
X61073Y143916D01*
X61058Y143946D01*
X60942Y144098D01*
X60831Y144254D01*
X60806Y144278D01*
X60786Y144305D01*
X60645Y144434D01*
X60509Y144568D01*
X60480Y144587D01*
X60454Y144610D01*
X60293Y144713D01*
X60136Y144820D01*
X60104Y144834D01*
X60075Y144852D01*
X59898Y144925D01*
X59724Y145002D01*
X59690Y145010D01*
X59658Y145023D01*
X59471Y145063D01*
X59286Y145109D01*
X59252Y145111D01*
X59218Y145118D01*
X58906Y145137D01*
X38523Y145137D01*
X38315Y145119D01*
X38109Y145103D01*
X38092Y145099D01*
X38075Y145097D01*
X37874Y145042D01*
X37673Y144991D01*
X37657Y144983D01*
X37640Y144979D01*
X37454Y144890D01*
X37264Y144803D01*
X37249Y144793D01*
X37234Y144785D01*
X37066Y144665D01*
X36894Y144546D01*
X36882Y144533D01*
X36868Y144523D01*
X36723Y144375D01*
X36576Y144227D01*
X36566Y144213D01*
X36554Y144201D01*
X36438Y144029D01*
X36319Y143858D01*
X36311Y143842D01*
X36301Y143827D01*
X36218Y143638D01*
X36131Y143449D01*
X36126Y143432D01*
X36119Y143416D01*
X36070Y143214D01*
X36018Y143013D01*
X36017Y142995D01*
X36013Y142978D01*
X36000Y142772D01*
X35984Y142564D01*
X35986Y142546D01*
X35985Y142529D01*
X36009Y142322D01*
X36030Y142116D01*
X36035Y142096D01*
X36037Y142082D01*
X36051Y142037D01*
X36108Y141813D01*
X36197Y141539D01*
X28000Y141539D01*
X27966Y141536D01*
X27931Y141538D01*
X27742Y141516D01*
X27552Y141499D01*
X27518Y141490D01*
X27484Y141486D01*
X27301Y141431D01*
X27117Y141381D01*
X27086Y141366D01*
X27053Y141356D01*
X26882Y141269D01*
X26711Y141188D01*
X26683Y141167D01*
X26652Y141152D01*
X26500Y141036D01*
X26345Y140925D01*
X26321Y140901D01*
X26293Y140880D01*
X26164Y140740D01*
X26031Y140603D01*
X26011Y140574D01*
X25988Y140549D01*
X25885Y140388D01*
X25779Y140230D01*
X25765Y140198D01*
X25746Y140169D01*
X25674Y139992D01*
X25596Y139818D01*
X25588Y139784D01*
X25575Y139752D01*
X25535Y139566D01*
X25490Y139380D01*
X25488Y139346D01*
X25480Y139312D01*
X25461Y139000D01*
X25464Y138965D01*
X25462Y138931D01*
X25484Y138741D01*
X25501Y138551D01*
X25510Y138518D01*
X25514Y138484D01*
X25569Y138301D01*
X25620Y138117D01*
X25634Y138086D01*
X25644Y138053D01*
X25731Y137882D01*
X25813Y137710D01*
X25833Y137682D01*
X25849Y137651D01*
X25964Y137499D01*
X26075Y137344D01*
X26100Y137320D01*
X26121Y137292D01*
X26261Y137163D01*
X26398Y137030D01*
X26426Y137011D01*
X26452Y136987D01*
X26613Y136885D01*
X26771Y136778D01*
X26802Y136764D01*
X26832Y136745D01*
X27008Y136673D01*
X27183Y136596D01*
X27216Y136588D01*
X27248Y136575D01*
X27435Y136534D01*
X27620Y136489D01*
X27654Y136487D01*
X27688Y136480D01*
X28000Y136461D01*
X36197Y136461D01*
X35952Y135706D01*
X35339Y134503D01*
X34545Y133410D01*
X33590Y132455D01*
X32497Y131661D01*
X31294Y131048D01*
X30772Y130878D01*
X30768Y130877D01*
X30764Y130876D01*
X30560Y130788D01*
X30358Y130702D01*
X30354Y130699D01*
X30350Y130698D01*
X30162Y130574D01*
X29981Y130455D01*
X29978Y130452D01*
X29974Y130449D01*
X29812Y130295D01*
X29654Y130145D01*
X29652Y130142D01*
X29648Y130139D01*
X29518Y129960D01*
X29387Y129783D01*
X29385Y129779D01*
X29383Y129775D01*
X29285Y129576D01*
X29188Y129379D01*
X29187Y129375D01*
X29185Y129371D01*
X29125Y129159D01*
X29064Y128946D01*
X29063Y128942D01*
X29062Y128938D01*
X29040Y128714D01*
X29017Y128498D01*
X29018Y128494D01*
X29017Y128490D01*
X29035Y128263D01*
X29051Y128049D01*
X29052Y128045D01*
X29053Y128041D01*
X29107Y127831D01*
X29164Y127613D01*
X29166Y127609D01*
X29167Y127605D01*
X29258Y127407D01*
X29351Y127204D01*
X29354Y127201D01*
X29356Y127197D01*
X29483Y127015D01*
X29609Y126834D01*
X29612Y126831D01*
X29614Y126828D01*
X29769Y126674D01*
X29927Y126516D01*
X29930Y126513D01*
X29933Y126510D01*
X30113Y126387D01*
X30296Y126259D01*
X30300Y126257D01*
X30304Y126254D01*
X30585Y126117D01*
X32285Y125413D01*
X33890Y123808D01*
X34016Y123703D01*
X34137Y123591D01*
X34188Y123559D01*
X34235Y123520D01*
X34378Y123438D01*
X34517Y123350D01*
X34573Y123326D01*
X34626Y123296D01*
X34781Y123241D01*
X34933Y123179D01*
X34993Y123166D01*
X35050Y123145D01*
X35212Y123119D01*
X35373Y123084D01*
X35450Y123079D01*
X35494Y123072D01*
X35555Y123073D01*
X35685Y123065D01*
X60183Y123065D01*
X60347Y123079D01*
G37*
G36*
X123835Y10926D02*
X123835Y10926D01*
X123869Y10924D01*
X124058Y10946D01*
X124249Y10963D01*
X124282Y10972D01*
X124316Y10976D01*
X124498Y11031D01*
X124683Y11081D01*
X124714Y11096D01*
X124747Y11106D01*
X124918Y11193D01*
X125090Y11275D01*
X125118Y11295D01*
X125149Y11310D01*
X125301Y11426D01*
X125456Y11537D01*
X125480Y11562D01*
X125507Y11582D01*
X125636Y11723D01*
X125770Y11859D01*
X125789Y11888D01*
X125813Y11914D01*
X125915Y12074D01*
X126022Y12232D01*
X126036Y12264D01*
X126054Y12293D01*
X126127Y12470D01*
X126204Y12644D01*
X126212Y12678D01*
X126225Y12710D01*
X126265Y12897D01*
X126311Y13082D01*
X126313Y13116D01*
X126320Y13150D01*
X126339Y13462D01*
X126339Y17461D01*
X136500Y17461D01*
X146661Y17461D01*
X146661Y13462D01*
X146664Y13428D01*
X146662Y13393D01*
X146684Y13203D01*
X146701Y13013D01*
X146710Y12980D01*
X146714Y12946D01*
X146769Y12762D01*
X146819Y12579D01*
X146834Y12548D01*
X146844Y12515D01*
X146931Y12345D01*
X147013Y12172D01*
X147033Y12144D01*
X147048Y12113D01*
X147164Y11961D01*
X147275Y11806D01*
X147299Y11782D01*
X147320Y11755D01*
X147461Y11625D01*
X147597Y11492D01*
X147626Y11473D01*
X147652Y11449D01*
X147813Y11347D01*
X147970Y11240D01*
X148002Y11226D01*
X148031Y11208D01*
X148208Y11135D01*
X148382Y11058D01*
X148416Y11050D01*
X148448Y11037D01*
X148635Y10996D01*
X148820Y10951D01*
X148854Y10949D01*
X148888Y10942D01*
X149200Y10923D01*
X150216Y10923D01*
X150251Y10926D01*
X150285Y10924D01*
X150474Y10946D01*
X150665Y10963D01*
X150698Y10972D01*
X150732Y10976D01*
X150915Y11031D01*
X151099Y11081D01*
X151130Y11096D01*
X151163Y11106D01*
X151334Y11193D01*
X151506Y11275D01*
X151534Y11295D01*
X151565Y11310D01*
X151717Y11426D01*
X151872Y11537D01*
X151896Y11562D01*
X151923Y11582D01*
X152052Y11722D01*
X152186Y11859D01*
X152205Y11888D01*
X152229Y11914D01*
X152331Y12075D01*
X152438Y12232D01*
X152452Y12264D01*
X152470Y12293D01*
X152543Y12470D01*
X152620Y12644D01*
X152628Y12678D01*
X152641Y12710D01*
X152681Y12897D01*
X152727Y13082D01*
X152729Y13116D01*
X152736Y13150D01*
X152755Y13462D01*
X152755Y29439D01*
X154147Y32800D01*
X156720Y35373D01*
X156743Y35382D01*
X156901Y35465D01*
X157061Y35541D01*
X157100Y35569D01*
X157142Y35591D01*
X157283Y35700D01*
X157427Y35803D01*
X157461Y35837D01*
X157498Y35866D01*
X157617Y35998D01*
X157741Y36126D01*
X157768Y36165D01*
X157800Y36201D01*
X157894Y36351D01*
X157993Y36499D01*
X158013Y36542D01*
X158038Y36583D01*
X158104Y36748D01*
X158176Y36910D01*
X158187Y36957D01*
X158205Y37001D01*
X158240Y37176D01*
X158282Y37348D01*
X158285Y37395D01*
X158295Y37442D01*
X158299Y37620D01*
X158310Y37797D01*
X158304Y37845D01*
X158306Y37893D01*
X158278Y38068D01*
X158258Y38245D01*
X158244Y38290D01*
X158237Y38338D01*
X158179Y38505D01*
X158128Y38676D01*
X158106Y38718D01*
X158090Y38763D01*
X158004Y38918D01*
X157923Y39077D01*
X157894Y39115D01*
X157871Y39157D01*
X157758Y39294D01*
X157651Y39436D01*
X157616Y39468D01*
X157586Y39505D01*
X157451Y39620D01*
X157320Y39741D01*
X157280Y39766D01*
X157243Y39797D01*
X157090Y39887D01*
X156940Y39983D01*
X156896Y40001D01*
X156855Y40025D01*
X156688Y40086D01*
X156524Y40154D01*
X156477Y40164D01*
X156432Y40180D01*
X156257Y40211D01*
X156084Y40248D01*
X156024Y40252D01*
X155989Y40258D01*
X155926Y40258D01*
X155772Y40267D01*
X153625Y40267D01*
X152978Y40441D01*
X152399Y40775D01*
X151926Y41248D01*
X151592Y41827D01*
X151418Y42474D01*
X151418Y43769D01*
X158459Y43769D01*
X158493Y43772D01*
X158528Y43770D01*
X158717Y43792D01*
X158907Y43809D01*
X158941Y43818D01*
X158975Y43822D01*
X159158Y43877D01*
X159342Y43927D01*
X159373Y43942D01*
X159406Y43952D01*
X159577Y44039D01*
X159748Y44121D01*
X159776Y44141D01*
X159807Y44156D01*
X159959Y44272D01*
X160114Y44383D01*
X160139Y44408D01*
X160166Y44428D01*
X160295Y44569D01*
X160428Y44705D01*
X160448Y44734D01*
X160471Y44760D01*
X160574Y44921D01*
X160681Y45078D01*
X160695Y45110D01*
X160713Y45139D01*
X160786Y45316D01*
X160863Y45490D01*
X160871Y45524D01*
X160884Y45556D01*
X160924Y45743D01*
X160969Y45928D01*
X160972Y45962D01*
X160979Y45996D01*
X160998Y46308D01*
X160995Y46343D01*
X160997Y46377D01*
X160975Y46567D01*
X160958Y46757D01*
X160949Y46790D01*
X160945Y46825D01*
X160890Y47008D01*
X160840Y47191D01*
X160825Y47222D01*
X160815Y47256D01*
X160728Y47426D01*
X160646Y47598D01*
X160626Y47626D01*
X160610Y47657D01*
X160495Y47809D01*
X160384Y47964D01*
X160359Y47988D01*
X160338Y48016D01*
X160198Y48145D01*
X160061Y48278D01*
X160033Y48297D01*
X160007Y48321D01*
X159846Y48423D01*
X159688Y48530D01*
X159657Y48544D01*
X159627Y48563D01*
X159451Y48635D01*
X159277Y48712D01*
X159243Y48721D01*
X159211Y48734D01*
X159024Y48774D01*
X158839Y48819D01*
X158805Y48821D01*
X158771Y48828D01*
X158459Y48848D01*
X151418Y48848D01*
X151418Y50143D01*
X151592Y50789D01*
X151926Y51368D01*
X152289Y51731D01*
X152311Y51758D01*
X152337Y51781D01*
X152455Y51930D01*
X152578Y52076D01*
X152595Y52107D01*
X152616Y52134D01*
X152707Y52302D01*
X152801Y52467D01*
X152813Y52500D01*
X152829Y52531D01*
X152888Y52712D01*
X152952Y52892D01*
X152958Y52926D01*
X152968Y52959D01*
X152994Y53148D01*
X153025Y53336D01*
X153025Y53370D01*
X153030Y53405D01*
X153022Y53596D01*
X153019Y53786D01*
X153013Y53820D01*
X153011Y53855D01*
X152970Y54041D01*
X152934Y54228D01*
X152921Y54261D01*
X152914Y54294D01*
X152840Y54470D01*
X152772Y54648D01*
X152754Y54678D01*
X152740Y54710D01*
X152637Y54870D01*
X152538Y55033D01*
X152515Y55059D01*
X152496Y55088D01*
X152434Y55158D01*
X152434Y57768D01*
X152423Y57897D01*
X152421Y58027D01*
X152403Y58121D01*
X152394Y58216D01*
X152360Y58342D01*
X152336Y58469D01*
X152301Y58559D01*
X152276Y58651D01*
X152220Y58768D01*
X152173Y58889D01*
X152124Y58971D01*
X152083Y59057D01*
X152007Y59163D01*
X151939Y59274D01*
X151876Y59346D01*
X151820Y59423D01*
X151727Y59514D01*
X151641Y59612D01*
X151566Y59671D01*
X151498Y59737D01*
X151390Y59810D01*
X151288Y59891D01*
X151204Y59936D01*
X151125Y59990D01*
X151006Y60042D01*
X150891Y60104D01*
X150800Y60133D01*
X150713Y60172D01*
X150586Y60203D01*
X150463Y60243D01*
X150368Y60256D01*
X150275Y60278D01*
X150146Y60286D01*
X150017Y60304D01*
X149921Y60300D01*
X149826Y60306D01*
X149697Y60291D01*
X149567Y60286D01*
X149474Y60265D01*
X149379Y60254D01*
X149254Y60216D01*
X149127Y60188D01*
X149039Y60151D01*
X148948Y60124D01*
X148832Y60065D01*
X148712Y60015D01*
X148632Y59963D01*
X148547Y59919D01*
X148443Y59841D01*
X148334Y59770D01*
X148236Y59684D01*
X148188Y59647D01*
X148158Y59615D01*
X148100Y59563D01*
X141995Y53459D01*
X139780Y51244D01*
X138189Y50585D01*
X138001Y50486D01*
X137812Y50390D01*
X137801Y50382D01*
X137790Y50376D01*
X137620Y50245D01*
X137453Y50118D01*
X137444Y50108D01*
X137434Y50100D01*
X137291Y49943D01*
X137148Y49787D01*
X137141Y49776D01*
X137132Y49766D01*
X137021Y49587D01*
X136906Y49407D01*
X136901Y49395D01*
X136894Y49384D01*
X136816Y49186D01*
X136735Y48991D01*
X136732Y48978D01*
X136727Y48965D01*
X136685Y48757D01*
X136640Y48550D01*
X136639Y48535D01*
X136637Y48524D01*
X136636Y48485D01*
X136621Y48239D01*
X136621Y45654D01*
X130581Y45654D01*
X130546Y45651D01*
X130512Y45653D01*
X130322Y45631D01*
X130132Y45614D01*
X130099Y45605D01*
X130065Y45601D01*
X129882Y45545D01*
X129698Y45495D01*
X129667Y45480D01*
X129634Y45470D01*
X129463Y45384D01*
X129291Y45302D01*
X129263Y45282D01*
X129232Y45266D01*
X129080Y45151D01*
X128925Y45040D01*
X128901Y45015D01*
X128873Y44994D01*
X128744Y44854D01*
X128611Y44717D01*
X128592Y44688D01*
X128568Y44663D01*
X128466Y44502D01*
X128359Y44344D01*
X128345Y44312D01*
X128326Y44283D01*
X128254Y44107D01*
X128177Y43932D01*
X128169Y43899D01*
X128156Y43867D01*
X128115Y43680D01*
X128070Y43495D01*
X128068Y43460D01*
X128061Y43426D01*
X128042Y43114D01*
X128045Y43080D01*
X128043Y43045D01*
X128065Y42856D01*
X128081Y42666D01*
X128091Y42632D01*
X128095Y42598D01*
X128150Y42415D01*
X128200Y42231D01*
X128215Y42200D01*
X128225Y42167D01*
X128312Y41996D01*
X128393Y41825D01*
X128414Y41797D01*
X128429Y41766D01*
X128544Y41614D01*
X128656Y41459D01*
X128680Y41434D01*
X128701Y41407D01*
X128841Y41278D01*
X128978Y41145D01*
X129007Y41125D01*
X129032Y41102D01*
X129193Y40999D01*
X129351Y40892D01*
X129383Y40878D01*
X129412Y40860D01*
X129589Y40787D01*
X129763Y40710D01*
X129797Y40702D01*
X129829Y40689D01*
X130015Y40649D01*
X130200Y40604D01*
X130235Y40601D01*
X130269Y40594D01*
X130581Y40575D01*
X136621Y40575D01*
X136621Y40057D01*
X136627Y39996D01*
X136624Y39936D01*
X136647Y39773D01*
X136661Y39608D01*
X136677Y39550D01*
X136685Y39490D01*
X136736Y39333D01*
X136780Y39174D01*
X136806Y39119D01*
X136825Y39061D01*
X136902Y38916D01*
X136973Y38767D01*
X137008Y38718D01*
X137037Y38664D01*
X137139Y38535D01*
X137235Y38401D01*
X137279Y38359D01*
X137316Y38311D01*
X137440Y38202D01*
X137558Y38087D01*
X137608Y38053D01*
X137654Y38013D01*
X137795Y37927D01*
X137931Y37835D01*
X137986Y37811D01*
X138038Y37779D01*
X138192Y37720D01*
X138343Y37653D01*
X138402Y37639D01*
X138458Y37617D01*
X138763Y37549D01*
X138879Y37531D01*
X140400Y37036D01*
X141825Y36310D01*
X143119Y35370D01*
X144250Y34239D01*
X145190Y32945D01*
X145916Y31520D01*
X146411Y29999D01*
X146661Y28420D01*
X146661Y22539D01*
X136500Y22539D01*
X126339Y22539D01*
X126339Y28420D01*
X126589Y29999D01*
X127084Y31520D01*
X127661Y32653D01*
X127689Y32723D01*
X127725Y32789D01*
X127765Y32909D01*
X127787Y32958D01*
X127792Y32980D01*
X127829Y33071D01*
X127844Y33145D01*
X127868Y33216D01*
X127890Y33364D01*
X127920Y33512D01*
X127923Y33587D01*
X127933Y33661D01*
X127929Y33811D01*
X127933Y33962D01*
X127922Y34036D01*
X127919Y34111D01*
X127888Y34258D01*
X127865Y34407D01*
X127841Y34478D01*
X127826Y34552D01*
X127769Y34691D01*
X127720Y34833D01*
X127684Y34899D01*
X127656Y34969D01*
X127575Y35096D01*
X127502Y35227D01*
X127455Y35286D01*
X127415Y35349D01*
X127313Y35460D01*
X127218Y35577D01*
X127161Y35626D01*
X127111Y35681D01*
X126991Y35772D01*
X126877Y35870D01*
X126812Y35908D01*
X126753Y35954D01*
X126618Y36023D01*
X126489Y36099D01*
X126419Y36125D01*
X126352Y36159D01*
X126112Y36240D01*
X125520Y36581D01*
X125158Y36944D01*
X125131Y36966D01*
X125108Y36992D01*
X124959Y37110D01*
X124812Y37233D01*
X124782Y37250D01*
X124755Y37272D01*
X124587Y37362D01*
X124421Y37456D01*
X124389Y37468D01*
X124358Y37484D01*
X124176Y37543D01*
X123997Y37607D01*
X123963Y37613D01*
X123930Y37624D01*
X123741Y37650D01*
X123553Y37681D01*
X123518Y37680D01*
X123484Y37685D01*
X123294Y37677D01*
X123103Y37675D01*
X123068Y37668D01*
X123034Y37667D01*
X122848Y37625D01*
X122660Y37589D01*
X122628Y37577D01*
X122594Y37569D01*
X122418Y37495D01*
X122240Y37427D01*
X122211Y37409D01*
X122179Y37395D01*
X122019Y37292D01*
X121856Y37193D01*
X121830Y37170D01*
X121801Y37151D01*
X121711Y37072D01*
X121620Y37068D01*
X121560Y37055D01*
X121500Y37050D01*
X121341Y37006D01*
X121180Y36971D01*
X121124Y36947D01*
X121065Y36931D01*
X120917Y36861D01*
X120765Y36797D01*
X120713Y36764D01*
X120659Y36738D01*
X120525Y36642D01*
X120387Y36553D01*
X120329Y36502D01*
X120292Y36476D01*
X120250Y36432D01*
X120153Y36346D01*
X119394Y35588D01*
X119258Y35425D01*
X119121Y35264D01*
X119114Y35253D01*
X119106Y35242D01*
X119001Y35060D01*
X118893Y34875D01*
X118889Y34863D01*
X118882Y34851D01*
X118812Y34653D01*
X118738Y34453D01*
X118736Y34440D01*
X118731Y34427D01*
X118697Y34218D01*
X118660Y34009D01*
X118660Y33996D01*
X118658Y33983D01*
X118661Y33769D01*
X118661Y33746D01*
X118658Y33707D01*
X118661Y33684D01*
X118661Y33559D01*
X118664Y33546D01*
X118664Y33533D01*
X118701Y33342D01*
X118711Y33260D01*
X118725Y33213D01*
X118742Y33116D01*
X118748Y33101D01*
X118750Y33091D01*
X118764Y33054D01*
X118838Y32838D01*
X118841Y32829D01*
X118842Y32826D01*
X118844Y32821D01*
X120245Y29439D01*
X120245Y13462D01*
X120248Y13427D01*
X120246Y13393D01*
X120268Y13204D01*
X120285Y13013D01*
X120294Y12980D01*
X120298Y12946D01*
X120353Y12763D01*
X120403Y12579D01*
X120418Y12548D01*
X120428Y12515D01*
X120515Y12344D01*
X120597Y12172D01*
X120617Y12144D01*
X120632Y12113D01*
X120748Y11961D01*
X120859Y11806D01*
X120884Y11782D01*
X120904Y11755D01*
X121044Y11626D01*
X121181Y11492D01*
X121210Y11473D01*
X121236Y11449D01*
X121397Y11347D01*
X121554Y11240D01*
X121586Y11226D01*
X121615Y11208D01*
X121792Y11135D01*
X121966Y11058D01*
X122000Y11050D01*
X122032Y11037D01*
X122219Y10997D01*
X122404Y10951D01*
X122438Y10949D01*
X122472Y10942D01*
X122784Y10923D01*
X123800Y10923D01*
X123835Y10926D01*
G37*
G36*
X359649Y175397D02*
X359649Y175397D01*
X359661Y175396D01*
X359874Y175417D01*
X360086Y175436D01*
X360097Y175439D01*
X360109Y175440D01*
X360315Y175498D01*
X360521Y175554D01*
X360531Y175559D01*
X360542Y175562D01*
X360736Y175657D01*
X360927Y175747D01*
X360937Y175754D01*
X360947Y175759D01*
X361121Y175886D01*
X361293Y176010D01*
X361301Y176018D01*
X361311Y176025D01*
X361458Y176179D01*
X361607Y176332D01*
X361614Y176342D01*
X361622Y176350D01*
X361739Y176528D01*
X361859Y176705D01*
X361864Y176716D01*
X361871Y176726D01*
X361955Y176921D01*
X362042Y177117D01*
X362044Y177128D01*
X362049Y177139D01*
X362098Y177348D01*
X362148Y177555D01*
X362149Y177566D01*
X362152Y177577D01*
X362163Y177791D01*
X362176Y178004D01*
X362175Y178016D01*
X362175Y178027D01*
X362149Y178238D01*
X362124Y178451D01*
X362121Y178462D01*
X362119Y178474D01*
X362056Y178676D01*
X361994Y178882D01*
X361988Y178893D01*
X361985Y178904D01*
X361887Y179091D01*
X361789Y179283D01*
X361782Y179293D01*
X361777Y179303D01*
X361646Y179472D01*
X361517Y179642D01*
X361509Y179650D01*
X361502Y179659D01*
X361343Y179803D01*
X361186Y179947D01*
X361176Y179954D01*
X361168Y179961D01*
X360907Y180134D01*
X360400Y180427D01*
X359927Y180900D01*
X359592Y181479D01*
X359419Y182125D01*
X359419Y186461D01*
X368500Y186461D01*
X368534Y186464D01*
X368569Y186462D01*
X368758Y186484D01*
X368948Y186500D01*
X368982Y186510D01*
X369016Y186514D01*
X369199Y186569D01*
X369383Y186619D01*
X369414Y186634D01*
X369447Y186644D01*
X369618Y186731D01*
X369789Y186812D01*
X369817Y186833D01*
X369848Y186848D01*
X370000Y186963D01*
X370155Y187075D01*
X370179Y187099D01*
X370207Y187120D01*
X370336Y187260D01*
X370469Y187397D01*
X370489Y187426D01*
X370512Y187451D01*
X370615Y187612D01*
X370721Y187770D01*
X370735Y187802D01*
X370754Y187831D01*
X370826Y188008D01*
X370904Y188182D01*
X370912Y188216D01*
X370925Y188248D01*
X370965Y188434D01*
X371010Y188619D01*
X371012Y188654D01*
X371020Y188688D01*
X371039Y189000D01*
X371036Y189035D01*
X371038Y189069D01*
X371016Y189259D01*
X370999Y189449D01*
X370990Y189482D01*
X370986Y189516D01*
X370931Y189699D01*
X370880Y189883D01*
X370866Y189914D01*
X370856Y189947D01*
X370769Y190118D01*
X370687Y190290D01*
X370667Y190318D01*
X370651Y190349D01*
X370536Y190501D01*
X370425Y190656D01*
X370400Y190680D01*
X370379Y190707D01*
X370239Y190837D01*
X370102Y190970D01*
X370074Y190989D01*
X370048Y191013D01*
X369887Y191115D01*
X369729Y191222D01*
X369698Y191236D01*
X369668Y191254D01*
X369492Y191327D01*
X369317Y191404D01*
X369284Y191412D01*
X369252Y191425D01*
X369065Y191466D01*
X368880Y191511D01*
X368846Y191513D01*
X368812Y191520D01*
X368500Y191539D01*
X359419Y191539D01*
X359419Y194959D01*
X359416Y194993D01*
X359418Y195028D01*
X359396Y195217D01*
X359379Y195407D01*
X359370Y195441D01*
X359366Y195475D01*
X359311Y195658D01*
X359261Y195842D01*
X359246Y195873D01*
X359236Y195906D01*
X359149Y196077D01*
X359067Y196248D01*
X359047Y196276D01*
X359032Y196307D01*
X358916Y196459D01*
X358805Y196614D01*
X358780Y196639D01*
X358760Y196666D01*
X358620Y196795D01*
X358483Y196928D01*
X358454Y196948D01*
X358428Y196971D01*
X358267Y197074D01*
X358110Y197181D01*
X358078Y197195D01*
X358049Y197213D01*
X357872Y197286D01*
X357698Y197363D01*
X357664Y197371D01*
X357632Y197384D01*
X357445Y197424D01*
X357260Y197469D01*
X357226Y197472D01*
X357192Y197479D01*
X356880Y197498D01*
X325844Y197498D01*
X324350Y198117D01*
X317928Y204539D01*
X317309Y206033D01*
X317309Y213810D01*
X317306Y213845D01*
X317309Y213879D01*
X317287Y214068D01*
X317270Y214259D01*
X317260Y214292D01*
X317256Y214326D01*
X317201Y214509D01*
X317151Y214693D01*
X317136Y214724D01*
X317126Y214757D01*
X317039Y214928D01*
X316958Y215100D01*
X316938Y215128D01*
X316922Y215159D01*
X316807Y215311D01*
X316696Y215466D01*
X316671Y215490D01*
X316650Y215517D01*
X316510Y215647D01*
X316373Y215780D01*
X316344Y215799D01*
X316319Y215823D01*
X316158Y215925D01*
X316000Y216032D01*
X315968Y216046D01*
X315939Y216064D01*
X315762Y216137D01*
X315588Y216214D01*
X315554Y216222D01*
X315522Y216235D01*
X315336Y216276D01*
X315151Y216321D01*
X315116Y216323D01*
X315082Y216330D01*
X314770Y216349D01*
X309345Y216349D01*
X309215Y216338D01*
X309085Y216336D01*
X308992Y216318D01*
X308896Y216309D01*
X308771Y216275D01*
X308643Y216251D01*
X308554Y216216D01*
X308462Y216191D01*
X308345Y216135D01*
X308223Y216088D01*
X308141Y216038D01*
X308055Y215998D01*
X307950Y215922D01*
X307838Y215854D01*
X307767Y215791D01*
X307689Y215735D01*
X307598Y215642D01*
X307501Y215556D01*
X307442Y215481D01*
X307375Y215413D01*
X307302Y215305D01*
X307222Y215203D01*
X307176Y215119D01*
X307123Y215040D01*
X307070Y214921D01*
X307009Y214806D01*
X306979Y214715D01*
X306941Y214628D01*
X306910Y214501D01*
X306870Y214378D01*
X306857Y214283D01*
X306834Y214190D01*
X306826Y214061D01*
X306808Y213932D01*
X306812Y213836D01*
X306806Y213741D01*
X306821Y213612D01*
X306827Y213482D01*
X306847Y213389D01*
X306858Y213294D01*
X306896Y213169D01*
X306924Y213042D01*
X306961Y212954D01*
X306989Y212863D01*
X307048Y212747D01*
X307098Y212627D01*
X307150Y212547D01*
X307193Y212462D01*
X307272Y212358D01*
X307342Y212249D01*
X307428Y212151D01*
X307465Y212103D01*
X307498Y212072D01*
X307549Y212015D01*
X309058Y210506D01*
X309058Y206742D01*
X309073Y206578D01*
X309079Y206414D01*
X309093Y206354D01*
X309098Y206293D01*
X309141Y206134D01*
X309177Y205974D01*
X309200Y205918D01*
X309217Y205859D01*
X309287Y205711D01*
X309351Y205559D01*
X309384Y205507D01*
X309410Y205452D01*
X309506Y205319D01*
X309595Y205180D01*
X309646Y205123D01*
X309672Y205086D01*
X309716Y205044D01*
X309802Y204946D01*
X322607Y192141D01*
X322733Y192036D01*
X322854Y191924D01*
X322905Y191892D01*
X322952Y191852D01*
X323095Y191771D01*
X323233Y191683D01*
X323290Y191659D01*
X323343Y191629D01*
X323498Y191574D01*
X323650Y191512D01*
X323710Y191499D01*
X323767Y191478D01*
X323930Y191451D01*
X324090Y191417D01*
X324167Y191412D01*
X324211Y191405D01*
X324272Y191406D01*
X324402Y191398D01*
X334857Y191398D01*
X335750Y190504D01*
X335750Y177935D01*
X335753Y177900D01*
X335751Y177866D01*
X335773Y177676D01*
X335790Y177486D01*
X335799Y177453D01*
X335803Y177419D01*
X335858Y177236D01*
X335909Y177052D01*
X335923Y177021D01*
X335933Y176988D01*
X336020Y176817D01*
X336102Y176645D01*
X336122Y176617D01*
X336138Y176586D01*
X336253Y176434D01*
X336364Y176279D01*
X336389Y176255D01*
X336410Y176228D01*
X336550Y176098D01*
X336687Y175965D01*
X336715Y175946D01*
X336741Y175922D01*
X336902Y175820D01*
X337060Y175713D01*
X337091Y175699D01*
X337121Y175681D01*
X337297Y175608D01*
X337472Y175531D01*
X337505Y175523D01*
X337537Y175510D01*
X337724Y175469D01*
X337909Y175424D01*
X337944Y175422D01*
X337977Y175415D01*
X338289Y175396D01*
X359638Y175396D01*
X359649Y175397D01*
G37*
G36*
X112810Y150179D02*
X112810Y150179D01*
X112974Y150186D01*
X113034Y150199D01*
X113095Y150204D01*
X113254Y150247D01*
X113414Y150283D01*
X113470Y150307D01*
X113529Y150323D01*
X113677Y150393D01*
X113829Y150457D01*
X113881Y150490D01*
X113936Y150516D01*
X114069Y150612D01*
X114208Y150701D01*
X114265Y150752D01*
X114302Y150778D01*
X114344Y150822D01*
X114442Y150908D01*
X119820Y156286D01*
X119926Y156412D01*
X120037Y156533D01*
X120070Y156585D01*
X120109Y156632D01*
X120190Y156774D01*
X120279Y156913D01*
X120302Y156970D01*
X120332Y157023D01*
X120387Y157177D01*
X120450Y157330D01*
X120463Y157389D01*
X120483Y157447D01*
X120510Y157609D01*
X120544Y157770D01*
X120549Y157847D01*
X120557Y157891D01*
X120556Y157952D01*
X120564Y158082D01*
X120564Y172979D01*
X120552Y173108D01*
X120550Y173238D01*
X120532Y173332D01*
X120524Y173427D01*
X120490Y173553D01*
X120465Y173680D01*
X120430Y173769D01*
X120405Y173861D01*
X120350Y173979D01*
X120303Y174100D01*
X120253Y174182D01*
X120212Y174268D01*
X120136Y174374D01*
X120069Y174485D01*
X120005Y174557D01*
X119950Y174634D01*
X119857Y174725D01*
X119770Y174822D01*
X119696Y174882D01*
X119627Y174948D01*
X119519Y175021D01*
X119417Y175102D01*
X119333Y175147D01*
X119254Y175200D01*
X119135Y175253D01*
X119020Y175314D01*
X118930Y175344D01*
X118842Y175383D01*
X118716Y175413D01*
X118592Y175454D01*
X118498Y175467D01*
X118405Y175489D01*
X118275Y175497D01*
X118146Y175515D01*
X118051Y175511D01*
X117955Y175517D01*
X117826Y175502D01*
X117696Y175497D01*
X117603Y175476D01*
X117508Y175465D01*
X117383Y175427D01*
X117257Y175399D01*
X117169Y175362D01*
X117077Y175335D01*
X116961Y175275D01*
X116841Y175225D01*
X116761Y175174D01*
X116676Y175130D01*
X116572Y175052D01*
X116463Y174981D01*
X116366Y174895D01*
X116317Y174858D01*
X116287Y174825D01*
X116229Y174774D01*
X112434Y170979D01*
X110940Y170360D01*
X93188Y170360D01*
X93024Y170346D01*
X92860Y170339D01*
X92800Y170326D01*
X92739Y170320D01*
X92581Y170277D01*
X92420Y170241D01*
X92364Y170218D01*
X92305Y170202D01*
X92157Y170131D01*
X92005Y170068D01*
X91953Y170035D01*
X91898Y170008D01*
X91765Y169913D01*
X91626Y169824D01*
X91569Y169772D01*
X91532Y169746D01*
X91490Y169703D01*
X91392Y169617D01*
X88678Y166903D01*
X88573Y166776D01*
X88461Y166656D01*
X88429Y166604D01*
X88389Y166557D01*
X88308Y166415D01*
X88220Y166276D01*
X88196Y166219D01*
X88166Y166166D01*
X88111Y166011D01*
X88049Y165859D01*
X88036Y165800D01*
X88015Y165742D01*
X87988Y165580D01*
X87954Y165419D01*
X87949Y165342D01*
X87942Y165298D01*
X87943Y165237D01*
X87935Y165107D01*
X87935Y164947D01*
X87942Y164865D01*
X87940Y164783D01*
X87962Y164641D01*
X87975Y164499D01*
X87996Y164419D01*
X88009Y164338D01*
X88055Y164202D01*
X88093Y164064D01*
X88128Y163990D01*
X88155Y163912D01*
X88225Y163787D01*
X88286Y163658D01*
X88334Y163591D01*
X88375Y163519D01*
X88465Y163408D01*
X88549Y163292D01*
X88608Y163234D01*
X88660Y163170D01*
X88769Y163077D01*
X88871Y162978D01*
X88940Y162931D01*
X89002Y162878D01*
X89126Y162806D01*
X89244Y162725D01*
X89320Y162692D01*
X89391Y162650D01*
X89525Y162601D01*
X89656Y162543D01*
X89736Y162524D01*
X89814Y162495D01*
X89954Y162471D01*
X90094Y162437D01*
X90176Y162432D01*
X90257Y162417D01*
X90400Y162418D01*
X90543Y162409D01*
X90625Y162418D01*
X90707Y162419D01*
X90848Y162444D01*
X90990Y162461D01*
X91069Y162485D01*
X91150Y162500D01*
X91383Y162580D01*
X91421Y162591D01*
X91431Y162596D01*
X91446Y162601D01*
X91578Y162656D01*
X97299Y162656D01*
X98117Y162318D01*
X98228Y162282D01*
X98336Y162238D01*
X98443Y162215D01*
X98546Y162183D01*
X98662Y162168D01*
X98777Y162143D01*
X98930Y162134D01*
X98993Y162126D01*
X99029Y162128D01*
X99089Y162124D01*
X99723Y162124D01*
X100616Y161231D01*
X100616Y157220D01*
X100622Y157154D01*
X100620Y157104D01*
X100635Y156991D01*
X100643Y156853D01*
X100653Y156813D01*
X100656Y156771D01*
X100673Y156709D01*
X100680Y156657D01*
X100716Y156546D01*
X100747Y156415D01*
X100764Y156377D01*
X100775Y156337D01*
X100802Y156280D01*
X100818Y156229D01*
X100900Y156065D01*
X100927Y156002D01*
X100943Y155979D01*
X100958Y155949D01*
X100967Y155933D01*
X100968Y155930D01*
X100970Y155928D01*
X101459Y155080D01*
X101632Y154434D01*
X101632Y152703D01*
X101635Y152669D01*
X101633Y152634D01*
X101655Y152445D01*
X101672Y152255D01*
X101681Y152222D01*
X101685Y152187D01*
X101741Y152004D01*
X101791Y151821D01*
X101806Y151789D01*
X101816Y151756D01*
X101903Y151586D01*
X101984Y151414D01*
X102004Y151386D01*
X102020Y151355D01*
X102135Y151203D01*
X102246Y151048D01*
X102271Y151024D01*
X102292Y150996D01*
X102432Y150867D01*
X102569Y150734D01*
X102598Y150714D01*
X102623Y150691D01*
X102784Y150588D01*
X102942Y150482D01*
X102974Y150468D01*
X103003Y150449D01*
X103179Y150377D01*
X103354Y150300D01*
X103388Y150291D01*
X103420Y150278D01*
X103606Y150238D01*
X103791Y150193D01*
X103826Y150191D01*
X103860Y150183D01*
X104172Y150164D01*
X112646Y150164D01*
X112810Y150179D01*
G37*
G36*
X251851Y10926D02*
X251851Y10926D01*
X251885Y10924D01*
X252074Y10946D01*
X252265Y10963D01*
X252298Y10972D01*
X252332Y10976D01*
X252515Y11031D01*
X252699Y11081D01*
X252730Y11096D01*
X252763Y11106D01*
X252934Y11193D01*
X253106Y11275D01*
X253134Y11295D01*
X253165Y11310D01*
X253317Y11426D01*
X253472Y11537D01*
X253496Y11562D01*
X253523Y11582D01*
X253652Y11722D01*
X253786Y11859D01*
X253805Y11888D01*
X253829Y11914D01*
X253931Y12075D01*
X254038Y12232D01*
X254052Y12264D01*
X254070Y12293D01*
X254143Y12470D01*
X254220Y12644D01*
X254228Y12678D01*
X254241Y12710D01*
X254281Y12897D01*
X254327Y13082D01*
X254329Y13116D01*
X254336Y13150D01*
X254355Y13462D01*
X254355Y29439D01*
X255747Y32800D01*
X258456Y35509D01*
X258540Y35609D01*
X258630Y35702D01*
X258684Y35781D01*
X258745Y35854D01*
X258810Y35967D01*
X258883Y36075D01*
X258921Y36162D01*
X258969Y36245D01*
X259012Y36368D01*
X259031Y36410D01*
X259057Y36403D01*
X259105Y36381D01*
X259273Y36340D01*
X259438Y36293D01*
X259491Y36287D01*
X259543Y36274D01*
X259715Y36264D01*
X259886Y36246D01*
X259939Y36250D01*
X259992Y36247D01*
X260163Y36267D01*
X260335Y36279D01*
X260387Y36293D01*
X260439Y36299D01*
X260604Y36349D01*
X260771Y36392D01*
X260832Y36418D01*
X260870Y36429D01*
X260871Y36429D01*
X260926Y36458D01*
X261059Y36514D01*
X261163Y36578D01*
X261272Y36634D01*
X261354Y36696D01*
X261442Y36750D01*
X261533Y36832D01*
X261631Y36906D01*
X261701Y36982D01*
X261778Y37051D01*
X261853Y37147D01*
X261936Y37237D01*
X261992Y37324D01*
X262055Y37405D01*
X262112Y37513D01*
X262178Y37617D01*
X262217Y37712D01*
X262265Y37804D01*
X262302Y37920D01*
X262349Y38033D01*
X262370Y38134D01*
X262402Y38233D01*
X262418Y38354D01*
X262443Y38473D01*
X262452Y38617D01*
X262460Y38679D01*
X262459Y38719D01*
X262463Y38785D01*
X262463Y45884D01*
X262460Y45919D01*
X262462Y45953D01*
X262440Y46143D01*
X262423Y46333D01*
X262414Y46366D01*
X262410Y46400D01*
X262354Y46583D01*
X262304Y46767D01*
X262289Y46798D01*
X262279Y46831D01*
X262193Y47002D01*
X262111Y47174D01*
X262091Y47202D01*
X262075Y47233D01*
X261960Y47385D01*
X261849Y47540D01*
X261824Y47564D01*
X261803Y47591D01*
X261663Y47721D01*
X261526Y47854D01*
X261497Y47873D01*
X261472Y47897D01*
X261311Y47999D01*
X261153Y48106D01*
X261121Y48120D01*
X261092Y48138D01*
X260916Y48211D01*
X260741Y48288D01*
X260708Y48296D01*
X260676Y48309D01*
X260489Y48350D01*
X260304Y48395D01*
X260269Y48397D01*
X260235Y48404D01*
X259923Y48423D01*
X259889Y48420D01*
X259854Y48422D01*
X259665Y48400D01*
X259475Y48383D01*
X259441Y48374D01*
X259407Y48370D01*
X259224Y48315D01*
X259040Y48265D01*
X259009Y48250D01*
X258976Y48240D01*
X258805Y48153D01*
X258634Y48072D01*
X258606Y48051D01*
X258575Y48036D01*
X258423Y47920D01*
X258268Y47809D01*
X258243Y47785D01*
X258216Y47764D01*
X258087Y47624D01*
X257954Y47487D01*
X257934Y47458D01*
X257911Y47433D01*
X257808Y47272D01*
X257701Y47114D01*
X257687Y47082D01*
X257669Y47053D01*
X257596Y46876D01*
X257519Y46702D01*
X257511Y46668D01*
X257498Y46636D01*
X257458Y46450D01*
X257413Y46264D01*
X257410Y46230D01*
X257403Y46196D01*
X257384Y45884D01*
X257384Y39736D01*
X257319Y39750D01*
X257229Y39779D01*
X257100Y39797D01*
X256973Y39825D01*
X256843Y39833D01*
X256783Y39841D01*
X256738Y39839D01*
X256661Y39844D01*
X255089Y39844D01*
X254443Y40017D01*
X253863Y40351D01*
X253390Y40824D01*
X252894Y41685D01*
X252880Y41704D01*
X252870Y41725D01*
X252751Y41888D01*
X252635Y42053D01*
X252618Y42069D01*
X252605Y42088D01*
X252458Y42228D01*
X252315Y42370D01*
X252296Y42383D01*
X252279Y42399D01*
X252110Y42511D01*
X251944Y42626D01*
X251923Y42635D01*
X251904Y42648D01*
X251718Y42728D01*
X251534Y42812D01*
X251512Y42817D01*
X251490Y42826D01*
X251293Y42873D01*
X251098Y42922D01*
X251075Y42924D01*
X251052Y42929D01*
X250850Y42940D01*
X250648Y42954D01*
X250625Y42952D01*
X250602Y42953D01*
X250403Y42928D01*
X250201Y42906D01*
X250178Y42899D01*
X250156Y42897D01*
X249963Y42836D01*
X249769Y42780D01*
X249748Y42769D01*
X249726Y42762D01*
X249547Y42669D01*
X249366Y42579D01*
X249347Y42565D01*
X249326Y42554D01*
X249167Y42431D01*
X249004Y42310D01*
X248988Y42293D01*
X248970Y42279D01*
X248834Y42129D01*
X248696Y41982D01*
X248684Y41962D01*
X248668Y41945D01*
X248495Y41685D01*
X248091Y40985D01*
X247618Y40512D01*
X247039Y40177D01*
X246393Y40004D01*
X244779Y40004D01*
X244649Y39993D01*
X244519Y39991D01*
X244425Y39973D01*
X244330Y39964D01*
X244205Y39930D01*
X244098Y39909D01*
X244098Y46045D01*
X244095Y46079D01*
X244097Y46114D01*
X244075Y46303D01*
X244058Y46493D01*
X244049Y46527D01*
X244045Y46561D01*
X243989Y46744D01*
X243939Y46928D01*
X243924Y46959D01*
X243914Y46992D01*
X243827Y47163D01*
X243746Y47334D01*
X243726Y47362D01*
X243710Y47393D01*
X243595Y47545D01*
X243484Y47700D01*
X243459Y47724D01*
X243438Y47752D01*
X243298Y47881D01*
X243161Y48014D01*
X243132Y48034D01*
X243107Y48057D01*
X242946Y48160D01*
X242788Y48266D01*
X242756Y48280D01*
X242727Y48299D01*
X242551Y48371D01*
X242376Y48449D01*
X242342Y48457D01*
X242310Y48470D01*
X242124Y48510D01*
X241939Y48555D01*
X241904Y48557D01*
X241870Y48565D01*
X241558Y48584D01*
X241524Y48581D01*
X241489Y48583D01*
X241300Y48561D01*
X241110Y48544D01*
X241076Y48535D01*
X241042Y48531D01*
X240859Y48476D01*
X240675Y48425D01*
X240644Y48411D01*
X240611Y48401D01*
X240440Y48314D01*
X240269Y48232D01*
X240240Y48212D01*
X240210Y48196D01*
X240058Y48081D01*
X239902Y47970D01*
X239878Y47945D01*
X239851Y47924D01*
X239722Y47784D01*
X239588Y47647D01*
X239569Y47619D01*
X239546Y47593D01*
X239443Y47432D01*
X239336Y47274D01*
X239322Y47243D01*
X239304Y47213D01*
X239231Y47037D01*
X239154Y46862D01*
X239146Y46829D01*
X239133Y46797D01*
X239093Y46610D01*
X239047Y46425D01*
X239045Y46391D01*
X239038Y46357D01*
X239019Y46045D01*
X239019Y38834D01*
X239019Y38832D01*
X239019Y38830D01*
X239021Y38806D01*
X239020Y38785D01*
X239034Y38665D01*
X239039Y38610D01*
X239059Y38386D01*
X239059Y38383D01*
X239060Y38381D01*
X239120Y38163D01*
X239177Y37951D01*
X239178Y37949D01*
X239179Y37947D01*
X239279Y37737D01*
X239371Y37545D01*
X239372Y37543D01*
X239373Y37541D01*
X239510Y37351D01*
X239633Y37179D01*
X239634Y37177D01*
X239636Y37175D01*
X239796Y37020D01*
X239955Y36865D01*
X239957Y36863D01*
X239959Y36862D01*
X240141Y36739D01*
X240329Y36613D01*
X240331Y36612D01*
X240333Y36610D01*
X240615Y36477D01*
X240679Y36457D01*
X240740Y36430D01*
X240741Y36430D01*
X240895Y36393D01*
X241047Y36347D01*
X241113Y36339D01*
X241178Y36324D01*
X241336Y36314D01*
X241494Y36296D01*
X241561Y36300D01*
X241627Y36296D01*
X241785Y36314D01*
X241943Y36324D01*
X242008Y36340D01*
X242075Y36348D01*
X242227Y36394D01*
X242381Y36432D01*
X242442Y36459D01*
X242451Y36462D01*
X242482Y36402D01*
X242532Y36282D01*
X242584Y36202D01*
X242627Y36116D01*
X242706Y36013D01*
X242776Y35904D01*
X242862Y35806D01*
X242899Y35758D01*
X242932Y35727D01*
X242983Y35669D01*
X245853Y32800D01*
X247245Y29439D01*
X247245Y13462D01*
X247248Y13427D01*
X247246Y13393D01*
X247268Y13204D01*
X247285Y13013D01*
X247294Y12980D01*
X247298Y12946D01*
X247353Y12763D01*
X247403Y12579D01*
X247418Y12548D01*
X247428Y12515D01*
X247515Y12344D01*
X247597Y12172D01*
X247617Y12144D01*
X247632Y12113D01*
X247748Y11961D01*
X247859Y11806D01*
X247884Y11782D01*
X247904Y11755D01*
X248044Y11626D01*
X248181Y11492D01*
X248210Y11473D01*
X248236Y11449D01*
X248397Y11347D01*
X248554Y11240D01*
X248586Y11226D01*
X248615Y11208D01*
X248792Y11135D01*
X248966Y11058D01*
X249000Y11050D01*
X249032Y11037D01*
X249219Y10997D01*
X249404Y10951D01*
X249438Y10949D01*
X249472Y10942D01*
X249784Y10923D01*
X251816Y10923D01*
X251851Y10926D01*
G37*
G36*
X201051Y10926D02*
X201051Y10926D01*
X201085Y10924D01*
X201274Y10946D01*
X201465Y10963D01*
X201498Y10972D01*
X201532Y10976D01*
X201715Y11031D01*
X201899Y11081D01*
X201930Y11096D01*
X201963Y11106D01*
X202134Y11193D01*
X202306Y11275D01*
X202334Y11295D01*
X202365Y11310D01*
X202517Y11426D01*
X202672Y11537D01*
X202696Y11562D01*
X202723Y11582D01*
X202852Y11722D01*
X202986Y11859D01*
X203005Y11888D01*
X203029Y11914D01*
X203131Y12075D01*
X203238Y12232D01*
X203252Y12264D01*
X203270Y12293D01*
X203343Y12470D01*
X203420Y12644D01*
X203428Y12678D01*
X203441Y12710D01*
X203481Y12897D01*
X203527Y13082D01*
X203529Y13116D01*
X203536Y13150D01*
X203555Y13462D01*
X203555Y29439D01*
X204947Y32800D01*
X207775Y35628D01*
X207858Y35727D01*
X207949Y35820D01*
X208003Y35900D01*
X208064Y35973D01*
X208128Y36086D01*
X208201Y36194D01*
X208240Y36281D01*
X208287Y36364D01*
X208331Y36486D01*
X208383Y36605D01*
X208406Y36698D01*
X208438Y36788D01*
X208459Y36916D01*
X208490Y37043D01*
X208496Y37138D01*
X208512Y37232D01*
X208510Y37362D01*
X208518Y37492D01*
X208507Y37587D01*
X208505Y37683D01*
X208481Y37810D01*
X208466Y37939D01*
X208438Y38031D01*
X208420Y38125D01*
X208373Y38246D01*
X208335Y38370D01*
X208292Y38456D01*
X208258Y38545D01*
X208190Y38656D01*
X208131Y38772D01*
X208073Y38848D01*
X208024Y38929D01*
X207938Y39027D01*
X207859Y39130D01*
X207789Y39195D01*
X207725Y39267D01*
X207624Y39347D01*
X207528Y39436D01*
X207447Y39487D01*
X207372Y39546D01*
X207258Y39608D01*
X207148Y39677D01*
X207060Y39714D01*
X206975Y39759D01*
X206852Y39799D01*
X206732Y39848D01*
X206638Y39868D01*
X206547Y39898D01*
X206419Y39916D01*
X206291Y39943D01*
X206162Y39951D01*
X206101Y39959D01*
X206056Y39958D01*
X205979Y39962D01*
X204631Y39962D01*
X203985Y40135D01*
X203406Y40470D01*
X202933Y40943D01*
X202598Y41522D01*
X202439Y42115D01*
X202435Y42126D01*
X202433Y42138D01*
X202372Y42300D01*
X202360Y42341D01*
X202349Y42362D01*
X202285Y42538D01*
X202279Y42548D01*
X202275Y42559D01*
X202166Y42742D01*
X202058Y42927D01*
X202050Y42936D01*
X202044Y42946D01*
X201903Y43109D01*
X201766Y43270D01*
X201757Y43277D01*
X201749Y43286D01*
X201582Y43421D01*
X201530Y43464D01*
X209465Y43464D01*
X209500Y43467D01*
X209534Y43465D01*
X209724Y43487D01*
X209914Y43504D01*
X209947Y43513D01*
X209982Y43517D01*
X210165Y43572D01*
X210348Y43622D01*
X210379Y43637D01*
X210413Y43647D01*
X210583Y43734D01*
X210755Y43815D01*
X210783Y43836D01*
X210814Y43851D01*
X210966Y43967D01*
X211121Y44078D01*
X211145Y44102D01*
X211173Y44123D01*
X211302Y44263D01*
X211435Y44400D01*
X211454Y44429D01*
X211478Y44454D01*
X211580Y44615D01*
X211687Y44773D01*
X211701Y44805D01*
X211720Y44834D01*
X211792Y45011D01*
X211869Y45185D01*
X211878Y45219D01*
X211891Y45251D01*
X211931Y45437D01*
X211976Y45623D01*
X211978Y45657D01*
X211985Y45691D01*
X212005Y46003D01*
X212002Y46038D01*
X212004Y46072D01*
X211982Y46262D01*
X211965Y46452D01*
X211956Y46485D01*
X211952Y46520D01*
X211896Y46702D01*
X211846Y46886D01*
X211831Y46917D01*
X211821Y46951D01*
X211734Y47121D01*
X211653Y47293D01*
X211633Y47321D01*
X211617Y47352D01*
X211502Y47504D01*
X211391Y47659D01*
X211366Y47683D01*
X211345Y47711D01*
X211205Y47840D01*
X211068Y47973D01*
X211039Y47992D01*
X211014Y48016D01*
X210853Y48118D01*
X210695Y48225D01*
X210663Y48239D01*
X210634Y48258D01*
X210458Y48330D01*
X210283Y48407D01*
X210249Y48415D01*
X210217Y48429D01*
X210031Y48469D01*
X209846Y48514D01*
X209811Y48516D01*
X209777Y48523D01*
X209465Y48542D01*
X200159Y48542D01*
X200124Y48539D01*
X200090Y48542D01*
X199900Y48519D01*
X199710Y48503D01*
X199677Y48493D01*
X199642Y48489D01*
X199459Y48434D01*
X199276Y48384D01*
X199245Y48369D01*
X199211Y48359D01*
X199041Y48272D01*
X198869Y48191D01*
X198841Y48171D01*
X198810Y48155D01*
X198658Y48040D01*
X198503Y47929D01*
X198479Y47904D01*
X198451Y47883D01*
X198322Y47743D01*
X198189Y47606D01*
X198170Y47577D01*
X198146Y47552D01*
X198044Y47391D01*
X197937Y47233D01*
X197923Y47201D01*
X197904Y47172D01*
X197832Y46995D01*
X197755Y46821D01*
X197747Y46787D01*
X197733Y46755D01*
X197693Y46569D01*
X197648Y46384D01*
X197646Y46349D01*
X197639Y46315D01*
X197619Y46003D01*
X197623Y45969D01*
X197620Y45934D01*
X197642Y45744D01*
X197659Y45554D01*
X197668Y45521D01*
X197672Y45487D01*
X197728Y45304D01*
X197778Y45120D01*
X197793Y45089D01*
X197803Y45056D01*
X197890Y44885D01*
X197971Y44713D01*
X197991Y44685D01*
X198007Y44654D01*
X198122Y44502D01*
X198233Y44347D01*
X198258Y44323D01*
X198279Y44296D01*
X198419Y44166D01*
X198556Y44033D01*
X198585Y44014D01*
X198610Y43990D01*
X198771Y43888D01*
X198929Y43781D01*
X198955Y43770D01*
X198844Y43726D01*
X198835Y43720D01*
X198824Y43716D01*
X198644Y43602D01*
X198462Y43489D01*
X198453Y43481D01*
X198443Y43475D01*
X198287Y43331D01*
X198127Y43188D01*
X198120Y43178D01*
X198111Y43171D01*
X197982Y43001D01*
X197851Y42832D01*
X197846Y42822D01*
X197838Y42812D01*
X197741Y42623D01*
X197642Y42433D01*
X197638Y42422D01*
X197633Y42412D01*
X197568Y42218D01*
X197565Y42212D01*
X197563Y42203D01*
X197534Y42115D01*
X197446Y41789D01*
X197112Y41210D01*
X196639Y40737D01*
X196059Y40402D01*
X195413Y40229D01*
X193521Y40229D01*
X193344Y40213D01*
X193167Y40204D01*
X193120Y40193D01*
X193073Y40189D01*
X192901Y40142D01*
X192728Y40102D01*
X192684Y40083D01*
X192638Y40071D01*
X192478Y39994D01*
X192315Y39924D01*
X192275Y39898D01*
X192232Y39877D01*
X192087Y39774D01*
X191939Y39676D01*
X191904Y39643D01*
X191865Y39615D01*
X191741Y39488D01*
X191613Y39365D01*
X191585Y39327D01*
X191551Y39292D01*
X191452Y39145D01*
X191347Y39002D01*
X191326Y38959D01*
X191299Y38919D01*
X191227Y38757D01*
X191149Y38597D01*
X191136Y38551D01*
X191117Y38508D01*
X191075Y38335D01*
X191026Y38164D01*
X191022Y38116D01*
X191010Y38070D01*
X191000Y37893D01*
X190982Y37716D01*
X190986Y37668D01*
X190983Y37621D01*
X191003Y37444D01*
X191017Y37267D01*
X191029Y37221D01*
X191035Y37173D01*
X191086Y37003D01*
X191131Y36832D01*
X191151Y36788D01*
X191165Y36742D01*
X191246Y36584D01*
X191320Y36423D01*
X191348Y36384D01*
X191369Y36341D01*
X191477Y36200D01*
X191579Y36054D01*
X191613Y36021D01*
X191641Y35982D01*
X191772Y35862D01*
X191898Y35737D01*
X191937Y35710D01*
X191973Y35677D01*
X192123Y35582D01*
X192269Y35481D01*
X192322Y35455D01*
X192352Y35435D01*
X192411Y35411D01*
X192470Y35383D01*
X195053Y32800D01*
X196445Y29439D01*
X196445Y13462D01*
X196448Y13427D01*
X196446Y13393D01*
X196468Y13204D01*
X196485Y13013D01*
X196494Y12980D01*
X196498Y12946D01*
X196553Y12763D01*
X196603Y12579D01*
X196618Y12548D01*
X196628Y12515D01*
X196715Y12344D01*
X196797Y12172D01*
X196817Y12144D01*
X196832Y12113D01*
X196948Y11961D01*
X197059Y11806D01*
X197084Y11782D01*
X197104Y11755D01*
X197244Y11626D01*
X197381Y11492D01*
X197410Y11473D01*
X197436Y11449D01*
X197597Y11347D01*
X197754Y11240D01*
X197786Y11226D01*
X197815Y11208D01*
X197992Y11135D01*
X198166Y11058D01*
X198200Y11050D01*
X198232Y11037D01*
X198419Y10997D01*
X198604Y10951D01*
X198638Y10949D01*
X198672Y10942D01*
X198984Y10923D01*
X201016Y10923D01*
X201051Y10926D01*
G37*
G36*
X250856Y48978D02*
X250856Y48978D01*
X250879Y48977D01*
X251079Y49002D01*
X251281Y49023D01*
X251303Y49030D01*
X251326Y49033D01*
X251519Y49093D01*
X251713Y49150D01*
X251734Y49160D01*
X251756Y49167D01*
X251935Y49260D01*
X252116Y49351D01*
X252135Y49364D01*
X252155Y49375D01*
X252315Y49498D01*
X252477Y49619D01*
X252493Y49636D01*
X252511Y49650D01*
X252647Y49800D01*
X252785Y49948D01*
X252798Y49967D01*
X252814Y49984D01*
X252986Y50245D01*
X253390Y50945D01*
X253753Y51307D01*
X253775Y51334D01*
X253801Y51357D01*
X253919Y51506D01*
X254042Y51653D01*
X254059Y51683D01*
X254081Y51710D01*
X254171Y51878D01*
X254265Y52044D01*
X254277Y52076D01*
X254293Y52107D01*
X254352Y52289D01*
X254416Y52468D01*
X254422Y52502D01*
X254433Y52535D01*
X254458Y52724D01*
X254490Y52912D01*
X254489Y52947D01*
X254494Y52981D01*
X254486Y53171D01*
X254484Y53362D01*
X254477Y53397D01*
X254475Y53431D01*
X254434Y53617D01*
X254398Y53805D01*
X254385Y53837D01*
X254378Y53871D01*
X254304Y54047D01*
X254236Y54225D01*
X254218Y54254D01*
X254204Y54286D01*
X254101Y54446D01*
X254002Y54609D01*
X253979Y54635D01*
X253960Y54664D01*
X253899Y54734D01*
X253899Y63016D01*
X254792Y63909D01*
X263517Y63909D01*
X263551Y63912D01*
X263586Y63910D01*
X263775Y63932D01*
X263965Y63949D01*
X263998Y63958D01*
X264033Y63962D01*
X264216Y64018D01*
X264399Y64068D01*
X264431Y64082D01*
X264464Y64093D01*
X264634Y64179D01*
X264806Y64261D01*
X264834Y64281D01*
X264865Y64297D01*
X265017Y64412D01*
X265172Y64523D01*
X265196Y64548D01*
X265224Y64569D01*
X265353Y64709D01*
X265486Y64846D01*
X265506Y64875D01*
X265529Y64900D01*
X265632Y65061D01*
X265738Y65219D01*
X265752Y65251D01*
X265771Y65280D01*
X265843Y65456D01*
X265921Y65631D01*
X265929Y65664D01*
X265937Y65685D01*
X266272Y66020D01*
X266378Y66146D01*
X266489Y66267D01*
X266522Y66319D01*
X266561Y66365D01*
X266642Y66508D01*
X266731Y66647D01*
X266754Y66704D01*
X266784Y66756D01*
X266839Y66911D01*
X266902Y67064D01*
X266915Y67123D01*
X266935Y67181D01*
X266962Y67343D01*
X266997Y67504D01*
X267001Y67581D01*
X267009Y67625D01*
X267008Y67686D01*
X267016Y67816D01*
X267016Y72720D01*
X267013Y72755D01*
X267015Y72789D01*
X266993Y72978D01*
X266976Y73169D01*
X266967Y73202D01*
X266963Y73236D01*
X266907Y73419D01*
X266857Y73603D01*
X266843Y73634D01*
X266832Y73667D01*
X266746Y73838D01*
X266689Y73956D01*
X266689Y87650D01*
X266686Y87684D01*
X266688Y87719D01*
X266666Y87908D01*
X266649Y88098D01*
X266640Y88132D01*
X266636Y88166D01*
X266581Y88349D01*
X266531Y88533D01*
X266516Y88564D01*
X266506Y88597D01*
X266419Y88768D01*
X266338Y88939D01*
X266317Y88967D01*
X266302Y88998D01*
X266186Y89150D01*
X266075Y89305D01*
X266051Y89329D01*
X266030Y89357D01*
X265890Y89486D01*
X265753Y89619D01*
X265724Y89639D01*
X265699Y89662D01*
X265538Y89765D01*
X265380Y89871D01*
X265348Y89885D01*
X265319Y89904D01*
X265142Y89976D01*
X264968Y90054D01*
X264934Y90062D01*
X264902Y90075D01*
X264716Y90115D01*
X264530Y90160D01*
X264496Y90162D01*
X264462Y90170D01*
X264150Y90189D01*
X264115Y90186D01*
X264081Y90188D01*
X263891Y90166D01*
X263701Y90149D01*
X263668Y90140D01*
X263634Y90136D01*
X263451Y90081D01*
X263267Y90030D01*
X263236Y90016D01*
X263203Y90006D01*
X263032Y89919D01*
X262860Y89837D01*
X262832Y89817D01*
X262801Y89801D01*
X262649Y89686D01*
X262494Y89575D01*
X262470Y89550D01*
X262442Y89529D01*
X262313Y89389D01*
X262180Y89252D01*
X262161Y89224D01*
X262137Y89198D01*
X262035Y89037D01*
X261928Y88879D01*
X261914Y88848D01*
X261895Y88818D01*
X261823Y88642D01*
X261746Y88467D01*
X261738Y88434D01*
X261725Y88402D01*
X261684Y88215D01*
X261639Y88030D01*
X261637Y87996D01*
X261630Y87962D01*
X261611Y87650D01*
X261611Y75259D01*
X261576Y75259D01*
X260940Y75386D01*
X260341Y75634D01*
X259801Y75995D01*
X259741Y76045D01*
X259684Y76105D01*
X259569Y76189D01*
X259459Y76281D01*
X259387Y76322D01*
X259321Y76371D01*
X259192Y76433D01*
X259068Y76504D01*
X258990Y76532D01*
X258916Y76568D01*
X258778Y76607D01*
X258644Y76655D01*
X258562Y76669D01*
X258483Y76691D01*
X258341Y76705D01*
X258199Y76729D01*
X258117Y76728D01*
X258035Y76736D01*
X257892Y76724D01*
X257749Y76723D01*
X257668Y76707D01*
X257586Y76700D01*
X257448Y76664D01*
X257307Y76637D01*
X257230Y76607D01*
X257150Y76586D01*
X257020Y76526D01*
X256887Y76475D01*
X256817Y76432D01*
X256742Y76397D01*
X256625Y76315D01*
X256502Y76241D01*
X256441Y76186D01*
X256373Y76139D01*
X256272Y76037D01*
X256165Y75943D01*
X256114Y75878D01*
X256056Y75820D01*
X255974Y75702D01*
X255885Y75589D01*
X255847Y75517D01*
X255800Y75449D01*
X255691Y75227D01*
X255673Y75193D01*
X255670Y75183D01*
X255663Y75168D01*
X254896Y73317D01*
X248951Y67372D01*
X248528Y67197D01*
X248455Y67159D01*
X248378Y67129D01*
X248256Y67055D01*
X248129Y66988D01*
X248064Y66938D01*
X247993Y66895D01*
X247886Y66800D01*
X247773Y66713D01*
X247718Y66651D01*
X247656Y66597D01*
X247567Y66485D01*
X247471Y66378D01*
X247428Y66308D01*
X247377Y66244D01*
X247309Y66118D01*
X247233Y65996D01*
X247203Y65920D01*
X247164Y65847D01*
X247120Y65711D01*
X247067Y65578D01*
X247050Y65497D01*
X247025Y65419D01*
X247005Y65277D01*
X246977Y65137D01*
X246975Y65054D01*
X246963Y64973D01*
X246969Y64830D01*
X246966Y64687D01*
X246978Y64605D01*
X246982Y64523D01*
X247013Y64383D01*
X247035Y64242D01*
X247061Y64164D01*
X247079Y64083D01*
X247134Y63951D01*
X247181Y63816D01*
X247221Y63744D01*
X247253Y63668D01*
X247331Y63547D01*
X247400Y63423D01*
X247452Y63359D01*
X247497Y63290D01*
X247583Y63192D01*
X247583Y54886D01*
X247562Y54860D01*
X247440Y54714D01*
X247422Y54683D01*
X247401Y54656D01*
X247311Y54488D01*
X247216Y54323D01*
X247205Y54290D01*
X247188Y54259D01*
X247129Y54078D01*
X247065Y53898D01*
X247060Y53864D01*
X247049Y53831D01*
X247023Y53642D01*
X246992Y53454D01*
X246992Y53420D01*
X246988Y53385D01*
X246995Y53194D01*
X246998Y53004D01*
X247005Y52970D01*
X247006Y52935D01*
X247047Y52750D01*
X247084Y52562D01*
X247096Y52529D01*
X247104Y52496D01*
X247177Y52320D01*
X247246Y52142D01*
X247264Y52112D01*
X247277Y52080D01*
X247381Y51920D01*
X247480Y51757D01*
X247503Y51731D01*
X247522Y51702D01*
X247728Y51468D01*
X248091Y51105D01*
X248588Y50245D01*
X248601Y50226D01*
X248611Y50205D01*
X248731Y50042D01*
X248847Y49876D01*
X248863Y49860D01*
X248877Y49841D01*
X249024Y49701D01*
X249167Y49559D01*
X249186Y49546D01*
X249202Y49530D01*
X249372Y49418D01*
X249537Y49304D01*
X249559Y49294D01*
X249578Y49281D01*
X249763Y49201D01*
X249947Y49118D01*
X249970Y49112D01*
X249991Y49103D01*
X250188Y49057D01*
X250384Y49007D01*
X250407Y49006D01*
X250430Y49000D01*
X250631Y48990D01*
X250833Y48975D01*
X250856Y48978D01*
G37*
%LPC*%
G36*
X141739Y377139D02*
X141739Y377139D01*
X141739Y384459D01*
X143100Y384016D01*
X144525Y383290D01*
X145819Y382350D01*
X146950Y381219D01*
X147890Y379925D01*
X148616Y378500D01*
X149059Y377139D01*
X141739Y377139D01*
G37*
%LPD*%
%LPC*%
G36*
X129341Y377139D02*
X129341Y377139D01*
X129784Y378500D01*
X130510Y379925D01*
X131450Y381219D01*
X132581Y382350D01*
X133875Y383290D01*
X135300Y384016D01*
X136661Y384459D01*
X136661Y377139D01*
X129341Y377139D01*
G37*
%LPD*%
%LPC*%
G36*
X230941Y402539D02*
X230941Y402539D01*
X231384Y403900D01*
X232110Y405325D01*
X233050Y406619D01*
X234181Y407750D01*
X235475Y408690D01*
X236900Y409416D01*
X238261Y409859D01*
X238261Y402539D01*
X230941Y402539D01*
G37*
%LPD*%
%LPC*%
G36*
X287699Y215333D02*
X287699Y215333D01*
X287053Y215506D01*
X286473Y215841D01*
X286000Y216314D01*
X285666Y216893D01*
X285493Y217540D01*
X285493Y222335D01*
X290494Y222335D01*
X290494Y215333D01*
X287699Y215333D01*
G37*
%LPD*%
%LPC*%
G36*
X266629Y183732D02*
X266629Y183732D01*
X266629Y193583D01*
X266664Y193583D01*
X267300Y193456D01*
X267898Y193208D01*
X268437Y192848D01*
X268896Y192390D01*
X269256Y191851D01*
X269504Y191252D01*
X269630Y190616D01*
X269630Y183732D01*
X266629Y183732D01*
G37*
%LPD*%
%LPC*%
G36*
X266629Y168801D02*
X266629Y168801D01*
X266629Y178653D01*
X269630Y178653D01*
X269630Y171768D01*
X269504Y171132D01*
X269256Y170533D01*
X268896Y169994D01*
X268437Y169536D01*
X267898Y169176D01*
X267300Y168928D01*
X266664Y168801D01*
X266629Y168801D01*
G37*
%LPD*%
%LPC*%
G36*
X162870Y152775D02*
X162870Y152775D01*
X162870Y156276D01*
X165165Y156276D01*
X165811Y156103D01*
X166391Y155769D01*
X166864Y155296D01*
X167198Y154716D01*
X167372Y154070D01*
X167372Y152775D01*
X162870Y152775D01*
G37*
%LPD*%
%LPC*%
G36*
X162902Y246310D02*
X162902Y246310D01*
X162902Y249812D01*
X165197Y249812D01*
X165843Y249638D01*
X166423Y249304D01*
X166896Y248831D01*
X167230Y248252D01*
X167403Y247605D01*
X167403Y246310D01*
X162902Y246310D01*
G37*
%LPD*%
%LPC*%
G36*
X84597Y101155D02*
X84597Y101155D01*
X84597Y105656D01*
X88098Y105656D01*
X88098Y103361D01*
X87925Y102715D01*
X87590Y102135D01*
X87117Y101662D01*
X86538Y101328D01*
X85892Y101155D01*
X84597Y101155D01*
G37*
%LPD*%
%LPC*%
G36*
X153322Y246310D02*
X153322Y246310D01*
X153322Y247605D01*
X153495Y248252D01*
X153829Y248831D01*
X154303Y249304D01*
X154882Y249638D01*
X155528Y249812D01*
X157823Y249812D01*
X157823Y246310D01*
X153322Y246310D01*
G37*
%LPD*%
%LPC*%
G36*
X99045Y121580D02*
X99045Y121580D01*
X99045Y125082D01*
X99840Y125082D01*
X100486Y124909D01*
X101066Y124574D01*
X101539Y124101D01*
X101873Y123522D01*
X102046Y122875D01*
X102046Y121580D01*
X99045Y121580D01*
G37*
%LPD*%
%LPC*%
G36*
X99045Y113000D02*
X99045Y113000D01*
X99045Y116502D01*
X102046Y116502D01*
X102046Y115206D01*
X101873Y114560D01*
X101539Y113981D01*
X101066Y113508D01*
X100486Y113173D01*
X99840Y113000D01*
X99045Y113000D01*
G37*
%LPD*%
D10*
X177500Y96750D02*
X177500Y78550D01*
X173000Y78550D01*
X173000Y96750D01*
X177500Y96750D01*
X177500Y79975D02*
X173000Y79975D01*
X173000Y81400D02*
X177500Y81400D01*
X177500Y82825D02*
X173000Y82825D01*
X173000Y84250D02*
X177500Y84250D01*
X177500Y85675D02*
X173000Y85675D01*
X173000Y87100D02*
X177500Y87100D01*
X177500Y88525D02*
X173000Y88525D01*
X173000Y89950D02*
X177500Y89950D01*
X177500Y91375D02*
X173000Y91375D01*
X173000Y92800D02*
X177500Y92800D01*
X177500Y94225D02*
X173000Y94225D01*
X173000Y95650D02*
X177500Y95650D01*
X190200Y96750D02*
X190200Y78550D01*
X185700Y78550D01*
X185700Y96750D01*
X190200Y96750D01*
X190200Y79975D02*
X185700Y79975D01*
X185700Y81400D02*
X190200Y81400D01*
X190200Y82825D02*
X185700Y82825D01*
X185700Y84250D02*
X190200Y84250D01*
X190200Y85675D02*
X185700Y85675D01*
X185700Y87100D02*
X190200Y87100D01*
X190200Y88525D02*
X185700Y88525D01*
X185700Y89950D02*
X190200Y89950D01*
X190200Y91375D02*
X185700Y91375D01*
X185700Y92800D02*
X190200Y92800D01*
X190200Y94225D02*
X185700Y94225D01*
X185700Y95650D02*
X190200Y95650D01*
X202900Y96750D02*
X202900Y78550D01*
X198400Y78550D01*
X198400Y96750D01*
X202900Y96750D01*
X202900Y79975D02*
X198400Y79975D01*
X198400Y81400D02*
X202900Y81400D01*
X202900Y82825D02*
X198400Y82825D01*
X198400Y84250D02*
X202900Y84250D01*
X202900Y85675D02*
X198400Y85675D01*
X198400Y87100D02*
X202900Y87100D01*
X202900Y88525D02*
X198400Y88525D01*
X198400Y89950D02*
X202900Y89950D01*
X202900Y91375D02*
X198400Y91375D01*
X198400Y92800D02*
X202900Y92800D01*
X202900Y94225D02*
X198400Y94225D01*
X198400Y95650D02*
X202900Y95650D01*
X215600Y96750D02*
X215600Y78550D01*
X211100Y78550D01*
X211100Y96750D01*
X215600Y96750D01*
X215600Y79975D02*
X211100Y79975D01*
X211100Y81400D02*
X215600Y81400D01*
X215600Y82825D02*
X211100Y82825D01*
X211100Y84250D02*
X215600Y84250D01*
X215600Y85675D02*
X211100Y85675D01*
X211100Y87100D02*
X215600Y87100D01*
X215600Y88525D02*
X211100Y88525D01*
X211100Y89950D02*
X215600Y89950D01*
X215600Y91375D02*
X211100Y91375D01*
X211100Y92800D02*
X215600Y92800D01*
X215600Y94225D02*
X211100Y94225D01*
X211100Y95650D02*
X215600Y95650D01*
X228300Y96750D02*
X228300Y78550D01*
X223800Y78550D01*
X223800Y96750D01*
X228300Y96750D01*
X228300Y79975D02*
X223800Y79975D01*
X223800Y81400D02*
X228300Y81400D01*
X228300Y82825D02*
X223800Y82825D01*
X223800Y84250D02*
X228300Y84250D01*
X228300Y85675D02*
X223800Y85675D01*
X223800Y87100D02*
X228300Y87100D01*
X228300Y88525D02*
X223800Y88525D01*
X223800Y89950D02*
X228300Y89950D01*
X228300Y91375D02*
X223800Y91375D01*
X223800Y92800D02*
X228300Y92800D01*
X228300Y94225D02*
X223800Y94225D01*
X223800Y95650D02*
X228300Y95650D01*
X241000Y96750D02*
X241000Y78550D01*
X236500Y78550D01*
X236500Y96750D01*
X241000Y96750D01*
X241000Y79975D02*
X236500Y79975D01*
X236500Y81400D02*
X241000Y81400D01*
X241000Y82825D02*
X236500Y82825D01*
X236500Y84250D02*
X241000Y84250D01*
X241000Y85675D02*
X236500Y85675D01*
X236500Y87100D02*
X241000Y87100D01*
X241000Y88525D02*
X236500Y88525D01*
X236500Y89950D02*
X241000Y89950D01*
X241000Y91375D02*
X236500Y91375D01*
X236500Y92800D02*
X241000Y92800D01*
X241000Y94225D02*
X236500Y94225D01*
X236500Y95650D02*
X241000Y95650D01*
X253700Y96750D02*
X253700Y78550D01*
X249200Y78550D01*
X249200Y96750D01*
X253700Y96750D01*
X253700Y79975D02*
X249200Y79975D01*
X249200Y81400D02*
X253700Y81400D01*
X253700Y82825D02*
X249200Y82825D01*
X249200Y84250D02*
X253700Y84250D01*
X253700Y85675D02*
X249200Y85675D01*
X249200Y87100D02*
X253700Y87100D01*
X253700Y88525D02*
X249200Y88525D01*
X249200Y89950D02*
X253700Y89950D01*
X253700Y91375D02*
X249200Y91375D01*
X249200Y92800D02*
X253700Y92800D01*
X253700Y94225D02*
X249200Y94225D01*
X249200Y95650D02*
X253700Y95650D01*
X266400Y96750D02*
X266400Y78550D01*
X261900Y78550D01*
X261900Y96750D01*
X266400Y96750D01*
X266400Y79975D02*
X261900Y79975D01*
X261900Y81400D02*
X266400Y81400D01*
X266400Y82825D02*
X261900Y82825D01*
X261900Y84250D02*
X266400Y84250D01*
X266400Y85675D02*
X261900Y85675D01*
X261900Y87100D02*
X266400Y87100D01*
X266400Y88525D02*
X261900Y88525D01*
X261900Y89950D02*
X266400Y89950D01*
X266400Y91375D02*
X261900Y91375D01*
X261900Y92800D02*
X266400Y92800D01*
X266400Y94225D02*
X261900Y94225D01*
X261900Y95650D02*
X266400Y95650D01*
X266400Y128050D02*
X266400Y146250D01*
X266400Y128050D02*
X261900Y128050D01*
X261900Y146250D01*
X266400Y146250D01*
X266400Y129475D02*
X261900Y129475D01*
X261900Y130900D02*
X266400Y130900D01*
X266400Y132325D02*
X261900Y132325D01*
X261900Y133750D02*
X266400Y133750D01*
X266400Y135175D02*
X261900Y135175D01*
X261900Y136600D02*
X266400Y136600D01*
X266400Y138025D02*
X261900Y138025D01*
X261900Y139450D02*
X266400Y139450D01*
X266400Y140875D02*
X261900Y140875D01*
X261900Y142300D02*
X266400Y142300D01*
X266400Y143725D02*
X261900Y143725D01*
X261900Y145150D02*
X266400Y145150D01*
X253700Y146250D02*
X253700Y128050D01*
X249200Y128050D01*
X249200Y146250D01*
X253700Y146250D01*
X253700Y129475D02*
X249200Y129475D01*
X249200Y130900D02*
X253700Y130900D01*
X253700Y132325D02*
X249200Y132325D01*
X249200Y133750D02*
X253700Y133750D01*
X253700Y135175D02*
X249200Y135175D01*
X249200Y136600D02*
X253700Y136600D01*
X253700Y138025D02*
X249200Y138025D01*
X249200Y139450D02*
X253700Y139450D01*
X253700Y140875D02*
X249200Y140875D01*
X249200Y142300D02*
X253700Y142300D01*
X253700Y143725D02*
X249200Y143725D01*
X249200Y145150D02*
X253700Y145150D01*
X241000Y146250D02*
X241000Y128050D01*
X236500Y128050D01*
X236500Y146250D01*
X241000Y146250D01*
X241000Y129475D02*
X236500Y129475D01*
X236500Y130900D02*
X241000Y130900D01*
X241000Y132325D02*
X236500Y132325D01*
X236500Y133750D02*
X241000Y133750D01*
X241000Y135175D02*
X236500Y135175D01*
X236500Y136600D02*
X241000Y136600D01*
X241000Y138025D02*
X236500Y138025D01*
X236500Y139450D02*
X241000Y139450D01*
X241000Y140875D02*
X236500Y140875D01*
X236500Y142300D02*
X241000Y142300D01*
X241000Y143725D02*
X236500Y143725D01*
X236500Y145150D02*
X241000Y145150D01*
X228300Y146250D02*
X228300Y128050D01*
X223800Y128050D01*
X223800Y146250D01*
X228300Y146250D01*
X228300Y129475D02*
X223800Y129475D01*
X223800Y130900D02*
X228300Y130900D01*
X228300Y132325D02*
X223800Y132325D01*
X223800Y133750D02*
X228300Y133750D01*
X228300Y135175D02*
X223800Y135175D01*
X223800Y136600D02*
X228300Y136600D01*
X228300Y138025D02*
X223800Y138025D01*
X223800Y139450D02*
X228300Y139450D01*
X228300Y140875D02*
X223800Y140875D01*
X223800Y142300D02*
X228300Y142300D01*
X228300Y143725D02*
X223800Y143725D01*
X223800Y145150D02*
X228300Y145150D01*
X215600Y146250D02*
X215600Y128050D01*
X211100Y128050D01*
X211100Y146250D01*
X215600Y146250D01*
X215600Y129475D02*
X211100Y129475D01*
X211100Y130900D02*
X215600Y130900D01*
X215600Y132325D02*
X211100Y132325D01*
X211100Y133750D02*
X215600Y133750D01*
X215600Y135175D02*
X211100Y135175D01*
X211100Y136600D02*
X215600Y136600D01*
X215600Y138025D02*
X211100Y138025D01*
X211100Y139450D02*
X215600Y139450D01*
X215600Y140875D02*
X211100Y140875D01*
X211100Y142300D02*
X215600Y142300D01*
X215600Y143725D02*
X211100Y143725D01*
X211100Y145150D02*
X215600Y145150D01*
X202900Y146250D02*
X202900Y128050D01*
X198400Y128050D01*
X198400Y146250D01*
X202900Y146250D01*
X202900Y129475D02*
X198400Y129475D01*
X198400Y130900D02*
X202900Y130900D01*
X202900Y132325D02*
X198400Y132325D01*
X198400Y133750D02*
X202900Y133750D01*
X202900Y135175D02*
X198400Y135175D01*
X198400Y136600D02*
X202900Y136600D01*
X202900Y138025D02*
X198400Y138025D01*
X198400Y139450D02*
X202900Y139450D01*
X202900Y140875D02*
X198400Y140875D01*
X198400Y142300D02*
X202900Y142300D01*
X202900Y143725D02*
X198400Y143725D01*
X198400Y145150D02*
X202900Y145150D01*
X190200Y146250D02*
X190200Y128050D01*
X185700Y128050D01*
X185700Y146250D01*
X190200Y146250D01*
X190200Y129475D02*
X185700Y129475D01*
X185700Y130900D02*
X190200Y130900D01*
X190200Y132325D02*
X185700Y132325D01*
X185700Y133750D02*
X190200Y133750D01*
X190200Y135175D02*
X185700Y135175D01*
X185700Y136600D02*
X190200Y136600D01*
X190200Y138025D02*
X185700Y138025D01*
X185700Y139450D02*
X190200Y139450D01*
X190200Y140875D02*
X185700Y140875D01*
X185700Y142300D02*
X190200Y142300D01*
X190200Y143725D02*
X185700Y143725D01*
X185700Y145150D02*
X190200Y145150D01*
X177500Y146250D02*
X177500Y128050D01*
X173000Y128050D01*
X173000Y146250D01*
X177500Y146250D01*
X177500Y129475D02*
X173000Y129475D01*
X173000Y130900D02*
X177500Y130900D01*
X177500Y132325D02*
X173000Y132325D01*
X173000Y133750D02*
X177500Y133750D01*
X177500Y135175D02*
X173000Y135175D01*
X173000Y136600D02*
X177500Y136600D01*
X177500Y138025D02*
X173000Y138025D01*
X173000Y139450D02*
X177500Y139450D01*
X177500Y140875D02*
X173000Y140875D01*
X173000Y142300D02*
X177500Y142300D01*
X177500Y143725D02*
X173000Y143725D01*
X173000Y145150D02*
X177500Y145150D01*
X177440Y172092D02*
X177440Y190292D01*
X177440Y172092D02*
X172940Y172092D01*
X172940Y190292D01*
X177440Y190292D01*
X177440Y173517D02*
X172940Y173517D01*
X172940Y174942D02*
X177440Y174942D01*
X177440Y176367D02*
X172940Y176367D01*
X172940Y177792D02*
X177440Y177792D01*
X177440Y179217D02*
X172940Y179217D01*
X172940Y180642D02*
X177440Y180642D01*
X177440Y182067D02*
X172940Y182067D01*
X172940Y183492D02*
X177440Y183492D01*
X177440Y184917D02*
X172940Y184917D01*
X172940Y186342D02*
X177440Y186342D01*
X177440Y187767D02*
X172940Y187767D01*
X172940Y189192D02*
X177440Y189192D01*
X190140Y190292D02*
X190140Y172092D01*
X185640Y172092D01*
X185640Y190292D01*
X190140Y190292D01*
X190140Y173517D02*
X185640Y173517D01*
X185640Y174942D02*
X190140Y174942D01*
X190140Y176367D02*
X185640Y176367D01*
X185640Y177792D02*
X190140Y177792D01*
X190140Y179217D02*
X185640Y179217D01*
X185640Y180642D02*
X190140Y180642D01*
X190140Y182067D02*
X185640Y182067D01*
X185640Y183492D02*
X190140Y183492D01*
X190140Y184917D02*
X185640Y184917D01*
X185640Y186342D02*
X190140Y186342D01*
X190140Y187767D02*
X185640Y187767D01*
X185640Y189192D02*
X190140Y189192D01*
X202840Y190292D02*
X202840Y172092D01*
X198340Y172092D01*
X198340Y190292D01*
X202840Y190292D01*
X202840Y173517D02*
X198340Y173517D01*
X198340Y174942D02*
X202840Y174942D01*
X202840Y176367D02*
X198340Y176367D01*
X198340Y177792D02*
X202840Y177792D01*
X202840Y179217D02*
X198340Y179217D01*
X198340Y180642D02*
X202840Y180642D01*
X202840Y182067D02*
X198340Y182067D01*
X198340Y183492D02*
X202840Y183492D01*
X202840Y184917D02*
X198340Y184917D01*
X198340Y186342D02*
X202840Y186342D01*
X202840Y187767D02*
X198340Y187767D01*
X198340Y189192D02*
X202840Y189192D01*
X215540Y190292D02*
X215540Y172092D01*
X211040Y172092D01*
X211040Y190292D01*
X215540Y190292D01*
X215540Y173517D02*
X211040Y173517D01*
X211040Y174942D02*
X215540Y174942D01*
X215540Y176367D02*
X211040Y176367D01*
X211040Y177792D02*
X215540Y177792D01*
X215540Y179217D02*
X211040Y179217D01*
X211040Y180642D02*
X215540Y180642D01*
X215540Y182067D02*
X211040Y182067D01*
X211040Y183492D02*
X215540Y183492D01*
X215540Y184917D02*
X211040Y184917D01*
X211040Y186342D02*
X215540Y186342D01*
X215540Y187767D02*
X211040Y187767D01*
X211040Y189192D02*
X215540Y189192D01*
X228240Y190292D02*
X228240Y172092D01*
X223740Y172092D01*
X223740Y190292D01*
X228240Y190292D01*
X228240Y173517D02*
X223740Y173517D01*
X223740Y174942D02*
X228240Y174942D01*
X228240Y176367D02*
X223740Y176367D01*
X223740Y177792D02*
X228240Y177792D01*
X228240Y179217D02*
X223740Y179217D01*
X223740Y180642D02*
X228240Y180642D01*
X228240Y182067D02*
X223740Y182067D01*
X223740Y183492D02*
X228240Y183492D01*
X228240Y184917D02*
X223740Y184917D01*
X223740Y186342D02*
X228240Y186342D01*
X228240Y187767D02*
X223740Y187767D01*
X223740Y189192D02*
X228240Y189192D01*
X240940Y190292D02*
X240940Y172092D01*
X236440Y172092D01*
X236440Y190292D01*
X240940Y190292D01*
X240940Y173517D02*
X236440Y173517D01*
X236440Y174942D02*
X240940Y174942D01*
X240940Y176367D02*
X236440Y176367D01*
X236440Y177792D02*
X240940Y177792D01*
X240940Y179217D02*
X236440Y179217D01*
X236440Y180642D02*
X240940Y180642D01*
X240940Y182067D02*
X236440Y182067D01*
X236440Y183492D02*
X240940Y183492D01*
X240940Y184917D02*
X236440Y184917D01*
X236440Y186342D02*
X240940Y186342D01*
X240940Y187767D02*
X236440Y187767D01*
X236440Y189192D02*
X240940Y189192D01*
X253640Y190292D02*
X253640Y172092D01*
X249140Y172092D01*
X249140Y190292D01*
X253640Y190292D01*
X253640Y173517D02*
X249140Y173517D01*
X249140Y174942D02*
X253640Y174942D01*
X253640Y176367D02*
X249140Y176367D01*
X249140Y177792D02*
X253640Y177792D01*
X253640Y179217D02*
X249140Y179217D01*
X249140Y180642D02*
X253640Y180642D01*
X253640Y182067D02*
X249140Y182067D01*
X249140Y183492D02*
X253640Y183492D01*
X253640Y184917D02*
X249140Y184917D01*
X249140Y186342D02*
X253640Y186342D01*
X253640Y187767D02*
X249140Y187767D01*
X249140Y189192D02*
X253640Y189192D01*
X266340Y190292D02*
X266340Y172092D01*
X261840Y172092D01*
X261840Y190292D01*
X266340Y190292D01*
X266340Y173517D02*
X261840Y173517D01*
X261840Y174942D02*
X266340Y174942D01*
X266340Y176367D02*
X261840Y176367D01*
X261840Y177792D02*
X266340Y177792D01*
X266340Y179217D02*
X261840Y179217D01*
X261840Y180642D02*
X266340Y180642D01*
X266340Y182067D02*
X261840Y182067D01*
X261840Y183492D02*
X266340Y183492D01*
X266340Y184917D02*
X261840Y184917D01*
X261840Y186342D02*
X266340Y186342D01*
X266340Y187767D02*
X261840Y187767D01*
X261840Y189192D02*
X266340Y189192D01*
X266340Y221592D02*
X266340Y239792D01*
X266340Y221592D02*
X261840Y221592D01*
X261840Y239792D01*
X266340Y239792D01*
X266340Y223017D02*
X261840Y223017D01*
X261840Y224442D02*
X266340Y224442D01*
X266340Y225867D02*
X261840Y225867D01*
X261840Y227292D02*
X266340Y227292D01*
X266340Y228717D02*
X261840Y228717D01*
X261840Y230142D02*
X266340Y230142D01*
X266340Y231567D02*
X261840Y231567D01*
X261840Y232992D02*
X266340Y232992D01*
X266340Y234417D02*
X261840Y234417D01*
X261840Y235842D02*
X266340Y235842D01*
X266340Y237267D02*
X261840Y237267D01*
X261840Y238692D02*
X266340Y238692D01*
X253640Y239792D02*
X253640Y221592D01*
X249140Y221592D01*
X249140Y239792D01*
X253640Y239792D01*
X253640Y223017D02*
X249140Y223017D01*
X249140Y224442D02*
X253640Y224442D01*
X253640Y225867D02*
X249140Y225867D01*
X249140Y227292D02*
X253640Y227292D01*
X253640Y228717D02*
X249140Y228717D01*
X249140Y230142D02*
X253640Y230142D01*
X253640Y231567D02*
X249140Y231567D01*
X249140Y232992D02*
X253640Y232992D01*
X253640Y234417D02*
X249140Y234417D01*
X249140Y235842D02*
X253640Y235842D01*
X253640Y237267D02*
X249140Y237267D01*
X249140Y238692D02*
X253640Y238692D01*
X240940Y239792D02*
X240940Y221592D01*
X236440Y221592D01*
X236440Y239792D01*
X240940Y239792D01*
X240940Y223017D02*
X236440Y223017D01*
X236440Y224442D02*
X240940Y224442D01*
X240940Y225867D02*
X236440Y225867D01*
X236440Y227292D02*
X240940Y227292D01*
X240940Y228717D02*
X236440Y228717D01*
X236440Y230142D02*
X240940Y230142D01*
X240940Y231567D02*
X236440Y231567D01*
X236440Y232992D02*
X240940Y232992D01*
X240940Y234417D02*
X236440Y234417D01*
X236440Y235842D02*
X240940Y235842D01*
X240940Y237267D02*
X236440Y237267D01*
X236440Y238692D02*
X240940Y238692D01*
X228240Y239792D02*
X228240Y221592D01*
X223740Y221592D01*
X223740Y239792D01*
X228240Y239792D01*
X228240Y223017D02*
X223740Y223017D01*
X223740Y224442D02*
X228240Y224442D01*
X228240Y225867D02*
X223740Y225867D01*
X223740Y227292D02*
X228240Y227292D01*
X228240Y228717D02*
X223740Y228717D01*
X223740Y230142D02*
X228240Y230142D01*
X228240Y231567D02*
X223740Y231567D01*
X223740Y232992D02*
X228240Y232992D01*
X228240Y234417D02*
X223740Y234417D01*
X223740Y235842D02*
X228240Y235842D01*
X228240Y237267D02*
X223740Y237267D01*
X223740Y238692D02*
X228240Y238692D01*
X215540Y239792D02*
X215540Y221592D01*
X211040Y221592D01*
X211040Y239792D01*
X215540Y239792D01*
X215540Y223017D02*
X211040Y223017D01*
X211040Y224442D02*
X215540Y224442D01*
X215540Y225867D02*
X211040Y225867D01*
X211040Y227292D02*
X215540Y227292D01*
X215540Y228717D02*
X211040Y228717D01*
X211040Y230142D02*
X215540Y230142D01*
X215540Y231567D02*
X211040Y231567D01*
X211040Y232992D02*
X215540Y232992D01*
X215540Y234417D02*
X211040Y234417D01*
X211040Y235842D02*
X215540Y235842D01*
X215540Y237267D02*
X211040Y237267D01*
X211040Y238692D02*
X215540Y238692D01*
X202840Y239792D02*
X202840Y221592D01*
X198340Y221592D01*
X198340Y239792D01*
X202840Y239792D01*
X202840Y223017D02*
X198340Y223017D01*
X198340Y224442D02*
X202840Y224442D01*
X202840Y225867D02*
X198340Y225867D01*
X198340Y227292D02*
X202840Y227292D01*
X202840Y228717D02*
X198340Y228717D01*
X198340Y230142D02*
X202840Y230142D01*
X202840Y231567D02*
X198340Y231567D01*
X198340Y232992D02*
X202840Y232992D01*
X202840Y234417D02*
X198340Y234417D01*
X198340Y235842D02*
X202840Y235842D01*
X202840Y237267D02*
X198340Y237267D01*
X198340Y238692D02*
X202840Y238692D01*
X190140Y239792D02*
X190140Y221592D01*
X185640Y221592D01*
X185640Y239792D01*
X190140Y239792D01*
X190140Y223017D02*
X185640Y223017D01*
X185640Y224442D02*
X190140Y224442D01*
X190140Y225867D02*
X185640Y225867D01*
X185640Y227292D02*
X190140Y227292D01*
X190140Y228717D02*
X185640Y228717D01*
X185640Y230142D02*
X190140Y230142D01*
X190140Y231567D02*
X185640Y231567D01*
X185640Y232992D02*
X190140Y232992D01*
X190140Y234417D02*
X185640Y234417D01*
X185640Y235842D02*
X190140Y235842D01*
X190140Y237267D02*
X185640Y237267D01*
X185640Y238692D02*
X190140Y238692D01*
X177440Y239792D02*
X177440Y221592D01*
X172940Y221592D01*
X172940Y239792D01*
X177440Y239792D01*
X177440Y223017D02*
X172940Y223017D01*
X172940Y224442D02*
X177440Y224442D01*
X177440Y225867D02*
X172940Y225867D01*
X172940Y227292D02*
X177440Y227292D01*
X177440Y228717D02*
X172940Y228717D01*
X172940Y230142D02*
X177440Y230142D01*
X177440Y231567D02*
X172940Y231567D01*
X172940Y232992D02*
X177440Y232992D01*
X177440Y234417D02*
X172940Y234417D01*
X172940Y235842D02*
X177440Y235842D01*
X177440Y237267D02*
X172940Y237267D01*
X172940Y238692D02*
X177440Y238692D01*
D11*
X368500Y89000D03*
X368500Y109000D03*
X368500Y129000D03*
X368500Y149000D03*
X368500Y169000D03*
D12*
X368500Y189000D03*
D13*
X28000Y219000D03*
X28000Y199000D03*
X28000Y239000D03*
X28000Y179000D03*
X28000Y159000D03*
X28000Y139000D03*
X28000Y119000D03*
D14*
X28000Y99000D03*
D15*
X139200Y374600D03*
X139200Y400000D03*
X164600Y374600D03*
X164600Y400000D03*
X190000Y374600D03*
X190000Y400000D03*
X215400Y374600D03*
X215400Y400000D03*
X240800Y374600D03*
X240800Y400000D03*
D16*
X263500Y27620D02*
X263500Y12380D01*
X238100Y12380D02*
X238100Y27620D01*
X212700Y27620D02*
X212700Y12380D01*
X187300Y12380D02*
X187300Y27620D01*
X161900Y27620D02*
X161900Y12380D01*
X136500Y12380D02*
X136500Y27620D01*
X111100Y27620D02*
X111100Y12380D01*
X288900Y12380D02*
X288900Y27620D01*
D17*
X96592Y146100D03*
X96592Y152600D03*
X96592Y159100D03*
X78092Y159100D03*
X78092Y152600D03*
X78092Y146100D03*
D18*
X75892Y119066D03*
X65892Y119066D03*
X96506Y119041D03*
X86506Y119041D03*
D19*
X67470Y146737D03*
X67470Y133737D03*
D20*
X298368Y267504D03*
X298368Y309004D03*
D21*
X101600Y198000D03*
X101600Y183000D03*
X88900Y198000D03*
X88900Y183000D03*
X76200Y198000D03*
X76200Y183000D03*
D22*
X101600Y220900D03*
X101600Y210900D03*
X88900Y220900D03*
X88900Y210900D03*
X76200Y220900D03*
X76200Y210900D03*
D18*
X179485Y42153D03*
X169485Y42153D03*
D22*
X179501Y62507D03*
X179501Y52507D03*
X169458Y62511D03*
X169458Y52511D03*
D18*
X220446Y41950D03*
X230446Y41950D03*
D22*
X220374Y52289D03*
X220374Y62289D03*
X230484Y52302D03*
X230484Y62302D03*
D18*
X281085Y41804D03*
X271085Y41804D03*
D22*
X271081Y62172D03*
X271081Y52172D03*
X281100Y62165D03*
X281100Y52165D03*
D19*
X158459Y59308D03*
X158459Y46308D03*
X190579Y59270D03*
X190579Y46270D03*
X209466Y59003D03*
X209466Y46003D03*
X241558Y59045D03*
X241558Y46045D03*
X259923Y58884D03*
X259923Y45884D03*
X292598Y58925D03*
X292598Y45925D03*
D22*
X160540Y119600D03*
X160540Y109600D03*
D19*
X160331Y137236D03*
X160331Y150236D03*
D22*
X160322Y208236D03*
X160322Y198236D03*
D19*
X160363Y230771D03*
X160363Y243771D03*
D23*
X117581Y43114D03*
X130581Y43114D03*
D24*
X326224Y153551D03*
X326224Y168791D03*
X326224Y184031D03*
D18*
X297671Y241073D03*
X307671Y241073D03*
D23*
X69057Y108195D03*
X82057Y108195D03*
D25*
X302533Y202874D03*
X293033Y224874D03*
X312033Y224874D03*
D26*
X169458Y69355D02*
X169458Y62511D01*
X169458Y69355D02*
X167856Y70957D01*
X167856Y98531D01*
X187950Y98913D02*
X187950Y87650D01*
X171204Y101878D02*
X167856Y98531D01*
X171204Y101878D02*
X184984Y101878D01*
X187950Y98913D01*
X169458Y62511D02*
X166255Y59308D01*
X158459Y59308D01*
X179501Y62507D02*
X179501Y69448D01*
X175250Y73699D02*
X175250Y87650D01*
X175250Y73699D02*
X179501Y69448D01*
X179501Y62507D02*
X182739Y59270D01*
X190579Y59270D01*
D27*
X179485Y27815D02*
X187300Y20000D01*
X179485Y27815D02*
X179485Y42153D01*
X179485Y52490D01*
X179501Y52507D01*
X169485Y27585D02*
X161900Y20000D01*
X169485Y27585D02*
X169485Y42153D01*
X169485Y52484D01*
X169458Y52511D01*
D28*
X101600Y220900D02*
X88900Y220900D01*
X76200Y220900D01*
D29*
X104392Y153168D03*
D26*
X96655Y152663D02*
X96592Y152600D01*
X96655Y152663D02*
X103887Y152663D01*
X104392Y153168D01*
D29*
X94766Y108306D03*
X81957Y96832D03*
X108109Y119425D03*
X65561Y217362D03*
X65561Y205288D03*
X65561Y191213D03*
X149757Y36633D03*
X199964Y37322D03*
X250547Y36319D03*
D26*
X199964Y37322D02*
X199527Y37322D01*
X190579Y46270D01*
X199964Y37322D02*
X208645Y46003D01*
X209466Y46003D01*
X241558Y45308D02*
X250547Y36319D01*
X241558Y45308D02*
X241558Y46045D01*
X250547Y36319D02*
X259923Y45695D01*
X259923Y45884D01*
X250547Y36319D02*
X250191Y36675D01*
X250191Y63919D01*
X264150Y73931D02*
X264150Y87650D01*
X256166Y69894D02*
X250191Y63919D01*
X256166Y69894D02*
X260114Y69894D01*
X264150Y73931D01*
D29*
X263927Y198884D03*
X264321Y163692D03*
X286253Y241034D03*
X280868Y225408D03*
X147848Y243555D03*
X173962Y154315D03*
X160068Y163955D03*
X160133Y257717D03*
X146467Y44627D03*
X304097Y45923D03*
D26*
X239668Y70818D02*
X231151Y62302D01*
X230484Y62302D01*
X251450Y75620D02*
X251450Y87650D01*
X246648Y70818D02*
X239668Y70818D01*
X246648Y70818D02*
X251450Y75620D01*
X233740Y59045D02*
X230484Y62302D01*
X233740Y59045D02*
X241558Y59045D01*
X220374Y62289D02*
X220374Y66049D01*
X225412Y71087D02*
X230519Y71087D01*
X238750Y79319D01*
X238750Y87650D01*
X225412Y71087D02*
X220374Y66049D01*
X220374Y62289D02*
X217088Y59003D01*
X209466Y59003D01*
D27*
X263500Y20000D02*
X271085Y27585D01*
X271085Y41804D01*
X271085Y52168D01*
X271081Y52172D01*
X281085Y27815D02*
X288900Y20000D01*
X281085Y27815D02*
X281085Y41804D01*
X281085Y52150D01*
X281100Y52165D01*
X220446Y27746D02*
X212700Y20000D01*
X220446Y27746D02*
X220446Y41950D01*
X220446Y52217D01*
X220374Y52289D01*
X230446Y27654D02*
X238100Y20000D01*
X230446Y27654D02*
X230446Y41950D01*
X230446Y52263D01*
X230484Y52302D01*
D26*
X267793Y58884D02*
X271081Y62172D01*
X267793Y58884D02*
X259923Y58884D01*
X271081Y62172D02*
X271081Y99930D01*
X251330Y137030D02*
X251450Y137150D01*
X251330Y119681D02*
X271081Y99930D01*
X251330Y119681D02*
X251330Y137030D01*
X281100Y62165D02*
X284340Y58925D01*
X292598Y58925D01*
X281100Y62165D02*
X281100Y102132D01*
X264150Y119082D02*
X264150Y137150D01*
X264150Y119082D02*
X281100Y102132D01*
X78092Y152600D02*
X73332Y152600D01*
X67470Y146737D01*
D28*
X22129Y148694D02*
X15923Y142489D01*
X22129Y148694D02*
X65513Y148694D01*
X67470Y146737D01*
X15923Y142489D02*
X15923Y103818D01*
X15923Y142489D02*
X15923Y148558D01*
X15923Y151287D01*
X15923Y154784D01*
X15923Y163649D01*
X15923Y165073D01*
X76200Y174312D02*
X76200Y183000D01*
X19853Y169003D02*
X15923Y165073D01*
X19853Y169003D02*
X25400Y169003D01*
X70891Y169003D01*
X76200Y174312D01*
X22129Y148694D02*
X16059Y148694D01*
X15923Y148558D01*
X22129Y148694D02*
X16038Y154784D01*
X15923Y154784D01*
D26*
X272385Y309004D02*
X298368Y309004D01*
X268011Y313378D02*
X268011Y369365D01*
X264853Y372523D01*
X264853Y372523D01*
X261099Y376277D01*
X109768Y427880D02*
X98206Y416318D01*
X98206Y260359D02*
X93445Y255598D01*
X10569Y169003D02*
X13586Y165986D01*
X15923Y163649D01*
X268011Y313378D02*
X272385Y309004D01*
X261099Y376277D02*
X261099Y418367D01*
X251586Y427880D01*
X109768Y427880D01*
X98206Y416318D02*
X98206Y260359D01*
X93445Y255598D02*
X18290Y255598D01*
X10209Y247518D01*
X10209Y176931D01*
X10209Y172613D02*
X10209Y171494D01*
X10209Y169363D01*
X15923Y165073D02*
X15923Y151287D01*
X16836Y165986D02*
X13586Y165986D01*
X16836Y165986D02*
X19853Y169003D01*
X16038Y154784D02*
X15923Y154669D01*
X15923Y103818D01*
X20741Y99000D01*
X28000Y99000D01*
X298368Y309004D02*
X314613Y309004D01*
X321374Y302242D01*
X321374Y206841D01*
X378016Y201563D02*
X382279Y197300D01*
X382279Y92358D01*
X378828Y88907D01*
X368593Y88907D01*
X368500Y89000D01*
X326653Y201563D02*
X321374Y206841D01*
X326653Y201563D02*
X378016Y201563D01*
X25400Y169003D02*
X12700Y169003D01*
X10569Y169003D01*
X10209Y169363D01*
X10209Y171494D02*
X12700Y169003D01*
X10209Y172613D02*
X16836Y165986D01*
X10209Y172613D02*
X10209Y176931D01*
X18137Y169003D02*
X19853Y169003D01*
X18137Y169003D02*
X10209Y176931D01*
X160441Y230692D02*
X175190Y230692D01*
X160441Y230692D02*
X160363Y230771D01*
D30*
X152118Y230771D01*
X144605Y65409D02*
X136039Y56843D01*
X114300Y56843D01*
X103852Y56843D01*
X52411Y56843D01*
X28000Y81254D02*
X28000Y99000D01*
X144605Y223259D02*
X152118Y230771D01*
X144605Y223259D02*
X144605Y139700D01*
X144605Y65409D01*
X52411Y56843D02*
X28000Y81254D01*
X111100Y36634D02*
X111100Y20000D01*
X111100Y36634D02*
X117581Y43114D01*
X117581Y53562D01*
X114300Y56843D01*
X103852Y56843D02*
X117581Y43114D01*
X111100Y53643D02*
X111100Y20000D01*
X111100Y53643D02*
X114300Y56843D01*
X147070Y137236D02*
X160331Y137236D01*
X147070Y137236D02*
X144605Y139700D01*
D26*
X160416Y137150D02*
X175250Y137150D01*
X160416Y137150D02*
X160331Y137236D01*
X160540Y137026D02*
X160540Y119600D01*
X160540Y137026D02*
X160416Y137150D01*
X160322Y208236D02*
X160322Y230731D01*
X160363Y230771D01*
X213350Y87650D02*
X213350Y75365D01*
X210518Y72533D01*
X196788Y72533D01*
X186692Y109600D02*
X160540Y109600D01*
X194286Y75035D02*
X196788Y72533D01*
X194286Y75035D02*
X194286Y102006D01*
X186692Y109600D01*
X238750Y137150D02*
X238750Y147462D01*
X245024Y153737D01*
X326039Y153737D01*
X326224Y153551D01*
X200590Y230692D02*
X200590Y317368D01*
X177289Y387289D02*
X190000Y400000D01*
X177289Y340668D02*
X200590Y317368D01*
X177289Y340668D02*
X177289Y387289D01*
X213290Y324676D02*
X213290Y230692D01*
X190000Y347966D02*
X190000Y374600D01*
X190000Y347966D02*
X213290Y324676D01*
X251390Y338244D02*
X251390Y230692D01*
X228196Y387204D02*
X215400Y400000D01*
X228196Y361438D02*
X251390Y338244D01*
X228196Y361438D02*
X228196Y387204D01*
X238690Y334228D02*
X238690Y230692D01*
X215400Y357518D02*
X215400Y374600D01*
X215400Y357518D02*
X238690Y334228D01*
X213290Y181192D02*
X213290Y167138D01*
X214977Y165451D01*
D31*
X214977Y165451D03*
X199010Y165451D03*
D26*
X195939Y165451D01*
X194193Y167198D01*
X189593Y198236D02*
X160322Y198236D01*
X194193Y193636D02*
X194193Y167198D01*
X194193Y193636D02*
X189593Y198236D01*
D30*
X326224Y168791D02*
X368291Y168791D01*
X368500Y169000D01*
D26*
X226050Y97444D02*
X226050Y87650D01*
X226050Y97444D02*
X232388Y103782D01*
X232388Y112667D01*
X232388Y114757D02*
X232388Y120400D01*
X232388Y153378D01*
X264090Y214060D02*
X264090Y230692D01*
X245097Y166087D02*
X232388Y153378D01*
X245097Y166087D02*
X245097Y195067D01*
X264090Y214060D01*
X244349Y112667D02*
X241300Y112667D01*
X244349Y112667D02*
X244365Y112650D01*
D31*
X244365Y112650D03*
X281100Y113239D03*
D26*
X237518Y108884D02*
X232416Y103782D01*
X237518Y108884D02*
X241300Y112667D01*
X232416Y103782D02*
X232388Y103782D01*
X235799Y118168D02*
X233566Y120400D01*
X235799Y118168D02*
X241300Y112667D01*
X233566Y120400D02*
X232388Y120400D01*
X232388Y114757D02*
X232388Y112667D01*
X232388Y114757D02*
X235799Y118168D01*
X233735Y112667D02*
X241300Y112667D01*
X233735Y112667D02*
X232388Y112667D01*
X233735Y112667D02*
X237518Y108884D01*
X281100Y113239D02*
X308085Y140224D01*
X359724Y140224D02*
X368500Y149000D01*
X359724Y140224D02*
X308085Y140224D01*
X200650Y98446D02*
X200650Y87650D01*
X187890Y215351D02*
X187890Y230692D01*
X206973Y104769D02*
X206971Y104767D01*
X206973Y104769D02*
X206973Y113407D01*
X206973Y196268D01*
X187890Y215351D01*
X206971Y104767D02*
X206883Y104679D01*
X216982Y104767D02*
X217071Y104679D01*
D31*
X217071Y104679D03*
X288926Y104679D03*
D26*
X216982Y104767D02*
X206971Y104767D01*
X215701Y104679D02*
X217071Y104679D01*
X215701Y104679D02*
X206973Y113407D01*
X206883Y104679D02*
X200650Y98446D01*
X206883Y104679D02*
X217071Y104679D01*
X288926Y104679D02*
X313247Y129000D01*
X368500Y129000D01*
X69057Y108195D02*
X65892Y111361D01*
X65892Y119066D01*
X65827Y119000D01*
X28000Y119000D01*
X28100Y159100D02*
X78092Y159100D01*
X28100Y159100D02*
X28000Y159000D01*
X164600Y400000D02*
X164600Y405492D01*
X155481Y414611D01*
X42885Y219000D02*
X28000Y219000D01*
X118618Y414611D02*
X155481Y414611D01*
X118618Y414611D02*
X111418Y407412D01*
X111418Y253745D01*
X99933Y242261D01*
X66146Y242261D01*
X42885Y219000D01*
X75892Y119066D02*
X86481Y119066D01*
X86506Y119041D01*
D28*
X89963Y122499D01*
X92286Y159100D02*
X96592Y159100D01*
X89963Y156777D02*
X89963Y122499D01*
X89963Y156777D02*
X92286Y159100D01*
D26*
X96592Y146100D02*
X115382Y146100D01*
X164600Y362540D02*
X164600Y374600D01*
X124628Y155346D02*
X115382Y146100D01*
X124628Y155346D02*
X124628Y348940D01*
X133058Y357369D01*
X159430Y357369D01*
X164600Y362540D01*
X88900Y183000D02*
X88900Y177898D01*
X92373Y174425D02*
X110131Y174425D01*
X118024Y182318D01*
X118024Y392546D02*
X125693Y400214D01*
X138986Y400214D01*
X139200Y400000D01*
X88900Y177898D02*
X92373Y174425D01*
X118024Y182318D02*
X118024Y392546D01*
D28*
X82226Y146100D02*
X78092Y146100D01*
X85427Y174425D02*
X88900Y177898D01*
X84378Y148251D02*
X82226Y146100D01*
X84378Y148251D02*
X84378Y167632D01*
X84109Y167363D02*
X84109Y173107D01*
X85427Y174425D02*
X91171Y174425D01*
X85427Y174425D02*
X84109Y173107D01*
X91171Y174425D02*
X92373Y174425D01*
X91171Y174425D02*
X84378Y167632D01*
X84109Y167363D01*
X101600Y198000D02*
X101600Y210900D01*
X88900Y210900D02*
X88900Y198000D01*
X76200Y198000D02*
X76200Y210900D01*
D26*
X312033Y224874D02*
X312033Y236711D01*
X307671Y241073D01*
X307671Y246536D01*
X298368Y255839D01*
X298368Y267504D01*
X268464Y267262D02*
X261407Y274319D01*
X268464Y267262D02*
X298126Y267262D01*
X298368Y267504D01*
X253437Y374600D02*
X248095Y374600D01*
X253437Y374600D02*
X261407Y366630D01*
X261407Y274319D01*
X241000Y374400D02*
X240800Y374600D01*
X241000Y374400D02*
X254495Y374400D01*
X22574Y228994D02*
X16784Y223203D01*
X16784Y214864D01*
X254495Y374400D02*
X254495Y381000D01*
X254495Y415631D01*
X248851Y421276D01*
X112504Y421276D01*
X104810Y413582D01*
X104810Y257624D01*
X96180Y248994D01*
X62330Y248994D01*
X42330Y228994D01*
X22574Y228994D01*
X16784Y214864D02*
X22640Y209008D01*
X42445Y209008D01*
X68984Y235547D01*
X105956Y235547D02*
X111420Y230083D01*
X111420Y186454D01*
X107966Y183000D02*
X101600Y183000D01*
X105956Y235547D02*
X68984Y235547D01*
X111420Y186454D02*
X107966Y183000D01*
X248095Y374600D02*
X254495Y381000D01*
X248095Y374600D02*
X240800Y374600D01*
X248095Y374600D01*
D30*
X321377Y184031D02*
X326224Y184031D01*
X321377Y184031D02*
X302533Y202874D01*
M02*
