G04 EAGLE Gerber RS-274X export*
G75*
%MOMM*%
%FSLAX34Y34*%
%LPD*%
%INBoard Outline*%
%IPPOS*%
%AMOC8*
5,1,8,0,0,1.08239X$1,22.5*%
G01*
%ADD10C,0.152400*%
%ADD11C,0.000000*%
%ADD12C,0.254000*%


D10*
X390000Y210000D02*
X390000Y30000D01*
X360000Y0D02*
X30000Y0D01*
D11*
X12000Y430000D02*
X12005Y430368D01*
X12018Y430736D01*
X12041Y431103D01*
X12072Y431470D01*
X12113Y431836D01*
X12162Y432201D01*
X12221Y432564D01*
X12288Y432926D01*
X12364Y433287D01*
X12450Y433645D01*
X12543Y434001D01*
X12646Y434354D01*
X12757Y434705D01*
X12877Y435053D01*
X13005Y435398D01*
X13142Y435740D01*
X13287Y436079D01*
X13440Y436413D01*
X13602Y436744D01*
X13771Y437071D01*
X13949Y437393D01*
X14134Y437712D01*
X14327Y438025D01*
X14528Y438334D01*
X14736Y438637D01*
X14952Y438935D01*
X15175Y439228D01*
X15405Y439516D01*
X15642Y439798D01*
X15886Y440073D01*
X16136Y440343D01*
X16393Y440607D01*
X16657Y440864D01*
X16927Y441114D01*
X17202Y441358D01*
X17484Y441595D01*
X17772Y441825D01*
X18065Y442048D01*
X18363Y442264D01*
X18666Y442472D01*
X18975Y442673D01*
X19288Y442866D01*
X19607Y443051D01*
X19929Y443229D01*
X20256Y443398D01*
X20587Y443560D01*
X20921Y443713D01*
X21260Y443858D01*
X21602Y443995D01*
X21947Y444123D01*
X22295Y444243D01*
X22646Y444354D01*
X22999Y444457D01*
X23355Y444550D01*
X23713Y444636D01*
X24074Y444712D01*
X24436Y444779D01*
X24799Y444838D01*
X25164Y444887D01*
X25530Y444928D01*
X25897Y444959D01*
X26264Y444982D01*
X26632Y444995D01*
X27000Y445000D01*
X27368Y444995D01*
X27736Y444982D01*
X28103Y444959D01*
X28470Y444928D01*
X28836Y444887D01*
X29201Y444838D01*
X29564Y444779D01*
X29926Y444712D01*
X30287Y444636D01*
X30645Y444550D01*
X31001Y444457D01*
X31354Y444354D01*
X31705Y444243D01*
X32053Y444123D01*
X32398Y443995D01*
X32740Y443858D01*
X33079Y443713D01*
X33413Y443560D01*
X33744Y443398D01*
X34071Y443229D01*
X34393Y443051D01*
X34712Y442866D01*
X35025Y442673D01*
X35334Y442472D01*
X35637Y442264D01*
X35935Y442048D01*
X36228Y441825D01*
X36516Y441595D01*
X36798Y441358D01*
X37073Y441114D01*
X37343Y440864D01*
X37607Y440607D01*
X37864Y440343D01*
X38114Y440073D01*
X38358Y439798D01*
X38595Y439516D01*
X38825Y439228D01*
X39048Y438935D01*
X39264Y438637D01*
X39472Y438334D01*
X39673Y438025D01*
X39866Y437712D01*
X40051Y437393D01*
X40229Y437071D01*
X40398Y436744D01*
X40560Y436413D01*
X40713Y436079D01*
X40858Y435740D01*
X40995Y435398D01*
X41123Y435053D01*
X41243Y434705D01*
X41354Y434354D01*
X41457Y434001D01*
X41550Y433645D01*
X41636Y433287D01*
X41712Y432926D01*
X41779Y432564D01*
X41838Y432201D01*
X41887Y431836D01*
X41928Y431470D01*
X41959Y431103D01*
X41982Y430736D01*
X41995Y430368D01*
X42000Y430000D01*
X41995Y429632D01*
X41982Y429264D01*
X41959Y428897D01*
X41928Y428530D01*
X41887Y428164D01*
X41838Y427799D01*
X41779Y427436D01*
X41712Y427074D01*
X41636Y426713D01*
X41550Y426355D01*
X41457Y425999D01*
X41354Y425646D01*
X41243Y425295D01*
X41123Y424947D01*
X40995Y424602D01*
X40858Y424260D01*
X40713Y423921D01*
X40560Y423587D01*
X40398Y423256D01*
X40229Y422929D01*
X40051Y422607D01*
X39866Y422288D01*
X39673Y421975D01*
X39472Y421666D01*
X39264Y421363D01*
X39048Y421065D01*
X38825Y420772D01*
X38595Y420484D01*
X38358Y420202D01*
X38114Y419927D01*
X37864Y419657D01*
X37607Y419393D01*
X37343Y419136D01*
X37073Y418886D01*
X36798Y418642D01*
X36516Y418405D01*
X36228Y418175D01*
X35935Y417952D01*
X35637Y417736D01*
X35334Y417528D01*
X35025Y417327D01*
X34712Y417134D01*
X34393Y416949D01*
X34071Y416771D01*
X33744Y416602D01*
X33413Y416440D01*
X33079Y416287D01*
X32740Y416142D01*
X32398Y416005D01*
X32053Y415877D01*
X31705Y415757D01*
X31354Y415646D01*
X31001Y415543D01*
X30645Y415450D01*
X30287Y415364D01*
X29926Y415288D01*
X29564Y415221D01*
X29201Y415162D01*
X28836Y415113D01*
X28470Y415072D01*
X28103Y415041D01*
X27736Y415018D01*
X27368Y415005D01*
X27000Y415000D01*
X26632Y415005D01*
X26264Y415018D01*
X25897Y415041D01*
X25530Y415072D01*
X25164Y415113D01*
X24799Y415162D01*
X24436Y415221D01*
X24074Y415288D01*
X23713Y415364D01*
X23355Y415450D01*
X22999Y415543D01*
X22646Y415646D01*
X22295Y415757D01*
X21947Y415877D01*
X21602Y416005D01*
X21260Y416142D01*
X20921Y416287D01*
X20587Y416440D01*
X20256Y416602D01*
X19929Y416771D01*
X19607Y416949D01*
X19288Y417134D01*
X18975Y417327D01*
X18666Y417528D01*
X18363Y417736D01*
X18065Y417952D01*
X17772Y418175D01*
X17484Y418405D01*
X17202Y418642D01*
X16927Y418886D01*
X16657Y419136D01*
X16393Y419393D01*
X16136Y419657D01*
X15886Y419927D01*
X15642Y420202D01*
X15405Y420484D01*
X15175Y420772D01*
X14952Y421065D01*
X14736Y421363D01*
X14528Y421666D01*
X14327Y421975D01*
X14134Y422288D01*
X13949Y422607D01*
X13771Y422929D01*
X13602Y423256D01*
X13440Y423587D01*
X13287Y423921D01*
X13142Y424260D01*
X13005Y424602D01*
X12877Y424947D01*
X12757Y425295D01*
X12646Y425646D01*
X12543Y425999D01*
X12450Y426355D01*
X12364Y426713D01*
X12288Y427074D01*
X12221Y427436D01*
X12162Y427799D01*
X12113Y428164D01*
X12072Y428530D01*
X12041Y428897D01*
X12018Y429264D01*
X12005Y429632D01*
X12000Y430000D01*
X348000Y430000D02*
X348005Y430368D01*
X348018Y430736D01*
X348041Y431103D01*
X348072Y431470D01*
X348113Y431836D01*
X348162Y432201D01*
X348221Y432564D01*
X348288Y432926D01*
X348364Y433287D01*
X348450Y433645D01*
X348543Y434001D01*
X348646Y434354D01*
X348757Y434705D01*
X348877Y435053D01*
X349005Y435398D01*
X349142Y435740D01*
X349287Y436079D01*
X349440Y436413D01*
X349602Y436744D01*
X349771Y437071D01*
X349949Y437393D01*
X350134Y437712D01*
X350327Y438025D01*
X350528Y438334D01*
X350736Y438637D01*
X350952Y438935D01*
X351175Y439228D01*
X351405Y439516D01*
X351642Y439798D01*
X351886Y440073D01*
X352136Y440343D01*
X352393Y440607D01*
X352657Y440864D01*
X352927Y441114D01*
X353202Y441358D01*
X353484Y441595D01*
X353772Y441825D01*
X354065Y442048D01*
X354363Y442264D01*
X354666Y442472D01*
X354975Y442673D01*
X355288Y442866D01*
X355607Y443051D01*
X355929Y443229D01*
X356256Y443398D01*
X356587Y443560D01*
X356921Y443713D01*
X357260Y443858D01*
X357602Y443995D01*
X357947Y444123D01*
X358295Y444243D01*
X358646Y444354D01*
X358999Y444457D01*
X359355Y444550D01*
X359713Y444636D01*
X360074Y444712D01*
X360436Y444779D01*
X360799Y444838D01*
X361164Y444887D01*
X361530Y444928D01*
X361897Y444959D01*
X362264Y444982D01*
X362632Y444995D01*
X363000Y445000D01*
X363368Y444995D01*
X363736Y444982D01*
X364103Y444959D01*
X364470Y444928D01*
X364836Y444887D01*
X365201Y444838D01*
X365564Y444779D01*
X365926Y444712D01*
X366287Y444636D01*
X366645Y444550D01*
X367001Y444457D01*
X367354Y444354D01*
X367705Y444243D01*
X368053Y444123D01*
X368398Y443995D01*
X368740Y443858D01*
X369079Y443713D01*
X369413Y443560D01*
X369744Y443398D01*
X370071Y443229D01*
X370393Y443051D01*
X370712Y442866D01*
X371025Y442673D01*
X371334Y442472D01*
X371637Y442264D01*
X371935Y442048D01*
X372228Y441825D01*
X372516Y441595D01*
X372798Y441358D01*
X373073Y441114D01*
X373343Y440864D01*
X373607Y440607D01*
X373864Y440343D01*
X374114Y440073D01*
X374358Y439798D01*
X374595Y439516D01*
X374825Y439228D01*
X375048Y438935D01*
X375264Y438637D01*
X375472Y438334D01*
X375673Y438025D01*
X375866Y437712D01*
X376051Y437393D01*
X376229Y437071D01*
X376398Y436744D01*
X376560Y436413D01*
X376713Y436079D01*
X376858Y435740D01*
X376995Y435398D01*
X377123Y435053D01*
X377243Y434705D01*
X377354Y434354D01*
X377457Y434001D01*
X377550Y433645D01*
X377636Y433287D01*
X377712Y432926D01*
X377779Y432564D01*
X377838Y432201D01*
X377887Y431836D01*
X377928Y431470D01*
X377959Y431103D01*
X377982Y430736D01*
X377995Y430368D01*
X378000Y430000D01*
X377995Y429632D01*
X377982Y429264D01*
X377959Y428897D01*
X377928Y428530D01*
X377887Y428164D01*
X377838Y427799D01*
X377779Y427436D01*
X377712Y427074D01*
X377636Y426713D01*
X377550Y426355D01*
X377457Y425999D01*
X377354Y425646D01*
X377243Y425295D01*
X377123Y424947D01*
X376995Y424602D01*
X376858Y424260D01*
X376713Y423921D01*
X376560Y423587D01*
X376398Y423256D01*
X376229Y422929D01*
X376051Y422607D01*
X375866Y422288D01*
X375673Y421975D01*
X375472Y421666D01*
X375264Y421363D01*
X375048Y421065D01*
X374825Y420772D01*
X374595Y420484D01*
X374358Y420202D01*
X374114Y419927D01*
X373864Y419657D01*
X373607Y419393D01*
X373343Y419136D01*
X373073Y418886D01*
X372798Y418642D01*
X372516Y418405D01*
X372228Y418175D01*
X371935Y417952D01*
X371637Y417736D01*
X371334Y417528D01*
X371025Y417327D01*
X370712Y417134D01*
X370393Y416949D01*
X370071Y416771D01*
X369744Y416602D01*
X369413Y416440D01*
X369079Y416287D01*
X368740Y416142D01*
X368398Y416005D01*
X368053Y415877D01*
X367705Y415757D01*
X367354Y415646D01*
X367001Y415543D01*
X366645Y415450D01*
X366287Y415364D01*
X365926Y415288D01*
X365564Y415221D01*
X365201Y415162D01*
X364836Y415113D01*
X364470Y415072D01*
X364103Y415041D01*
X363736Y415018D01*
X363368Y415005D01*
X363000Y415000D01*
X362632Y415005D01*
X362264Y415018D01*
X361897Y415041D01*
X361530Y415072D01*
X361164Y415113D01*
X360799Y415162D01*
X360436Y415221D01*
X360074Y415288D01*
X359713Y415364D01*
X359355Y415450D01*
X358999Y415543D01*
X358646Y415646D01*
X358295Y415757D01*
X357947Y415877D01*
X357602Y416005D01*
X357260Y416142D01*
X356921Y416287D01*
X356587Y416440D01*
X356256Y416602D01*
X355929Y416771D01*
X355607Y416949D01*
X355288Y417134D01*
X354975Y417327D01*
X354666Y417528D01*
X354363Y417736D01*
X354065Y417952D01*
X353772Y418175D01*
X353484Y418405D01*
X353202Y418642D01*
X352927Y418886D01*
X352657Y419136D01*
X352393Y419393D01*
X352136Y419657D01*
X351886Y419927D01*
X351642Y420202D01*
X351405Y420484D01*
X351175Y420772D01*
X350952Y421065D01*
X350736Y421363D01*
X350528Y421666D01*
X350327Y421975D01*
X350134Y422288D01*
X349949Y422607D01*
X349771Y422929D01*
X349602Y423256D01*
X349440Y423587D01*
X349287Y423921D01*
X349142Y424260D01*
X349005Y424602D01*
X348877Y424947D01*
X348757Y425295D01*
X348646Y425646D01*
X348543Y425999D01*
X348450Y426355D01*
X348364Y426713D01*
X348288Y427074D01*
X348221Y427436D01*
X348162Y427799D01*
X348113Y428164D01*
X348072Y428530D01*
X348041Y428897D01*
X348018Y429264D01*
X348005Y429632D01*
X348000Y430000D01*
X348000Y30000D02*
X348005Y30368D01*
X348018Y30736D01*
X348041Y31103D01*
X348072Y31470D01*
X348113Y31836D01*
X348162Y32201D01*
X348221Y32564D01*
X348288Y32926D01*
X348364Y33287D01*
X348450Y33645D01*
X348543Y34001D01*
X348646Y34354D01*
X348757Y34705D01*
X348877Y35053D01*
X349005Y35398D01*
X349142Y35740D01*
X349287Y36079D01*
X349440Y36413D01*
X349602Y36744D01*
X349771Y37071D01*
X349949Y37393D01*
X350134Y37712D01*
X350327Y38025D01*
X350528Y38334D01*
X350736Y38637D01*
X350952Y38935D01*
X351175Y39228D01*
X351405Y39516D01*
X351642Y39798D01*
X351886Y40073D01*
X352136Y40343D01*
X352393Y40607D01*
X352657Y40864D01*
X352927Y41114D01*
X353202Y41358D01*
X353484Y41595D01*
X353772Y41825D01*
X354065Y42048D01*
X354363Y42264D01*
X354666Y42472D01*
X354975Y42673D01*
X355288Y42866D01*
X355607Y43051D01*
X355929Y43229D01*
X356256Y43398D01*
X356587Y43560D01*
X356921Y43713D01*
X357260Y43858D01*
X357602Y43995D01*
X357947Y44123D01*
X358295Y44243D01*
X358646Y44354D01*
X358999Y44457D01*
X359355Y44550D01*
X359713Y44636D01*
X360074Y44712D01*
X360436Y44779D01*
X360799Y44838D01*
X361164Y44887D01*
X361530Y44928D01*
X361897Y44959D01*
X362264Y44982D01*
X362632Y44995D01*
X363000Y45000D01*
X363368Y44995D01*
X363736Y44982D01*
X364103Y44959D01*
X364470Y44928D01*
X364836Y44887D01*
X365201Y44838D01*
X365564Y44779D01*
X365926Y44712D01*
X366287Y44636D01*
X366645Y44550D01*
X367001Y44457D01*
X367354Y44354D01*
X367705Y44243D01*
X368053Y44123D01*
X368398Y43995D01*
X368740Y43858D01*
X369079Y43713D01*
X369413Y43560D01*
X369744Y43398D01*
X370071Y43229D01*
X370393Y43051D01*
X370712Y42866D01*
X371025Y42673D01*
X371334Y42472D01*
X371637Y42264D01*
X371935Y42048D01*
X372228Y41825D01*
X372516Y41595D01*
X372798Y41358D01*
X373073Y41114D01*
X373343Y40864D01*
X373607Y40607D01*
X373864Y40343D01*
X374114Y40073D01*
X374358Y39798D01*
X374595Y39516D01*
X374825Y39228D01*
X375048Y38935D01*
X375264Y38637D01*
X375472Y38334D01*
X375673Y38025D01*
X375866Y37712D01*
X376051Y37393D01*
X376229Y37071D01*
X376398Y36744D01*
X376560Y36413D01*
X376713Y36079D01*
X376858Y35740D01*
X376995Y35398D01*
X377123Y35053D01*
X377243Y34705D01*
X377354Y34354D01*
X377457Y34001D01*
X377550Y33645D01*
X377636Y33287D01*
X377712Y32926D01*
X377779Y32564D01*
X377838Y32201D01*
X377887Y31836D01*
X377928Y31470D01*
X377959Y31103D01*
X377982Y30736D01*
X377995Y30368D01*
X378000Y30000D01*
X377995Y29632D01*
X377982Y29264D01*
X377959Y28897D01*
X377928Y28530D01*
X377887Y28164D01*
X377838Y27799D01*
X377779Y27436D01*
X377712Y27074D01*
X377636Y26713D01*
X377550Y26355D01*
X377457Y25999D01*
X377354Y25646D01*
X377243Y25295D01*
X377123Y24947D01*
X376995Y24602D01*
X376858Y24260D01*
X376713Y23921D01*
X376560Y23587D01*
X376398Y23256D01*
X376229Y22929D01*
X376051Y22607D01*
X375866Y22288D01*
X375673Y21975D01*
X375472Y21666D01*
X375264Y21363D01*
X375048Y21065D01*
X374825Y20772D01*
X374595Y20484D01*
X374358Y20202D01*
X374114Y19927D01*
X373864Y19657D01*
X373607Y19393D01*
X373343Y19136D01*
X373073Y18886D01*
X372798Y18642D01*
X372516Y18405D01*
X372228Y18175D01*
X371935Y17952D01*
X371637Y17736D01*
X371334Y17528D01*
X371025Y17327D01*
X370712Y17134D01*
X370393Y16949D01*
X370071Y16771D01*
X369744Y16602D01*
X369413Y16440D01*
X369079Y16287D01*
X368740Y16142D01*
X368398Y16005D01*
X368053Y15877D01*
X367705Y15757D01*
X367354Y15646D01*
X367001Y15543D01*
X366645Y15450D01*
X366287Y15364D01*
X365926Y15288D01*
X365564Y15221D01*
X365201Y15162D01*
X364836Y15113D01*
X364470Y15072D01*
X364103Y15041D01*
X363736Y15018D01*
X363368Y15005D01*
X363000Y15000D01*
X362632Y15005D01*
X362264Y15018D01*
X361897Y15041D01*
X361530Y15072D01*
X361164Y15113D01*
X360799Y15162D01*
X360436Y15221D01*
X360074Y15288D01*
X359713Y15364D01*
X359355Y15450D01*
X358999Y15543D01*
X358646Y15646D01*
X358295Y15757D01*
X357947Y15877D01*
X357602Y16005D01*
X357260Y16142D01*
X356921Y16287D01*
X356587Y16440D01*
X356256Y16602D01*
X355929Y16771D01*
X355607Y16949D01*
X355288Y17134D01*
X354975Y17327D01*
X354666Y17528D01*
X354363Y17736D01*
X354065Y17952D01*
X353772Y18175D01*
X353484Y18405D01*
X353202Y18642D01*
X352927Y18886D01*
X352657Y19136D01*
X352393Y19393D01*
X352136Y19657D01*
X351886Y19927D01*
X351642Y20202D01*
X351405Y20484D01*
X351175Y20772D01*
X350952Y21065D01*
X350736Y21363D01*
X350528Y21666D01*
X350327Y21975D01*
X350134Y22288D01*
X349949Y22607D01*
X349771Y22929D01*
X349602Y23256D01*
X349440Y23587D01*
X349287Y23921D01*
X349142Y24260D01*
X349005Y24602D01*
X348877Y24947D01*
X348757Y25295D01*
X348646Y25646D01*
X348543Y25999D01*
X348450Y26355D01*
X348364Y26713D01*
X348288Y27074D01*
X348221Y27436D01*
X348162Y27799D01*
X348113Y28164D01*
X348072Y28530D01*
X348041Y28897D01*
X348018Y29264D01*
X348005Y29632D01*
X348000Y30000D01*
X12000Y30000D02*
X12005Y30368D01*
X12018Y30736D01*
X12041Y31103D01*
X12072Y31470D01*
X12113Y31836D01*
X12162Y32201D01*
X12221Y32564D01*
X12288Y32926D01*
X12364Y33287D01*
X12450Y33645D01*
X12543Y34001D01*
X12646Y34354D01*
X12757Y34705D01*
X12877Y35053D01*
X13005Y35398D01*
X13142Y35740D01*
X13287Y36079D01*
X13440Y36413D01*
X13602Y36744D01*
X13771Y37071D01*
X13949Y37393D01*
X14134Y37712D01*
X14327Y38025D01*
X14528Y38334D01*
X14736Y38637D01*
X14952Y38935D01*
X15175Y39228D01*
X15405Y39516D01*
X15642Y39798D01*
X15886Y40073D01*
X16136Y40343D01*
X16393Y40607D01*
X16657Y40864D01*
X16927Y41114D01*
X17202Y41358D01*
X17484Y41595D01*
X17772Y41825D01*
X18065Y42048D01*
X18363Y42264D01*
X18666Y42472D01*
X18975Y42673D01*
X19288Y42866D01*
X19607Y43051D01*
X19929Y43229D01*
X20256Y43398D01*
X20587Y43560D01*
X20921Y43713D01*
X21260Y43858D01*
X21602Y43995D01*
X21947Y44123D01*
X22295Y44243D01*
X22646Y44354D01*
X22999Y44457D01*
X23355Y44550D01*
X23713Y44636D01*
X24074Y44712D01*
X24436Y44779D01*
X24799Y44838D01*
X25164Y44887D01*
X25530Y44928D01*
X25897Y44959D01*
X26264Y44982D01*
X26632Y44995D01*
X27000Y45000D01*
X27368Y44995D01*
X27736Y44982D01*
X28103Y44959D01*
X28470Y44928D01*
X28836Y44887D01*
X29201Y44838D01*
X29564Y44779D01*
X29926Y44712D01*
X30287Y44636D01*
X30645Y44550D01*
X31001Y44457D01*
X31354Y44354D01*
X31705Y44243D01*
X32053Y44123D01*
X32398Y43995D01*
X32740Y43858D01*
X33079Y43713D01*
X33413Y43560D01*
X33744Y43398D01*
X34071Y43229D01*
X34393Y43051D01*
X34712Y42866D01*
X35025Y42673D01*
X35334Y42472D01*
X35637Y42264D01*
X35935Y42048D01*
X36228Y41825D01*
X36516Y41595D01*
X36798Y41358D01*
X37073Y41114D01*
X37343Y40864D01*
X37607Y40607D01*
X37864Y40343D01*
X38114Y40073D01*
X38358Y39798D01*
X38595Y39516D01*
X38825Y39228D01*
X39048Y38935D01*
X39264Y38637D01*
X39472Y38334D01*
X39673Y38025D01*
X39866Y37712D01*
X40051Y37393D01*
X40229Y37071D01*
X40398Y36744D01*
X40560Y36413D01*
X40713Y36079D01*
X40858Y35740D01*
X40995Y35398D01*
X41123Y35053D01*
X41243Y34705D01*
X41354Y34354D01*
X41457Y34001D01*
X41550Y33645D01*
X41636Y33287D01*
X41712Y32926D01*
X41779Y32564D01*
X41838Y32201D01*
X41887Y31836D01*
X41928Y31470D01*
X41959Y31103D01*
X41982Y30736D01*
X41995Y30368D01*
X42000Y30000D01*
X41995Y29632D01*
X41982Y29264D01*
X41959Y28897D01*
X41928Y28530D01*
X41887Y28164D01*
X41838Y27799D01*
X41779Y27436D01*
X41712Y27074D01*
X41636Y26713D01*
X41550Y26355D01*
X41457Y25999D01*
X41354Y25646D01*
X41243Y25295D01*
X41123Y24947D01*
X40995Y24602D01*
X40858Y24260D01*
X40713Y23921D01*
X40560Y23587D01*
X40398Y23256D01*
X40229Y22929D01*
X40051Y22607D01*
X39866Y22288D01*
X39673Y21975D01*
X39472Y21666D01*
X39264Y21363D01*
X39048Y21065D01*
X38825Y20772D01*
X38595Y20484D01*
X38358Y20202D01*
X38114Y19927D01*
X37864Y19657D01*
X37607Y19393D01*
X37343Y19136D01*
X37073Y18886D01*
X36798Y18642D01*
X36516Y18405D01*
X36228Y18175D01*
X35935Y17952D01*
X35637Y17736D01*
X35334Y17528D01*
X35025Y17327D01*
X34712Y17134D01*
X34393Y16949D01*
X34071Y16771D01*
X33744Y16602D01*
X33413Y16440D01*
X33079Y16287D01*
X32740Y16142D01*
X32398Y16005D01*
X32053Y15877D01*
X31705Y15757D01*
X31354Y15646D01*
X31001Y15543D01*
X30645Y15450D01*
X30287Y15364D01*
X29926Y15288D01*
X29564Y15221D01*
X29201Y15162D01*
X28836Y15113D01*
X28470Y15072D01*
X28103Y15041D01*
X27736Y15018D01*
X27368Y15005D01*
X27000Y15000D01*
X26632Y15005D01*
X26264Y15018D01*
X25897Y15041D01*
X25530Y15072D01*
X25164Y15113D01*
X24799Y15162D01*
X24436Y15221D01*
X24074Y15288D01*
X23713Y15364D01*
X23355Y15450D01*
X22999Y15543D01*
X22646Y15646D01*
X22295Y15757D01*
X21947Y15877D01*
X21602Y16005D01*
X21260Y16142D01*
X20921Y16287D01*
X20587Y16440D01*
X20256Y16602D01*
X19929Y16771D01*
X19607Y16949D01*
X19288Y17134D01*
X18975Y17327D01*
X18666Y17528D01*
X18363Y17736D01*
X18065Y17952D01*
X17772Y18175D01*
X17484Y18405D01*
X17202Y18642D01*
X16927Y18886D01*
X16657Y19136D01*
X16393Y19393D01*
X16136Y19657D01*
X15886Y19927D01*
X15642Y20202D01*
X15405Y20484D01*
X15175Y20772D01*
X14952Y21065D01*
X14736Y21363D01*
X14528Y21666D01*
X14327Y21975D01*
X14134Y22288D01*
X13949Y22607D01*
X13771Y22929D01*
X13602Y23256D01*
X13440Y23587D01*
X13287Y23921D01*
X13142Y24260D01*
X13005Y24602D01*
X12877Y24947D01*
X12757Y25295D01*
X12646Y25646D01*
X12543Y25999D01*
X12450Y26355D01*
X12364Y26713D01*
X12288Y27074D01*
X12221Y27436D01*
X12162Y27799D01*
X12113Y28164D01*
X12072Y28530D01*
X12041Y28897D01*
X12018Y29264D01*
X12005Y29632D01*
X12000Y30000D01*
D10*
X0Y30000D02*
X0Y270000D01*
X360000Y0D02*
X360725Y9D01*
X361449Y35D01*
X362173Y79D01*
X362895Y140D01*
X363616Y219D01*
X364335Y315D01*
X365051Y428D01*
X365764Y559D01*
X366474Y707D01*
X367179Y872D01*
X367881Y1054D01*
X368578Y1253D01*
X369271Y1468D01*
X369957Y1701D01*
X370638Y1950D01*
X371313Y2215D01*
X371981Y2496D01*
X372642Y2794D01*
X373296Y3107D01*
X373942Y3436D01*
X374580Y3781D01*
X375209Y4141D01*
X375829Y4516D01*
X376440Y4906D01*
X377042Y5310D01*
X377634Y5729D01*
X378215Y6163D01*
X378786Y6610D01*
X379345Y7071D01*
X379894Y7545D01*
X380430Y8032D01*
X380955Y8532D01*
X381468Y9045D01*
X381968Y9570D01*
X382455Y10106D01*
X382929Y10655D01*
X383390Y11214D01*
X383837Y11785D01*
X384271Y12366D01*
X384690Y12958D01*
X385094Y13560D01*
X385484Y14171D01*
X385859Y14791D01*
X386219Y15420D01*
X386564Y16058D01*
X386893Y16704D01*
X387206Y17358D01*
X387504Y18019D01*
X387785Y18687D01*
X388050Y19362D01*
X388299Y20043D01*
X388532Y20729D01*
X388747Y21422D01*
X388946Y22119D01*
X389128Y22821D01*
X389293Y23526D01*
X389441Y24236D01*
X389572Y24949D01*
X389685Y25665D01*
X389781Y26384D01*
X389860Y27105D01*
X389921Y27827D01*
X389965Y28551D01*
X389991Y29275D01*
X390000Y30000D01*
X30000Y0D02*
X29275Y9D01*
X28551Y35D01*
X27827Y79D01*
X27105Y140D01*
X26384Y219D01*
X25665Y315D01*
X24949Y428D01*
X24236Y559D01*
X23526Y707D01*
X22821Y872D01*
X22119Y1054D01*
X21422Y1253D01*
X20729Y1468D01*
X20043Y1701D01*
X19362Y1950D01*
X18687Y2215D01*
X18019Y2496D01*
X17358Y2794D01*
X16704Y3107D01*
X16058Y3436D01*
X15420Y3781D01*
X14791Y4141D01*
X14171Y4516D01*
X13560Y4906D01*
X12958Y5310D01*
X12366Y5729D01*
X11785Y6163D01*
X11214Y6610D01*
X10655Y7071D01*
X10106Y7545D01*
X9570Y8032D01*
X9045Y8532D01*
X8532Y9045D01*
X8032Y9570D01*
X7545Y10106D01*
X7071Y10655D01*
X6610Y11214D01*
X6163Y11785D01*
X5729Y12366D01*
X5310Y12958D01*
X4906Y13560D01*
X4516Y14171D01*
X4141Y14791D01*
X3781Y15420D01*
X3436Y16058D01*
X3107Y16704D01*
X2794Y17358D01*
X2496Y18019D01*
X2215Y18687D01*
X1950Y19362D01*
X1701Y20043D01*
X1468Y20729D01*
X1253Y21422D01*
X1054Y22119D01*
X872Y22821D01*
X707Y23526D01*
X559Y24236D01*
X428Y24949D01*
X315Y25665D01*
X219Y26384D01*
X140Y27105D01*
X79Y27827D01*
X35Y28551D01*
X9Y29275D01*
X0Y30000D01*
X330000Y210000D02*
X390000Y210000D01*
X330000Y210000D02*
X330000Y400000D01*
X390000Y400000D01*
X60000Y270000D02*
X0Y270000D01*
X60000Y270000D02*
X60000Y400000D01*
X0Y400000D01*
X0Y430000D01*
X30000Y460000D02*
X50000Y460000D01*
X340000Y460000D02*
X360000Y460000D01*
X390000Y430000D02*
X390000Y400000D01*
X30000Y460000D02*
X29275Y459991D01*
X28551Y459965D01*
X27827Y459921D01*
X27105Y459860D01*
X26384Y459781D01*
X25665Y459685D01*
X24949Y459572D01*
X24236Y459441D01*
X23526Y459293D01*
X22821Y459128D01*
X22119Y458946D01*
X21422Y458747D01*
X20729Y458532D01*
X20043Y458299D01*
X19362Y458050D01*
X18687Y457785D01*
X18019Y457504D01*
X17358Y457206D01*
X16704Y456893D01*
X16058Y456564D01*
X15420Y456219D01*
X14791Y455859D01*
X14171Y455484D01*
X13560Y455094D01*
X12958Y454690D01*
X12366Y454271D01*
X11785Y453837D01*
X11214Y453390D01*
X10655Y452929D01*
X10106Y452455D01*
X9570Y451968D01*
X9045Y451468D01*
X8532Y450955D01*
X8032Y450430D01*
X7545Y449894D01*
X7071Y449345D01*
X6610Y448786D01*
X6163Y448215D01*
X5729Y447634D01*
X5310Y447042D01*
X4906Y446440D01*
X4516Y445829D01*
X4141Y445209D01*
X3781Y444580D01*
X3436Y443942D01*
X3107Y443296D01*
X2794Y442642D01*
X2496Y441981D01*
X2215Y441313D01*
X1950Y440638D01*
X1701Y439957D01*
X1468Y439271D01*
X1253Y438578D01*
X1054Y437881D01*
X872Y437179D01*
X707Y436474D01*
X559Y435764D01*
X428Y435051D01*
X315Y434335D01*
X219Y433616D01*
X140Y432895D01*
X79Y432173D01*
X35Y431449D01*
X9Y430725D01*
X0Y430000D01*
X360000Y460000D02*
X360725Y459991D01*
X361449Y459965D01*
X362173Y459921D01*
X362895Y459860D01*
X363616Y459781D01*
X364335Y459685D01*
X365051Y459572D01*
X365764Y459441D01*
X366474Y459293D01*
X367179Y459128D01*
X367881Y458946D01*
X368578Y458747D01*
X369271Y458532D01*
X369957Y458299D01*
X370638Y458050D01*
X371313Y457785D01*
X371981Y457504D01*
X372642Y457206D01*
X373296Y456893D01*
X373942Y456564D01*
X374580Y456219D01*
X375209Y455859D01*
X375829Y455484D01*
X376440Y455094D01*
X377042Y454690D01*
X377634Y454271D01*
X378215Y453837D01*
X378786Y453390D01*
X379345Y452929D01*
X379894Y452455D01*
X380430Y451968D01*
X380955Y451468D01*
X381468Y450955D01*
X381968Y450430D01*
X382455Y449894D01*
X382929Y449345D01*
X383390Y448786D01*
X383837Y448215D01*
X384271Y447634D01*
X384690Y447042D01*
X385094Y446440D01*
X385484Y445829D01*
X385859Y445209D01*
X386219Y444580D01*
X386564Y443942D01*
X386893Y443296D01*
X387206Y442642D01*
X387504Y441981D01*
X387785Y441313D01*
X388050Y440638D01*
X388299Y439957D01*
X388532Y439271D01*
X388747Y438578D01*
X388946Y437881D01*
X389128Y437179D01*
X389293Y436474D01*
X389441Y435764D01*
X389572Y435051D01*
X389685Y434335D01*
X389781Y433616D01*
X389860Y432895D01*
X389921Y432173D01*
X389965Y431449D01*
X389991Y430725D01*
X390000Y430000D01*
X60000Y450000D02*
X50000Y460000D01*
X60000Y450000D02*
X330000Y450000D01*
X340000Y460000D01*
D12*
X0Y30000D02*
X114Y27385D01*
X456Y24791D01*
X1022Y22235D01*
X1809Y19739D01*
X2811Y17321D01*
X4019Y15000D01*
X5425Y12793D01*
X7019Y10716D01*
X8787Y8787D01*
X10716Y7019D01*
X12793Y5425D01*
X15000Y4019D01*
X17321Y2811D01*
X19739Y1809D01*
X22235Y1022D01*
X24791Y456D01*
X27385Y114D01*
X30000Y0D01*
X360000Y0D01*
X362615Y114D01*
X365209Y456D01*
X367765Y1022D01*
X370261Y1809D01*
X372679Y2811D01*
X375000Y4019D01*
X377207Y5425D01*
X379284Y7019D01*
X381213Y8787D01*
X382981Y10716D01*
X384575Y12793D01*
X385981Y15000D01*
X387189Y17321D01*
X388191Y19739D01*
X388978Y22235D01*
X389544Y24791D01*
X389886Y27385D01*
X390000Y30000D01*
X390000Y210000D01*
X330000Y210000D01*
X330000Y400000D01*
X390000Y400000D01*
X390000Y430000D01*
X389886Y432615D01*
X389544Y435209D01*
X388978Y437765D01*
X388191Y440261D01*
X387189Y442679D01*
X385981Y445000D01*
X384575Y447207D01*
X382981Y449284D01*
X381213Y451213D01*
X379284Y452981D01*
X377207Y454575D01*
X375000Y455981D01*
X372679Y457189D01*
X370261Y458191D01*
X367765Y458978D01*
X365209Y459544D01*
X362615Y459886D01*
X360000Y460000D01*
X340000Y460000D01*
X330000Y450000D01*
X60000Y450000D01*
X50000Y460000D01*
X30000Y460000D01*
X27385Y459886D01*
X24791Y459544D01*
X22235Y458978D01*
X19739Y458191D01*
X17321Y457189D01*
X15000Y455981D01*
X12793Y454575D01*
X10716Y452981D01*
X8787Y451213D01*
X7019Y449284D01*
X5425Y447207D01*
X4019Y445000D01*
X2811Y442679D01*
X1809Y440261D01*
X1022Y437765D01*
X456Y435209D01*
X114Y432615D01*
X0Y430000D01*
X0Y400000D01*
X60000Y400000D01*
X60000Y270000D01*
X0Y270000D01*
X0Y30000D01*
X42000Y429464D02*
X41924Y428396D01*
X41771Y427335D01*
X41543Y426288D01*
X41241Y425260D01*
X40867Y424256D01*
X40422Y423281D01*
X39908Y422341D01*
X39329Y421440D01*
X38687Y420582D01*
X37985Y419772D01*
X37228Y419015D01*
X36418Y418313D01*
X35560Y417671D01*
X34659Y417092D01*
X33719Y416578D01*
X32744Y416133D01*
X31740Y415759D01*
X30712Y415457D01*
X29665Y415229D01*
X28604Y415076D01*
X27536Y415000D01*
X26464Y415000D01*
X25396Y415076D01*
X24335Y415229D01*
X23288Y415457D01*
X22260Y415759D01*
X21256Y416133D01*
X20281Y416578D01*
X19341Y417092D01*
X18440Y417671D01*
X17582Y418313D01*
X16772Y419015D01*
X16015Y419772D01*
X15313Y420582D01*
X14671Y421440D01*
X14092Y422341D01*
X13578Y423281D01*
X13133Y424256D01*
X12759Y425260D01*
X12457Y426288D01*
X12229Y427335D01*
X12076Y428396D01*
X12000Y429464D01*
X12000Y430536D01*
X12076Y431604D01*
X12229Y432665D01*
X12457Y433712D01*
X12759Y434740D01*
X13133Y435744D01*
X13578Y436719D01*
X14092Y437659D01*
X14671Y438560D01*
X15313Y439418D01*
X16015Y440228D01*
X16772Y440985D01*
X17582Y441687D01*
X18440Y442329D01*
X19341Y442908D01*
X20281Y443422D01*
X21256Y443867D01*
X22260Y444241D01*
X23288Y444543D01*
X24335Y444771D01*
X25396Y444924D01*
X26464Y445000D01*
X27536Y445000D01*
X28604Y444924D01*
X29665Y444771D01*
X30712Y444543D01*
X31740Y444241D01*
X32744Y443867D01*
X33719Y443422D01*
X34659Y442908D01*
X35560Y442329D01*
X36418Y441687D01*
X37228Y440985D01*
X37985Y440228D01*
X38687Y439418D01*
X39329Y438560D01*
X39908Y437659D01*
X40422Y436719D01*
X40867Y435744D01*
X41241Y434740D01*
X41543Y433712D01*
X41771Y432665D01*
X41924Y431604D01*
X42000Y430536D01*
X42000Y429464D01*
X378000Y429464D02*
X377924Y428396D01*
X377771Y427335D01*
X377543Y426288D01*
X377241Y425260D01*
X376867Y424256D01*
X376422Y423281D01*
X375908Y422341D01*
X375329Y421440D01*
X374687Y420582D01*
X373985Y419772D01*
X373228Y419015D01*
X372418Y418313D01*
X371560Y417671D01*
X370659Y417092D01*
X369719Y416578D01*
X368744Y416133D01*
X367740Y415759D01*
X366712Y415457D01*
X365665Y415229D01*
X364604Y415076D01*
X363536Y415000D01*
X362464Y415000D01*
X361396Y415076D01*
X360335Y415229D01*
X359288Y415457D01*
X358260Y415759D01*
X357256Y416133D01*
X356281Y416578D01*
X355341Y417092D01*
X354440Y417671D01*
X353582Y418313D01*
X352772Y419015D01*
X352015Y419772D01*
X351313Y420582D01*
X350671Y421440D01*
X350092Y422341D01*
X349578Y423281D01*
X349133Y424256D01*
X348759Y425260D01*
X348457Y426288D01*
X348229Y427335D01*
X348076Y428396D01*
X348000Y429464D01*
X348000Y430536D01*
X348076Y431604D01*
X348229Y432665D01*
X348457Y433712D01*
X348759Y434740D01*
X349133Y435744D01*
X349578Y436719D01*
X350092Y437659D01*
X350671Y438560D01*
X351313Y439418D01*
X352015Y440228D01*
X352772Y440985D01*
X353582Y441687D01*
X354440Y442329D01*
X355341Y442908D01*
X356281Y443422D01*
X357256Y443867D01*
X358260Y444241D01*
X359288Y444543D01*
X360335Y444771D01*
X361396Y444924D01*
X362464Y445000D01*
X363536Y445000D01*
X364604Y444924D01*
X365665Y444771D01*
X366712Y444543D01*
X367740Y444241D01*
X368744Y443867D01*
X369719Y443422D01*
X370659Y442908D01*
X371560Y442329D01*
X372418Y441687D01*
X373228Y440985D01*
X373985Y440228D01*
X374687Y439418D01*
X375329Y438560D01*
X375908Y437659D01*
X376422Y436719D01*
X376867Y435744D01*
X377241Y434740D01*
X377543Y433712D01*
X377771Y432665D01*
X377924Y431604D01*
X378000Y430536D01*
X378000Y429464D01*
X378000Y29464D02*
X377924Y28396D01*
X377771Y27335D01*
X377543Y26288D01*
X377241Y25260D01*
X376867Y24256D01*
X376422Y23281D01*
X375908Y22341D01*
X375329Y21440D01*
X374687Y20582D01*
X373985Y19772D01*
X373228Y19015D01*
X372418Y18313D01*
X371560Y17671D01*
X370659Y17092D01*
X369719Y16578D01*
X368744Y16133D01*
X367740Y15759D01*
X366712Y15457D01*
X365665Y15229D01*
X364604Y15076D01*
X363536Y15000D01*
X362464Y15000D01*
X361396Y15076D01*
X360335Y15229D01*
X359288Y15457D01*
X358260Y15759D01*
X357256Y16133D01*
X356281Y16578D01*
X355341Y17092D01*
X354440Y17671D01*
X353582Y18313D01*
X352772Y19015D01*
X352015Y19772D01*
X351313Y20582D01*
X350671Y21440D01*
X350092Y22341D01*
X349578Y23281D01*
X349133Y24256D01*
X348759Y25260D01*
X348457Y26288D01*
X348229Y27335D01*
X348076Y28396D01*
X348000Y29464D01*
X348000Y30536D01*
X348076Y31604D01*
X348229Y32665D01*
X348457Y33712D01*
X348759Y34740D01*
X349133Y35744D01*
X349578Y36719D01*
X350092Y37659D01*
X350671Y38560D01*
X351313Y39418D01*
X352015Y40228D01*
X352772Y40985D01*
X353582Y41687D01*
X354440Y42329D01*
X355341Y42908D01*
X356281Y43422D01*
X357256Y43867D01*
X358260Y44241D01*
X359288Y44543D01*
X360335Y44771D01*
X361396Y44924D01*
X362464Y45000D01*
X363536Y45000D01*
X364604Y44924D01*
X365665Y44771D01*
X366712Y44543D01*
X367740Y44241D01*
X368744Y43867D01*
X369719Y43422D01*
X370659Y42908D01*
X371560Y42329D01*
X372418Y41687D01*
X373228Y40985D01*
X373985Y40228D01*
X374687Y39418D01*
X375329Y38560D01*
X375908Y37659D01*
X376422Y36719D01*
X376867Y35744D01*
X377241Y34740D01*
X377543Y33712D01*
X377771Y32665D01*
X377924Y31604D01*
X378000Y30536D01*
X378000Y29464D01*
X42000Y29464D02*
X41924Y28396D01*
X41771Y27335D01*
X41543Y26288D01*
X41241Y25260D01*
X40867Y24256D01*
X40422Y23281D01*
X39908Y22341D01*
X39329Y21440D01*
X38687Y20582D01*
X37985Y19772D01*
X37228Y19015D01*
X36418Y18313D01*
X35560Y17671D01*
X34659Y17092D01*
X33719Y16578D01*
X32744Y16133D01*
X31740Y15759D01*
X30712Y15457D01*
X29665Y15229D01*
X28604Y15076D01*
X27536Y15000D01*
X26464Y15000D01*
X25396Y15076D01*
X24335Y15229D01*
X23288Y15457D01*
X22260Y15759D01*
X21256Y16133D01*
X20281Y16578D01*
X19341Y17092D01*
X18440Y17671D01*
X17582Y18313D01*
X16772Y19015D01*
X16015Y19772D01*
X15313Y20582D01*
X14671Y21440D01*
X14092Y22341D01*
X13578Y23281D01*
X13133Y24256D01*
X12759Y25260D01*
X12457Y26288D01*
X12229Y27335D01*
X12076Y28396D01*
X12000Y29464D01*
X12000Y30536D01*
X12076Y31604D01*
X12229Y32665D01*
X12457Y33712D01*
X12759Y34740D01*
X13133Y35744D01*
X13578Y36719D01*
X14092Y37659D01*
X14671Y38560D01*
X15313Y39418D01*
X16015Y40228D01*
X16772Y40985D01*
X17582Y41687D01*
X18440Y42329D01*
X19341Y42908D01*
X20281Y43422D01*
X21256Y43867D01*
X22260Y44241D01*
X23288Y44543D01*
X24335Y44771D01*
X25396Y44924D01*
X26464Y45000D01*
X27536Y45000D01*
X28604Y44924D01*
X29665Y44771D01*
X30712Y44543D01*
X31740Y44241D01*
X32744Y43867D01*
X33719Y43422D01*
X34659Y42908D01*
X35560Y42329D01*
X36418Y41687D01*
X37228Y40985D01*
X37985Y40228D01*
X38687Y39418D01*
X39329Y38560D01*
X39908Y37659D01*
X40422Y36719D01*
X40867Y35744D01*
X41241Y34740D01*
X41543Y33712D01*
X41771Y32665D01*
X41924Y31604D01*
X42000Y30536D01*
X42000Y29464D01*
M02*
