M48
;GenerationSoftware,Autodesk,EAGLE,9.6.2*%
;CreationDate,2023-08-22T00:34:28Z*%
FMAT,2
ICI,OFF
METRIC,TZ,000.000
T6C0.200
T5C0.350
T4C0.700
T3C0.800
T2C1.016
T1C3.000
%
G90
M71
T1
X2700Y3000
X36300Y3000
X36300Y43000
X2700Y43000
T2
X28890Y2000
X11110Y2000
X13650Y2000
X16190Y2000
X18730Y2000
X21270Y2000
X23810Y2000
X26350Y2000
X24080Y40000
X24080Y37460
X21540Y40000
X21540Y37460
X19000Y40000
X19000Y37460
X16460Y40000
X16460Y37460
X13920Y40000
X13920Y37460
T3
X36850Y10900
X36850Y8900
X36850Y12900
X36850Y14900
X36850Y16900
X36850Y18900
T4
X2800Y11900
X2800Y9900
X2800Y13900
X2800Y15900
X2800Y17900
X2800Y23900
X2800Y19900
X2800Y21900
T5
X24437Y11265
X21498Y16545
X19901Y16545
X28893Y10468
X28110Y11324
X21707Y10468
T6
X14647Y4463
X30410Y4592
X16013Y25772
X16007Y16395
X17396Y15432
X14785Y24355
X28087Y22541
X28625Y24103
X26432Y16369
X26393Y19888
X25055Y3632
X19996Y3732
X14976Y3663
X6556Y19121
X6556Y20529
X6556Y21736
X10811Y11943
X8196Y9683
X9477Y10831
X10439Y15317
M30