G04 EAGLE Gerber RS-274X export*
G75*
%MOMM*%
%FSLAX34Y34*%
%LPD*%
%INSolderpaste Top*%
%IPPOS*%
%AMOC8*
5,1,8,0,0,1.08239X$1,22.5*%
G01*
%ADD10C,0.150000*%
%ADD11R,0.450000X0.250000*%
%ADD12R,0.600000X0.700000*%
%ADD13R,0.900000X0.700000*%
%ADD14R,1.800000X1.350000*%
%ADD15R,0.800000X0.800000*%
%ADD16R,0.700000X0.600000*%
%ADD17R,0.700000X0.900000*%
%ADD18R,1.600200X1.168400*%
%ADD19R,1.000000X1.400000*%


D10*
X177500Y96750D02*
X177500Y78550D01*
X173000Y78550D01*
X173000Y96750D01*
X177500Y96750D01*
X177500Y79975D02*
X173000Y79975D01*
X173000Y81400D02*
X177500Y81400D01*
X177500Y82825D02*
X173000Y82825D01*
X173000Y84250D02*
X177500Y84250D01*
X177500Y85675D02*
X173000Y85675D01*
X173000Y87100D02*
X177500Y87100D01*
X177500Y88525D02*
X173000Y88525D01*
X173000Y89950D02*
X177500Y89950D01*
X177500Y91375D02*
X173000Y91375D01*
X173000Y92800D02*
X177500Y92800D01*
X177500Y94225D02*
X173000Y94225D01*
X173000Y95650D02*
X177500Y95650D01*
X190200Y96750D02*
X190200Y78550D01*
X185700Y78550D01*
X185700Y96750D01*
X190200Y96750D01*
X190200Y79975D02*
X185700Y79975D01*
X185700Y81400D02*
X190200Y81400D01*
X190200Y82825D02*
X185700Y82825D01*
X185700Y84250D02*
X190200Y84250D01*
X190200Y85675D02*
X185700Y85675D01*
X185700Y87100D02*
X190200Y87100D01*
X190200Y88525D02*
X185700Y88525D01*
X185700Y89950D02*
X190200Y89950D01*
X190200Y91375D02*
X185700Y91375D01*
X185700Y92800D02*
X190200Y92800D01*
X190200Y94225D02*
X185700Y94225D01*
X185700Y95650D02*
X190200Y95650D01*
X202900Y96750D02*
X202900Y78550D01*
X198400Y78550D01*
X198400Y96750D01*
X202900Y96750D01*
X202900Y79975D02*
X198400Y79975D01*
X198400Y81400D02*
X202900Y81400D01*
X202900Y82825D02*
X198400Y82825D01*
X198400Y84250D02*
X202900Y84250D01*
X202900Y85675D02*
X198400Y85675D01*
X198400Y87100D02*
X202900Y87100D01*
X202900Y88525D02*
X198400Y88525D01*
X198400Y89950D02*
X202900Y89950D01*
X202900Y91375D02*
X198400Y91375D01*
X198400Y92800D02*
X202900Y92800D01*
X202900Y94225D02*
X198400Y94225D01*
X198400Y95650D02*
X202900Y95650D01*
X215600Y96750D02*
X215600Y78550D01*
X211100Y78550D01*
X211100Y96750D01*
X215600Y96750D01*
X215600Y79975D02*
X211100Y79975D01*
X211100Y81400D02*
X215600Y81400D01*
X215600Y82825D02*
X211100Y82825D01*
X211100Y84250D02*
X215600Y84250D01*
X215600Y85675D02*
X211100Y85675D01*
X211100Y87100D02*
X215600Y87100D01*
X215600Y88525D02*
X211100Y88525D01*
X211100Y89950D02*
X215600Y89950D01*
X215600Y91375D02*
X211100Y91375D01*
X211100Y92800D02*
X215600Y92800D01*
X215600Y94225D02*
X211100Y94225D01*
X211100Y95650D02*
X215600Y95650D01*
X228300Y96750D02*
X228300Y78550D01*
X223800Y78550D01*
X223800Y96750D01*
X228300Y96750D01*
X228300Y79975D02*
X223800Y79975D01*
X223800Y81400D02*
X228300Y81400D01*
X228300Y82825D02*
X223800Y82825D01*
X223800Y84250D02*
X228300Y84250D01*
X228300Y85675D02*
X223800Y85675D01*
X223800Y87100D02*
X228300Y87100D01*
X228300Y88525D02*
X223800Y88525D01*
X223800Y89950D02*
X228300Y89950D01*
X228300Y91375D02*
X223800Y91375D01*
X223800Y92800D02*
X228300Y92800D01*
X228300Y94225D02*
X223800Y94225D01*
X223800Y95650D02*
X228300Y95650D01*
X241000Y96750D02*
X241000Y78550D01*
X236500Y78550D01*
X236500Y96750D01*
X241000Y96750D01*
X241000Y79975D02*
X236500Y79975D01*
X236500Y81400D02*
X241000Y81400D01*
X241000Y82825D02*
X236500Y82825D01*
X236500Y84250D02*
X241000Y84250D01*
X241000Y85675D02*
X236500Y85675D01*
X236500Y87100D02*
X241000Y87100D01*
X241000Y88525D02*
X236500Y88525D01*
X236500Y89950D02*
X241000Y89950D01*
X241000Y91375D02*
X236500Y91375D01*
X236500Y92800D02*
X241000Y92800D01*
X241000Y94225D02*
X236500Y94225D01*
X236500Y95650D02*
X241000Y95650D01*
X253700Y96750D02*
X253700Y78550D01*
X249200Y78550D01*
X249200Y96750D01*
X253700Y96750D01*
X253700Y79975D02*
X249200Y79975D01*
X249200Y81400D02*
X253700Y81400D01*
X253700Y82825D02*
X249200Y82825D01*
X249200Y84250D02*
X253700Y84250D01*
X253700Y85675D02*
X249200Y85675D01*
X249200Y87100D02*
X253700Y87100D01*
X253700Y88525D02*
X249200Y88525D01*
X249200Y89950D02*
X253700Y89950D01*
X253700Y91375D02*
X249200Y91375D01*
X249200Y92800D02*
X253700Y92800D01*
X253700Y94225D02*
X249200Y94225D01*
X249200Y95650D02*
X253700Y95650D01*
X266400Y96750D02*
X266400Y78550D01*
X261900Y78550D01*
X261900Y96750D01*
X266400Y96750D01*
X266400Y79975D02*
X261900Y79975D01*
X261900Y81400D02*
X266400Y81400D01*
X266400Y82825D02*
X261900Y82825D01*
X261900Y84250D02*
X266400Y84250D01*
X266400Y85675D02*
X261900Y85675D01*
X261900Y87100D02*
X266400Y87100D01*
X266400Y88525D02*
X261900Y88525D01*
X261900Y89950D02*
X266400Y89950D01*
X266400Y91375D02*
X261900Y91375D01*
X261900Y92800D02*
X266400Y92800D01*
X266400Y94225D02*
X261900Y94225D01*
X261900Y95650D02*
X266400Y95650D01*
X266400Y128050D02*
X266400Y146250D01*
X266400Y128050D02*
X261900Y128050D01*
X261900Y146250D01*
X266400Y146250D01*
X266400Y129475D02*
X261900Y129475D01*
X261900Y130900D02*
X266400Y130900D01*
X266400Y132325D02*
X261900Y132325D01*
X261900Y133750D02*
X266400Y133750D01*
X266400Y135175D02*
X261900Y135175D01*
X261900Y136600D02*
X266400Y136600D01*
X266400Y138025D02*
X261900Y138025D01*
X261900Y139450D02*
X266400Y139450D01*
X266400Y140875D02*
X261900Y140875D01*
X261900Y142300D02*
X266400Y142300D01*
X266400Y143725D02*
X261900Y143725D01*
X261900Y145150D02*
X266400Y145150D01*
X253700Y146250D02*
X253700Y128050D01*
X249200Y128050D01*
X249200Y146250D01*
X253700Y146250D01*
X253700Y129475D02*
X249200Y129475D01*
X249200Y130900D02*
X253700Y130900D01*
X253700Y132325D02*
X249200Y132325D01*
X249200Y133750D02*
X253700Y133750D01*
X253700Y135175D02*
X249200Y135175D01*
X249200Y136600D02*
X253700Y136600D01*
X253700Y138025D02*
X249200Y138025D01*
X249200Y139450D02*
X253700Y139450D01*
X253700Y140875D02*
X249200Y140875D01*
X249200Y142300D02*
X253700Y142300D01*
X253700Y143725D02*
X249200Y143725D01*
X249200Y145150D02*
X253700Y145150D01*
X241000Y146250D02*
X241000Y128050D01*
X236500Y128050D01*
X236500Y146250D01*
X241000Y146250D01*
X241000Y129475D02*
X236500Y129475D01*
X236500Y130900D02*
X241000Y130900D01*
X241000Y132325D02*
X236500Y132325D01*
X236500Y133750D02*
X241000Y133750D01*
X241000Y135175D02*
X236500Y135175D01*
X236500Y136600D02*
X241000Y136600D01*
X241000Y138025D02*
X236500Y138025D01*
X236500Y139450D02*
X241000Y139450D01*
X241000Y140875D02*
X236500Y140875D01*
X236500Y142300D02*
X241000Y142300D01*
X241000Y143725D02*
X236500Y143725D01*
X236500Y145150D02*
X241000Y145150D01*
X228300Y146250D02*
X228300Y128050D01*
X223800Y128050D01*
X223800Y146250D01*
X228300Y146250D01*
X228300Y129475D02*
X223800Y129475D01*
X223800Y130900D02*
X228300Y130900D01*
X228300Y132325D02*
X223800Y132325D01*
X223800Y133750D02*
X228300Y133750D01*
X228300Y135175D02*
X223800Y135175D01*
X223800Y136600D02*
X228300Y136600D01*
X228300Y138025D02*
X223800Y138025D01*
X223800Y139450D02*
X228300Y139450D01*
X228300Y140875D02*
X223800Y140875D01*
X223800Y142300D02*
X228300Y142300D01*
X228300Y143725D02*
X223800Y143725D01*
X223800Y145150D02*
X228300Y145150D01*
X215600Y146250D02*
X215600Y128050D01*
X211100Y128050D01*
X211100Y146250D01*
X215600Y146250D01*
X215600Y129475D02*
X211100Y129475D01*
X211100Y130900D02*
X215600Y130900D01*
X215600Y132325D02*
X211100Y132325D01*
X211100Y133750D02*
X215600Y133750D01*
X215600Y135175D02*
X211100Y135175D01*
X211100Y136600D02*
X215600Y136600D01*
X215600Y138025D02*
X211100Y138025D01*
X211100Y139450D02*
X215600Y139450D01*
X215600Y140875D02*
X211100Y140875D01*
X211100Y142300D02*
X215600Y142300D01*
X215600Y143725D02*
X211100Y143725D01*
X211100Y145150D02*
X215600Y145150D01*
X202900Y146250D02*
X202900Y128050D01*
X198400Y128050D01*
X198400Y146250D01*
X202900Y146250D01*
X202900Y129475D02*
X198400Y129475D01*
X198400Y130900D02*
X202900Y130900D01*
X202900Y132325D02*
X198400Y132325D01*
X198400Y133750D02*
X202900Y133750D01*
X202900Y135175D02*
X198400Y135175D01*
X198400Y136600D02*
X202900Y136600D01*
X202900Y138025D02*
X198400Y138025D01*
X198400Y139450D02*
X202900Y139450D01*
X202900Y140875D02*
X198400Y140875D01*
X198400Y142300D02*
X202900Y142300D01*
X202900Y143725D02*
X198400Y143725D01*
X198400Y145150D02*
X202900Y145150D01*
X190200Y146250D02*
X190200Y128050D01*
X185700Y128050D01*
X185700Y146250D01*
X190200Y146250D01*
X190200Y129475D02*
X185700Y129475D01*
X185700Y130900D02*
X190200Y130900D01*
X190200Y132325D02*
X185700Y132325D01*
X185700Y133750D02*
X190200Y133750D01*
X190200Y135175D02*
X185700Y135175D01*
X185700Y136600D02*
X190200Y136600D01*
X190200Y138025D02*
X185700Y138025D01*
X185700Y139450D02*
X190200Y139450D01*
X190200Y140875D02*
X185700Y140875D01*
X185700Y142300D02*
X190200Y142300D01*
X190200Y143725D02*
X185700Y143725D01*
X185700Y145150D02*
X190200Y145150D01*
X177500Y146250D02*
X177500Y128050D01*
X173000Y128050D01*
X173000Y146250D01*
X177500Y146250D01*
X177500Y129475D02*
X173000Y129475D01*
X173000Y130900D02*
X177500Y130900D01*
X177500Y132325D02*
X173000Y132325D01*
X173000Y133750D02*
X177500Y133750D01*
X177500Y135175D02*
X173000Y135175D01*
X173000Y136600D02*
X177500Y136600D01*
X177500Y138025D02*
X173000Y138025D01*
X173000Y139450D02*
X177500Y139450D01*
X177500Y140875D02*
X173000Y140875D01*
X173000Y142300D02*
X177500Y142300D01*
X177500Y143725D02*
X173000Y143725D01*
X173000Y145150D02*
X177500Y145150D01*
X177440Y172092D02*
X177440Y190292D01*
X177440Y172092D02*
X172940Y172092D01*
X172940Y190292D01*
X177440Y190292D01*
X177440Y173517D02*
X172940Y173517D01*
X172940Y174942D02*
X177440Y174942D01*
X177440Y176367D02*
X172940Y176367D01*
X172940Y177792D02*
X177440Y177792D01*
X177440Y179217D02*
X172940Y179217D01*
X172940Y180642D02*
X177440Y180642D01*
X177440Y182067D02*
X172940Y182067D01*
X172940Y183492D02*
X177440Y183492D01*
X177440Y184917D02*
X172940Y184917D01*
X172940Y186342D02*
X177440Y186342D01*
X177440Y187767D02*
X172940Y187767D01*
X172940Y189192D02*
X177440Y189192D01*
X190140Y190292D02*
X190140Y172092D01*
X185640Y172092D01*
X185640Y190292D01*
X190140Y190292D01*
X190140Y173517D02*
X185640Y173517D01*
X185640Y174942D02*
X190140Y174942D01*
X190140Y176367D02*
X185640Y176367D01*
X185640Y177792D02*
X190140Y177792D01*
X190140Y179217D02*
X185640Y179217D01*
X185640Y180642D02*
X190140Y180642D01*
X190140Y182067D02*
X185640Y182067D01*
X185640Y183492D02*
X190140Y183492D01*
X190140Y184917D02*
X185640Y184917D01*
X185640Y186342D02*
X190140Y186342D01*
X190140Y187767D02*
X185640Y187767D01*
X185640Y189192D02*
X190140Y189192D01*
X202840Y190292D02*
X202840Y172092D01*
X198340Y172092D01*
X198340Y190292D01*
X202840Y190292D01*
X202840Y173517D02*
X198340Y173517D01*
X198340Y174942D02*
X202840Y174942D01*
X202840Y176367D02*
X198340Y176367D01*
X198340Y177792D02*
X202840Y177792D01*
X202840Y179217D02*
X198340Y179217D01*
X198340Y180642D02*
X202840Y180642D01*
X202840Y182067D02*
X198340Y182067D01*
X198340Y183492D02*
X202840Y183492D01*
X202840Y184917D02*
X198340Y184917D01*
X198340Y186342D02*
X202840Y186342D01*
X202840Y187767D02*
X198340Y187767D01*
X198340Y189192D02*
X202840Y189192D01*
X215540Y190292D02*
X215540Y172092D01*
X211040Y172092D01*
X211040Y190292D01*
X215540Y190292D01*
X215540Y173517D02*
X211040Y173517D01*
X211040Y174942D02*
X215540Y174942D01*
X215540Y176367D02*
X211040Y176367D01*
X211040Y177792D02*
X215540Y177792D01*
X215540Y179217D02*
X211040Y179217D01*
X211040Y180642D02*
X215540Y180642D01*
X215540Y182067D02*
X211040Y182067D01*
X211040Y183492D02*
X215540Y183492D01*
X215540Y184917D02*
X211040Y184917D01*
X211040Y186342D02*
X215540Y186342D01*
X215540Y187767D02*
X211040Y187767D01*
X211040Y189192D02*
X215540Y189192D01*
X228240Y190292D02*
X228240Y172092D01*
X223740Y172092D01*
X223740Y190292D01*
X228240Y190292D01*
X228240Y173517D02*
X223740Y173517D01*
X223740Y174942D02*
X228240Y174942D01*
X228240Y176367D02*
X223740Y176367D01*
X223740Y177792D02*
X228240Y177792D01*
X228240Y179217D02*
X223740Y179217D01*
X223740Y180642D02*
X228240Y180642D01*
X228240Y182067D02*
X223740Y182067D01*
X223740Y183492D02*
X228240Y183492D01*
X228240Y184917D02*
X223740Y184917D01*
X223740Y186342D02*
X228240Y186342D01*
X228240Y187767D02*
X223740Y187767D01*
X223740Y189192D02*
X228240Y189192D01*
X240940Y190292D02*
X240940Y172092D01*
X236440Y172092D01*
X236440Y190292D01*
X240940Y190292D01*
X240940Y173517D02*
X236440Y173517D01*
X236440Y174942D02*
X240940Y174942D01*
X240940Y176367D02*
X236440Y176367D01*
X236440Y177792D02*
X240940Y177792D01*
X240940Y179217D02*
X236440Y179217D01*
X236440Y180642D02*
X240940Y180642D01*
X240940Y182067D02*
X236440Y182067D01*
X236440Y183492D02*
X240940Y183492D01*
X240940Y184917D02*
X236440Y184917D01*
X236440Y186342D02*
X240940Y186342D01*
X240940Y187767D02*
X236440Y187767D01*
X236440Y189192D02*
X240940Y189192D01*
X253640Y190292D02*
X253640Y172092D01*
X249140Y172092D01*
X249140Y190292D01*
X253640Y190292D01*
X253640Y173517D02*
X249140Y173517D01*
X249140Y174942D02*
X253640Y174942D01*
X253640Y176367D02*
X249140Y176367D01*
X249140Y177792D02*
X253640Y177792D01*
X253640Y179217D02*
X249140Y179217D01*
X249140Y180642D02*
X253640Y180642D01*
X253640Y182067D02*
X249140Y182067D01*
X249140Y183492D02*
X253640Y183492D01*
X253640Y184917D02*
X249140Y184917D01*
X249140Y186342D02*
X253640Y186342D01*
X253640Y187767D02*
X249140Y187767D01*
X249140Y189192D02*
X253640Y189192D01*
X266340Y190292D02*
X266340Y172092D01*
X261840Y172092D01*
X261840Y190292D01*
X266340Y190292D01*
X266340Y173517D02*
X261840Y173517D01*
X261840Y174942D02*
X266340Y174942D01*
X266340Y176367D02*
X261840Y176367D01*
X261840Y177792D02*
X266340Y177792D01*
X266340Y179217D02*
X261840Y179217D01*
X261840Y180642D02*
X266340Y180642D01*
X266340Y182067D02*
X261840Y182067D01*
X261840Y183492D02*
X266340Y183492D01*
X266340Y184917D02*
X261840Y184917D01*
X261840Y186342D02*
X266340Y186342D01*
X266340Y187767D02*
X261840Y187767D01*
X261840Y189192D02*
X266340Y189192D01*
X266340Y221592D02*
X266340Y239792D01*
X266340Y221592D02*
X261840Y221592D01*
X261840Y239792D01*
X266340Y239792D01*
X266340Y223017D02*
X261840Y223017D01*
X261840Y224442D02*
X266340Y224442D01*
X266340Y225867D02*
X261840Y225867D01*
X261840Y227292D02*
X266340Y227292D01*
X266340Y228717D02*
X261840Y228717D01*
X261840Y230142D02*
X266340Y230142D01*
X266340Y231567D02*
X261840Y231567D01*
X261840Y232992D02*
X266340Y232992D01*
X266340Y234417D02*
X261840Y234417D01*
X261840Y235842D02*
X266340Y235842D01*
X266340Y237267D02*
X261840Y237267D01*
X261840Y238692D02*
X266340Y238692D01*
X253640Y239792D02*
X253640Y221592D01*
X249140Y221592D01*
X249140Y239792D01*
X253640Y239792D01*
X253640Y223017D02*
X249140Y223017D01*
X249140Y224442D02*
X253640Y224442D01*
X253640Y225867D02*
X249140Y225867D01*
X249140Y227292D02*
X253640Y227292D01*
X253640Y228717D02*
X249140Y228717D01*
X249140Y230142D02*
X253640Y230142D01*
X253640Y231567D02*
X249140Y231567D01*
X249140Y232992D02*
X253640Y232992D01*
X253640Y234417D02*
X249140Y234417D01*
X249140Y235842D02*
X253640Y235842D01*
X253640Y237267D02*
X249140Y237267D01*
X249140Y238692D02*
X253640Y238692D01*
X240940Y239792D02*
X240940Y221592D01*
X236440Y221592D01*
X236440Y239792D01*
X240940Y239792D01*
X240940Y223017D02*
X236440Y223017D01*
X236440Y224442D02*
X240940Y224442D01*
X240940Y225867D02*
X236440Y225867D01*
X236440Y227292D02*
X240940Y227292D01*
X240940Y228717D02*
X236440Y228717D01*
X236440Y230142D02*
X240940Y230142D01*
X240940Y231567D02*
X236440Y231567D01*
X236440Y232992D02*
X240940Y232992D01*
X240940Y234417D02*
X236440Y234417D01*
X236440Y235842D02*
X240940Y235842D01*
X240940Y237267D02*
X236440Y237267D01*
X236440Y238692D02*
X240940Y238692D01*
X228240Y239792D02*
X228240Y221592D01*
X223740Y221592D01*
X223740Y239792D01*
X228240Y239792D01*
X228240Y223017D02*
X223740Y223017D01*
X223740Y224442D02*
X228240Y224442D01*
X228240Y225867D02*
X223740Y225867D01*
X223740Y227292D02*
X228240Y227292D01*
X228240Y228717D02*
X223740Y228717D01*
X223740Y230142D02*
X228240Y230142D01*
X228240Y231567D02*
X223740Y231567D01*
X223740Y232992D02*
X228240Y232992D01*
X228240Y234417D02*
X223740Y234417D01*
X223740Y235842D02*
X228240Y235842D01*
X228240Y237267D02*
X223740Y237267D01*
X223740Y238692D02*
X228240Y238692D01*
X215540Y239792D02*
X215540Y221592D01*
X211040Y221592D01*
X211040Y239792D01*
X215540Y239792D01*
X215540Y223017D02*
X211040Y223017D01*
X211040Y224442D02*
X215540Y224442D01*
X215540Y225867D02*
X211040Y225867D01*
X211040Y227292D02*
X215540Y227292D01*
X215540Y228717D02*
X211040Y228717D01*
X211040Y230142D02*
X215540Y230142D01*
X215540Y231567D02*
X211040Y231567D01*
X211040Y232992D02*
X215540Y232992D01*
X215540Y234417D02*
X211040Y234417D01*
X211040Y235842D02*
X215540Y235842D01*
X215540Y237267D02*
X211040Y237267D01*
X211040Y238692D02*
X215540Y238692D01*
X202840Y239792D02*
X202840Y221592D01*
X198340Y221592D01*
X198340Y239792D01*
X202840Y239792D01*
X202840Y223017D02*
X198340Y223017D01*
X198340Y224442D02*
X202840Y224442D01*
X202840Y225867D02*
X198340Y225867D01*
X198340Y227292D02*
X202840Y227292D01*
X202840Y228717D02*
X198340Y228717D01*
X198340Y230142D02*
X202840Y230142D01*
X202840Y231567D02*
X198340Y231567D01*
X198340Y232992D02*
X202840Y232992D01*
X202840Y234417D02*
X198340Y234417D01*
X198340Y235842D02*
X202840Y235842D01*
X202840Y237267D02*
X198340Y237267D01*
X198340Y238692D02*
X202840Y238692D01*
X190140Y239792D02*
X190140Y221592D01*
X185640Y221592D01*
X185640Y239792D01*
X190140Y239792D01*
X190140Y223017D02*
X185640Y223017D01*
X185640Y224442D02*
X190140Y224442D01*
X190140Y225867D02*
X185640Y225867D01*
X185640Y227292D02*
X190140Y227292D01*
X190140Y228717D02*
X185640Y228717D01*
X185640Y230142D02*
X190140Y230142D01*
X190140Y231567D02*
X185640Y231567D01*
X185640Y232992D02*
X190140Y232992D01*
X190140Y234417D02*
X185640Y234417D01*
X185640Y235842D02*
X190140Y235842D01*
X190140Y237267D02*
X185640Y237267D01*
X185640Y238692D02*
X190140Y238692D01*
X177440Y239792D02*
X177440Y221592D01*
X172940Y221592D01*
X172940Y239792D01*
X177440Y239792D01*
X177440Y223017D02*
X172940Y223017D01*
X172940Y224442D02*
X177440Y224442D01*
X177440Y225867D02*
X172940Y225867D01*
X172940Y227292D02*
X177440Y227292D01*
X177440Y228717D02*
X172940Y228717D01*
X172940Y230142D02*
X177440Y230142D01*
X177440Y231567D02*
X172940Y231567D01*
X172940Y232992D02*
X177440Y232992D01*
X177440Y234417D02*
X172940Y234417D01*
X172940Y235842D02*
X177440Y235842D01*
X177440Y237267D02*
X172940Y237267D01*
X172940Y238692D02*
X177440Y238692D01*
D11*
X96592Y146100D03*
X96592Y152600D03*
X96592Y159100D03*
X78092Y159100D03*
X78092Y152600D03*
X78092Y146100D03*
D12*
X75892Y119066D03*
X65892Y119066D03*
X96506Y119041D03*
X86506Y119041D03*
D13*
X67470Y146737D03*
X67470Y133737D03*
D14*
X298368Y267504D03*
X298368Y309004D03*
D15*
X101600Y198000D03*
X101600Y183000D03*
X88900Y198000D03*
X88900Y183000D03*
X76200Y198000D03*
X76200Y183000D03*
D16*
X101600Y220900D03*
X101600Y210900D03*
X88900Y220900D03*
X88900Y210900D03*
X76200Y220900D03*
X76200Y210900D03*
D12*
X179485Y42153D03*
X169485Y42153D03*
D16*
X179501Y62507D03*
X179501Y52507D03*
X169458Y62511D03*
X169458Y52511D03*
D12*
X220446Y41950D03*
X230446Y41950D03*
D16*
X220374Y52289D03*
X220374Y62289D03*
X230484Y52302D03*
X230484Y62302D03*
D12*
X281085Y41804D03*
X271085Y41804D03*
D16*
X271081Y62172D03*
X271081Y52172D03*
X281100Y62165D03*
X281100Y52165D03*
D13*
X158459Y59308D03*
X158459Y46308D03*
X190579Y59270D03*
X190579Y46270D03*
X209466Y59003D03*
X209466Y46003D03*
X241558Y59045D03*
X241558Y46045D03*
X259923Y58884D03*
X259923Y45884D03*
X292598Y58925D03*
X292598Y45925D03*
D16*
X160540Y119600D03*
X160540Y109600D03*
D13*
X160331Y137236D03*
X160331Y150236D03*
D16*
X160322Y208236D03*
X160322Y198236D03*
D13*
X160363Y230771D03*
X160363Y243771D03*
D17*
X117581Y43114D03*
X130581Y43114D03*
D18*
X326224Y153551D03*
X326224Y168791D03*
X326224Y184031D03*
D12*
X297671Y241073D03*
X307671Y241073D03*
D17*
X69057Y108195D03*
X82057Y108195D03*
D19*
X302533Y202874D03*
X293033Y224874D03*
X312033Y224874D03*
M02*
